<?xml version="1.0" encoding="utf-8"?>
<!-- Generator: Adobe Illustrator 15.1.0, SVG Export Plug-In . SVG Version: 6.00 Build 0)  -->
<!DOCTYPE svg PUBLIC "-//W3C//DTD SVG 1.1//EN" "http://www.w3.org/Graphics/SVG/1.1/DTD/svg11.dtd">
<svg version="1.1" id="Layer_1" xmlns="http://www.w3.org/2000/svg" xmlns:xlink="http://www.w3.org/1999/xlink" x="0px" y="0px"
	 width="530px" height="650px" viewBox="-38 -90 530 650" enable-background="new -38 -90 530 650" xml:space="preserve">
<title>ohka-website_image_border</title>
<path fill="#6CB358" d="M-28.701,207.09c-7.737,81.174-5.97,119.936-0.682,201.304c4.919,75.559-3.118,145.109-3.118,145.109
	l418.518-3.894c11.027,0.394,66.435,6.655,77.438,8.287c4.308,0.637,8.417,1.077,8.626-3.601c0.128-2.972,0.867-5.881,2.171-8.555
	c3.048-3.484,4.829-6.324,5.058-10.955c-0.993-45.396-1.999-90.802-2.126-136.206c0.594-28.938,0.979-57.873,1.156-86.811
	c0-1.689,0-3.379,0-5.079c0.103-3.368,0.22-6.749,0.345-10.117c1.49-39.69,5.371-79.17,7.461-118.812
	c2.116-40.271,2.355-80.585,0.716-120.941c-1.824-44.828-0.403-75.037-6.767-119.448c0-0.336-1.155-10.487-1.305-10.788l1.153-8.021
	l-31.594-0.196c-67.262-2.376-134.541-4.109-201.84-5.198c-36.445-0.585-72.888-0.972-109.333-1.157
	c-36.813-0.208-73.777-1.007-110.545,1.366c-6.582,0.429-20.093,0.961-26.663,1.644l-33.708-0.243l5.774,11.736l0,0
	C-27.964-73.486-25.85,177.645-28.701,207.09z"/>
</svg>
