<?xml version="1.0" encoding="utf-8"?>
<!-- Generator: Adobe Illustrator 15.1.0, SVG Export Plug-In  -->
<!DOCTYPE svg PUBLIC "-//W3C//DTD SVG 1.1//EN" "http://www.w3.org/Graphics/SVG/1.1/DTD/svg11.dtd" [
	<!ENTITY ns_flows "http://ns.adobe.com/Flows/1.0/">
]>
<svg version="1.1"
	 xmlns="http://www.w3.org/2000/svg" xmlns:xlink="http://www.w3.org/1999/xlink" xmlns:a="http://ns.adobe.com/AdobeSVGViewerExtensions/3.0/"
	 x="0px" y="0px" width="916px" height="82px" viewBox="-1.852 -3.503 916 82"
	 overflow="visible" enable-background="new -1.852 -3.503 916 82" xml:space="preserve">
<defs>
</defs>
<path d="M9.138,31.677C-4.371,40.381-1.285,44.538,7.949,53.265c8.588,8.103-5.444,15.562-5.444,15.562l734.763-0.249
	c19.254,0.043,115.992,0.714,135.205,0.889c7.521,0.068,14.698,0.116,15.06-0.386c0.226-0.318,1.515-0.631,3.79-0.917
	c5.322-0.374,8.434-0.848,8.832-1.345c-1.735-4.868-3.489-9.737-3.709-14.606c1.033-3.104,1.706-6.207,2.016-9.31
	c0-0.182,0-0.362,0-0.545c0.181-0.361,0.383-0.724,0.604-1.085c2.601-4.256,9.376-8.49,13.024-12.742
	c3.695-4.318,4.113-8.642,1.25-12.969c-3.186-4.808-0.705-8.048-11.816-12.811c0-0.035-2.016-1.125-2.277-1.156l2.016-0.86
	L846.1,0.713c-117.439-0.255-234.91-0.44-352.413-0.558c-63.632-0.062-127.263-0.104-190.893-0.123
	c-64.276-0.023-128.814-0.108-193.012,0.146C98.29,0.224,74.699,0.281,63.229,0.354L4.376,0.328l10.08,1.259l0,0
	C14.456,1.587,14.118,28.519,9.138,31.677z"/>
</svg>
