<?xml version="1.0" encoding="utf-8"?>
<!-- Generator: Adobe Illustrator 15.1.0, SVG Export Plug-In  -->
<!DOCTYPE svg PUBLIC "-//W3C//DTD SVG 1.1//EN" "http://www.w3.org/Graphics/SVG/1.1/DTD/svg11.dtd" [
	<!ENTITY ns_flows "http://ns.adobe.com/Flows/1.0/">
]>
<svg version="1.1"
	 xmlns="http://www.w3.org/2000/svg" xmlns:xlink="http://www.w3.org/1999/xlink" xmlns:a="http://ns.adobe.com/AdobeSVGViewerExtensions/3.0/"
	 x="0px" y="0px" width="83px" height="916px" viewBox="-6.413 -3.503 83 916"
	 overflow="visible" enable-background="new -6.413 -3.503 83 916" xml:space="preserve">
<defs>
</defs>
<path d="M0.73,417.197c-1.079,114.65-0.833,169.4-0.095,284.326C1.321,808.244,0.2,906.48,0.2,906.48l58.705-3.27
	c1.539,0.556,9.268,9.4,10.803,11.704c0.602,0.898,1.175,1.521,1.203-5.085c0.019-4.195,0.121-8.308,0.303-12.08
	c0.426-4.926,0.674-11.165,0.706-17.706c-0.139-64.116-0.279-128.251-0.297-192.384c0.083-40.87,0.137-81.74,0.161-122.61
	c0-2.387,0-4.773,0-7.176c0.015-4.758,0.031-9.531,0.049-14.289c0.208-56.058,0.749-111.821,1.04-167.813
	c0.296-56.88,0.329-113.82,0.101-170.82c-0.255-63.316-0.057-105.984-0.944-168.713c0-0.474-0.161-14.812-0.182-15.236l0.161-11.329
	l-4.408-0.277c-9.383-3.356-18.769-5.805-28.156-7.341C34.36,1.228,29.276,0.682,24.192,0.42C19.057,0.126,13.9-1.003,8.771,2.349
	C7.854,2.955,5.969,3.705,5.052,4.67L0.35,4.328l0.806,16.576l0,0C1.155,20.904,1.128,375.608,0.73,417.197z"/>
</svg>
