<?xml version="1.0" encoding="utf-8"?>
<!-- Generator: Adobe Illustrator 15.1.0, SVG Export Plug-In  -->
<!DOCTYPE svg PUBLIC "-//W3C//DTD SVG 1.1//EN" "http://www.w3.org/Graphics/SVG/1.1/DTD/svg11.dtd" [
	<!ENTITY ns_flows "http://ns.adobe.com/Flows/1.0/">
]>
<svg version="1.1"
	 xmlns="http://www.w3.org/2000/svg" xmlns:xlink="http://www.w3.org/1999/xlink" xmlns:a="http://ns.adobe.com/AdobeSVGViewerExtensions/3.0/"
	 x="0px" y="0px" width="631px" height="309px" viewBox="-3.792 -6.295 631 309"
	 overflow="visible" enable-background="new -3.792 -6.295 631 309" xml:space="preserve">
<defs>
</defs>
<path fill="#FBDB42" d="M294.46,172.625c7.423-7.486,15.099-15.225,15.099-24.588c0-9.361-7.676-17.1-15.098-24.584
	c-5.608-5.655-10.905-10.996-12.744-16.66c-1.952-6.01-0.747-14.038,0.418-21.8c1.53-10.195,3.113-20.736-2.132-27.943
	c-5.311-7.298-15.896-9.045-26.133-10.735c-7.689-1.27-15.642-2.582-20.664-6.238c-4.936-3.591-8.593-10.688-12.13-17.55
	c-4.789-9.292-9.74-18.9-18.458-21.73C200.993,0.268,199.237,0,197.4,0c-6.894,0-14.393,3.747-21.645,7.371
	c-7.119,3.558-14.481,7.236-20.977,7.236c-6.496,0-13.858-3.679-20.978-7.236C126.55,3.747,119.052,0,112.158,0
	c-1.838,0-3.594,0.268-5.219,0.795c-8.717,2.831-13.669,12.438-18.457,21.73c-3.537,6.863-7.194,13.959-12.13,17.55
	c-5.023,3.656-12.975,4.968-20.664,6.238c-10.237,1.69-20.822,3.437-26.134,10.735c-5.244,7.207-3.661,17.748-2.131,27.942
	c1.166,7.763,2.371,15.79,0.42,21.801c-1.84,5.664-7.137,11.004-12.745,16.659C7.676,130.936,0,138.675,0,148.037
	c0,9.364,7.676,17.104,15.1,24.588c5.607,5.654,10.904,10.996,12.744,16.658c1.951,6.012,0.746,14.039-0.42,21.801
	c-1.53,10.195-3.113,20.736,2.131,27.943c5.312,7.297,15.896,9.045,26.134,10.734c7.689,1.27,15.641,2.582,20.664,6.238
	c4.936,3.592,8.593,10.688,12.13,17.551c4.789,9.293,9.741,18.9,18.457,21.73c1.626,0.527,3.382,0.795,5.219,0.795
	c6.895,0,14.393-3.748,21.645-7.371c7.119-3.557,14.48-7.236,20.977-7.236s13.857,3.68,20.978,7.236
	c7.251,3.625,14.749,7.371,21.644,7.371c1.837,0,3.593-0.268,5.218-0.795c8.718-2.83,13.669-12.439,18.458-21.73
	c3.537-6.863,7.194-13.959,12.13-17.551c5.022-3.656,12.975-4.969,20.664-6.238c10.236-1.689,20.822-3.438,26.133-10.734
	c5.245-7.207,3.662-17.748,2.132-27.943c-1.165-7.764-2.37-15.789-0.418-21.801C283.556,183.621,288.852,178.279,294.46,172.625z"/>
<path fill="#FF931E" d="M368.565,148.924c0.06,1.109,0.81,2.01,2.55,2.01c1.29,0,2.551-0.57,2.551-1.859c0-0.33,0-1.02-2.07-1.71
	l-2.43-0.81c-4.62-1.26-5.4-4.2-5.4-6.09c0-3.78,3.09-6.33,7.23-6.33c4.079,0,7.109,2.37,7.109,6.45h-5.01
	c0-1.11-0.631-1.92-2.16-1.92c-1.35,0-2.189,0.66-2.189,1.649c0,0.391,0.119,1.141,1.92,1.681l2.369,0.75
	c5.43,1.68,5.73,4.829,5.73,6.3c0,4.559-4.17,6.299-7.65,6.299c-4.619,0-7.619-2.52-7.619-6.42H368.565z"/>
<path fill="#FF931E" d="M391.006,141.094h4.77v13.98h-4.77v-2.189c-0.48,1.77-2.7,2.459-3.93,2.459c-3.75,0-5.58-2.551-5.58-6.9
	v-7.349h4.77v7.2c0,1.86,1.29,2.43,2.279,2.43c1.08,0,2.461-0.48,2.461-2.281V141.094z"/>
<path fill="#FF931E" d="M404.146,161.973h-4.771v-20.878h4.5v2.01c0.811-1.649,2.61-2.37,4.141-2.37c3.449,0,6.81,2.761,6.81,7.29
	c0,4.531-3.36,7.32-6.81,7.32c-1.68,0-2.971-0.57-3.87-1.561V161.973z M407.055,145.084c-1.59,0-2.909,1.409-2.909,3
	c0,1.589,1.319,2.82,2.909,2.82s2.91-1.32,2.91-2.911C409.965,146.404,408.645,145.084,407.055,145.084z"/>
<path fill="#FF931E" d="M422.416,161.973h-4.771v-20.878h4.5v2.01c0.81-1.649,2.61-2.37,4.14-2.37c3.45,0,6.811,2.761,6.811,7.29
	c0,4.531-3.36,7.32-6.811,7.32c-1.68,0-2.97-0.57-3.869-1.561V161.973z M425.325,145.084c-1.59,0-2.909,1.409-2.909,3
	c0,1.589,1.319,2.82,2.909,2.82s2.91-1.32,2.91-2.911C428.235,146.404,426.915,145.084,425.325,145.084z"/>
<path fill="#FF931E" d="M435.105,148.054c0-4.44,3.479-7.32,7.409-7.32c3.99,0,7.5,2.88,7.5,7.32c0,4.409-3.51,7.29-7.5,7.29
	C438.585,155.344,435.105,152.463,435.105,148.054z M442.515,150.965c1.591,0,2.91-1.32,2.91-2.911c0-1.59-1.319-2.91-2.91-2.91
	c-1.59,0-2.909,1.32-2.909,2.91C439.605,149.645,440.925,150.965,442.515,150.965z"/>
<path fill="#FF931E" d="M457.574,155.074h-4.77v-13.98h4.529v3.45c0.721-2.67,2.61-3.811,4.41-3.811c0.6,0,1.29,0.03,2.07,0.391
	l-1.17,4.5c-0.99-0.36-1.74-0.36-2.16-0.36c-1.8,0-2.91,1.02-2.91,5.22V155.074z"/>
<path fill="#FF931E" d="M471.734,141.094h2.939v3.51h-2.939v10.47h-4.71v-10.47h-2.55v-3.51h2.55v-5.01h4.71V141.094z"/>
<path fill="#FF931E" d="M494.024,134.134c5.879,0,10.56,4.74,10.56,10.62c0,5.82-4.681,10.589-10.56,10.589
	c-5.82,0-10.53-4.77-10.53-10.589C483.494,138.875,488.204,134.134,494.024,134.134z M494.024,150.305c3.06,0,5.52-2.46,5.52-5.55
	s-2.46-5.58-5.52-5.58c-3.061,0-5.46,2.49-5.46,5.58S490.964,150.305,494.024,150.305z"/>
<path fill="#FF931E" d="M516.854,141.094h4.77v13.98h-4.77v-2.189c-0.48,1.77-2.7,2.459-3.93,2.459c-3.75,0-5.58-2.551-5.58-6.9
	v-7.349h4.77v7.2c0,1.86,1.29,2.43,2.28,2.43c1.08,0,2.46-0.48,2.46-2.281V141.094z"/>
<path fill="#FF931E" d="M529.993,155.074h-4.77v-13.98h4.53v3.45c0.72-2.67,2.609-3.811,4.409-3.811c0.601,0,1.29,0.03,2.07,0.391
	l-1.17,4.5c-0.99-0.36-1.74-0.36-2.16-0.36c-1.8,0-2.91,1.02-2.91,5.22V155.074z"/>
<path fill="#FF931E" d="M561.072,146.165l3.6-11.76h5.46l-7.021,20.669h-3.869l-2.61-10.05l-2.52,10.05h-3.9l-6.959-20.669h5.43
	l3.569,11.76l2.34-8.79h4.17L561.072,146.165z"/>
<path fill="#FF931E" d="M570.913,148.054c0-4.44,3.479-7.32,7.409-7.32c3.99,0,7.5,2.88,7.5,7.32c0,4.409-3.51,7.29-7.5,7.29
	C574.393,155.344,570.913,152.463,570.913,148.054z M578.322,150.965c1.59,0,2.91-1.32,2.91-2.911c0-1.59-1.32-2.91-2.91-2.91
	s-2.909,1.32-2.909,2.91C575.413,149.645,576.732,150.965,578.322,150.965z"/>
<path fill="#FF931E" d="M593.382,155.074h-4.77v-13.98h4.53v3.45c0.72-2.67,2.609-3.811,4.409-3.811c0.601,0,1.29,0.03,2.07,0.391
	l-1.17,4.5c-0.99-0.36-1.74-0.36-2.16-0.36c-1.8,0-2.91,1.02-2.91,5.22V155.074z"/>
<path fill="#FF931E" d="M606.251,150.033v5.041h-4.77v-21.33h4.77v10.739l2.73-3.39h5.85l-5.16,6.21l6.271,7.77h-5.7
	L606.251,150.033z"/>
<path fill="#FF931E" d="M620.202,149.824c1.56,0,2.88,1.141,2.88,2.73c0,1.619-1.32,2.789-2.88,2.789c-1.53,0-2.82-1.17-2.82-2.789
	C617.382,150.965,618.672,149.824,620.202,149.824z M617.742,134.405h5.01l-0.54,13.739h-3.93L617.742,134.405z"/>
<path fill="#153454" d="M56.655,125.144c-0.655-0.654-0.982-1.259-0.982-1.813c0-0.101,0.05-0.352,0.151-0.756
	c0.251-0.604,0.805-0.956,1.662-1.058l1.964-0.227c4.28,0.906,8.713,3.274,13.297,7.102c1.209,1.008,2.19,2.065,2.946,3.173
	c2.417,3.577,3.626,6.926,3.626,10.048c0,1.764-0.328,3.3-0.982,4.608c-0.252,0.555-0.49,1.134-0.717,1.738
	c-0.228,0.603-0.467,1.183-0.718,1.738c-0.505,1.158-1.159,2.24-1.965,3.248s-1.586,1.99-2.342,2.945
	c-0.756,0.959-1.537,1.916-2.342,2.871c-1.915,2.268-3.652,3.93-5.213,4.986c-0.504,0.605-1.046,1.209-1.624,1.814
	c-0.58,0.604-1.146,0.906-1.7,0.906c-0.353,0-0.933-0.141-1.737-0.416c-0.807-0.277-1.36-0.717-1.662-1.322
	c-0.151-2.115-0.227-4.381-0.227-6.799c0-1.258,0.024-2.795,0.075-4.609c0.05-1.812,0.125-3.953,0.227-6.421
	c0.101-2.467,0.176-4.608,0.227-6.421c0.05-1.813,0.076-3.349,0.076-4.608c0-1.611-0.038-3.173-0.113-4.685
	c-0.076-1.511-0.164-2.946-0.265-4.306L56.655,125.144z M64.512,156.496c5.691-5.691,8.537-11.106,8.537-16.243
	c0-0.352-0.013-0.705-0.037-1.058c-0.026-0.353-0.064-0.705-0.114-1.058c-0.453-3.174-3.147-5.969-8.083-8.386
	c-0.102,2.87-0.189,5.779-0.265,8.726s-0.113,6.006-0.113,9.179c0,1.462,0,2.921,0,4.382S64.461,154.984,64.512,156.496z"/>
<path fill="#153454" d="M108.934,146.599c-0.755,1.764-1.662,3.387-2.72,4.874s-2.203,2.77-3.438,3.852
	c-1.234,1.084-2.568,1.928-4.004,2.531c-1.436,0.605-2.908,0.906-4.419,0.906c-1.058,0-2.255-0.275-3.589-0.83
	c-1.335-0.555-2.595-1.385-3.777-2.494c-1.184-1.107-2.191-2.455-3.022-4.041c-0.83-1.586-1.246-3.437-1.246-5.553
	c0-1.662,0.314-3.588,0.944-5.779c0.629-2.19,1.46-4.269,2.493-6.232c1.031-1.964,2.229-3.626,3.589-4.986
	c1.359-1.359,2.769-2.04,4.23-2.04c0.352,0,0.642,0.051,0.868,0.151c0.228,0.102,0.479,0.227,0.756,0.378
	c0.276,0.151,0.616,0.353,1.02,0.604c0.403,0.253,0.957,0.528,1.662,0.831c0.454,0.202,0.97,0.415,1.549,0.642
	c0.579,0.228,1.271,0.467,2.078,0.718c1.511,0.504,2.769,1.311,3.777,2.418c1.007,1.108,1.812,2.304,2.417,3.589
	c0.604,1.284,1.021,2.543,1.247,3.777s0.34,2.229,0.34,2.983C109.689,144.359,109.437,145.592,108.934,146.599z M102.89,141.916
	c-0.252-2.014-0.668-3.639-1.246-4.873c-0.58-1.233-1.373-1.851-2.38-1.851c-0.302,0-0.692,0.188-1.171,0.566
	c-0.479,0.378-0.957,0.793-1.436,1.246c-0.479,0.453-0.933,0.869-1.359,1.247c-0.429,0.377-0.718,0.566-0.869,0.566
	c-0.403,0-0.882-0.201-1.436-0.604c-0.555-0.402-0.933-0.604-1.133-0.604c-0.504,0-0.944,0.265-1.322,0.793
	c-0.378,0.529-0.693,1.159-0.944,1.889c-0.253,0.731-0.441,1.512-0.566,2.343c-0.127,0.831-0.189,1.548-0.189,2.152
	c0,1.311,0.201,2.493,0.604,3.551c0.402,1.058,0.881,1.964,1.436,2.72c0.554,0.756,1.12,1.334,1.7,1.738
	c0.578,0.402,1.02,0.604,1.321,0.604c0.957,0,1.965-0.34,3.022-1.02s2.026-1.549,2.908-2.607c0.881-1.057,1.611-2.215,2.191-3.474
	c0.578-1.259,0.868-2.468,0.868-3.627V141.916z"/>
<path fill="#153454" d="M115.884,166.242c-0.151-2.771-0.228-5.717-0.228-8.84c0-5.338,0.303-12.012,0.907-20.02l1.586-20.247
	c0.05-1.107,1.032-1.662,2.946-1.662c0.403,0,0.957,0.151,1.662,0.453c0.705,0.303,1.461,0.782,2.267,1.436
	c0.806,1.562,1.712,3.577,2.72,6.044c1.007,2.469,2.09,5.439,3.249,8.915c1.158,3.324,2.278,6.497,3.361,9.519
	c1.083,3.022,2.103,5.666,3.06,7.932l3.022-32.787c0.101-1.008,0.831-1.512,2.19-1.512c0.453,0,0.982,0.076,1.587,0.227l1.436,0.378
	c0.503,0.202,0.831,0.555,0.981,1.058l-2.039,20.322c-0.404,4.08-0.718,7.782-0.944,11.105c-0.227,3.324-0.34,6.348-0.34,9.066
	c0,0.857,0,1.727,0,2.607s0.049,1.801,0.15,2.756c0,0.756-0.314,1.424-0.944,2.002c-0.63,0.58-1.322,0.869-2.077,0.869
	c-1.562,0-2.871-1.057-3.929-3.172c-0.807-1.561-1.688-3.488-2.645-5.779s-1.977-4.822-3.06-7.594
	c-1.083-2.769-2.203-5.741-3.361-8.915c-1.159-3.173-2.342-6.446-3.551-9.82c-0.102-0.303-0.227-0.454-0.378-0.454
	c-0.353,0-0.58,0.354-0.68,1.058c-0.202,1.813-0.354,3.766-0.453,5.855c-0.102,2.091-0.164,4.243-0.189,6.459
	c-0.025,2.217-0.037,4.433-0.037,6.649c0,2.217,0,4.307,0,6.27c0,1.916,0.024,3.842,0.075,5.779c0.05,1.939,0.125,3.916,0.227,5.932
	v0.301c0,1.361-0.429,2.268-1.284,2.721c-0.354,0.352-0.73,0.529-1.134,0.529s-0.856-0.152-1.359-0.453l-1.436-0.682
	c-0.655-0.201-1.058-0.805-1.209-1.812L115.884,166.242z"/>
<path fill="#153454" d="M148.596,166.316c0-1.963,0.554-4.305,1.662-7.025c1.511-3.676,2.342-6.346,2.493-8.008
	c0-0.402-0.328-0.855-0.982-1.359c-0.706-0.555-1.058-0.982-1.058-1.285c0-0.302,0.101-0.553,0.303-0.755
	c0.2-0.302,0.729-0.528,1.586-0.68c0.856-0.201,1.334-0.479,1.436-0.831c0.906-2.467,2.342-7.151,4.307-14.052
	c0.855-3.022,1.648-5.653,2.379-7.895s1.423-4.167,2.078-5.78c0.302-0.704,0.932-1.058,1.889-1.058c0.705,0,1.334,0.228,1.889,0.681
	c1.409,1.208,2.316,3.021,2.72,5.439c0.151,1.008,0.302,2.039,0.453,3.097c0.151,1.059,0.276,2.091,0.378,3.098
	c1.258,5.943,2.543,11.346,3.853,16.205c1.31,4.861,2.645,9.255,4.004,13.183c0.303,0.857,0.454,1.562,0.454,2.115
	c0,1.008-0.429,1.889-1.285,2.645c-0.806,0.705-1.386,1.057-1.737,1.057c-2.468-0.453-4.03-2.441-4.684-5.967
	c-0.655-3.828-1.486-7.027-2.493-9.596l-5.138,0.453c-1.964,0.254-3.501,0.857-4.608,1.814c-0.252,0.807-0.566,1.889-0.944,3.248
	c-0.377,1.359-0.793,3.047-1.246,5.062c-0.857,3.727-1.688,6.521-2.493,8.385c-0.253,0.605-0.756,0.906-1.511,0.906
	c-0.151,0-0.315,0-0.491,0c-0.177,0-0.366-0.051-0.566-0.15c-1.662-0.504-2.544-1.26-2.645-2.268V166.316z M166.954,144.862
	c-0.102-1.007-0.227-2.027-0.378-3.06s-0.353-2.103-0.604-3.211c-0.253-1.007-0.491-2.014-0.718-3.022
	c-0.227-1.007-0.466-2.014-0.718-3.021c-1.511,4.23-2.821,8.412-3.929,12.541C161.413,144.937,163.528,144.862,166.954,144.862z"/>
<path fill="#153454" d="M199.816,163.674c0,0.301-0.014,0.566-0.038,0.793c-0.025,0.227-0.063,0.439-0.113,0.641
	c-0.253,0.756-0.756,1.135-1.511,1.135c-1.462-0.051-2.657-0.668-3.589-1.852c-0.933-1.184-1.448-2.504-1.549-3.967
	c-0.15-1.861-0.227-3.826-0.227-5.893c0-3.324,0.227-8.586,0.68-15.79c0.201-3.021,0.353-5.729,0.454-8.121
	c0.1-2.392,0.15-4.469,0.15-6.232v-1.436h-0.981c-0.604,0-1.298,0.026-2.078,0.075c-0.781,0.051-1.65,0.151-2.606,0.303
	c-0.555,0.102-0.981,0.188-1.284,0.265c-0.302,0.075-0.73,0.113-1.284,0.113c-2.418,0-4.433-0.654-6.044-1.965
	c-0.604-1.258-0.906-1.938-0.906-2.039c0-0.403,0.177-0.78,0.528-1.134c0.806-0.251,1.738-0.491,2.796-0.718
	s2.366-0.415,3.928-0.566c4.231-0.453,7.505-1.259,9.821-2.418c1.914,0.556,3.929,0.831,6.044,0.831s4.28-0.275,6.497-0.831
	c0.303-0.049,0.78-0.162,1.436-0.34c0.654-0.176,1.334-0.364,2.04-0.566c1.209-0.352,2.392-0.528,3.551-0.528
	c0.151,0,0.313,0.013,0.491,0.037c0.176,0.026,0.34,0.038,0.491,0.038c0.755,0,1.133,0.277,1.133,0.831v0.302
	c1.359,0,2.04,0.454,2.04,1.36c-0.453,1.813-1.311,2.871-2.569,3.173c-1.612,0.403-3.664,0.844-6.156,1.322
	c-2.493,0.479-5.755,1.046-9.784,1.699c-0.504,6.347-0.882,12.088-1.133,17.226c-0.253,5.137-0.378,9.847-0.378,14.126
	c0,1.613,0.012,3.188,0.038,4.723c0.024,1.537,0.062,3.086,0.113,4.646V163.674z"/>
<path fill="#153454" d="M223.537,142.973c0.101-0.453,0.478-0.856,1.133-1.209c0.756-0.402,1.183-0.805,1.284-1.209
	c0.05-0.2,0.126-0.881,0.227-2.04c0.101-1.157,0.228-2.87,0.378-5.137c-2.771-0.503-4.155-1.561-4.155-3.173
	c0.05-1.461,0.932-2.618,2.645-3.476l4.835-1.964c0.956-0.503,2.014-0.956,3.173-1.36c1.158-0.402,2.442-0.805,3.854-1.209
	c1.258-0.352,2.493-0.68,3.701-0.981c1.209-0.303,2.442-0.604,3.702-0.907c0.101-0.049,0.402-0.075,0.906-0.075
	c1.36,0,2.947,0.529,4.76,1.587c0.05,0.201,0.176,0.579,0.378,1.133c0.2,0.555,0.302,0.957,0.302,1.209
	c0,0.453-0.177,0.781-0.528,0.982c-0.957,0.403-2.115,0.818-3.476,1.246c-1.359,0.429-2.946,0.895-4.759,1.397
	c-1.813,0.504-3.4,0.971-4.76,1.397c-1.36,0.429-2.52,0.845-3.476,1.247c-0.201,0.604-0.391,1.637-0.566,3.098
	c-0.177,1.461-0.315,3.35-0.415,5.666c0.805,0.302,1.737,0.453,2.795,0.453c0.402,0,0.894-0.038,1.473-0.113
	c0.579-0.076,1.271-0.163,2.078-0.265c0.805-0.101,1.498-0.188,2.077-0.265c0.579-0.075,1.069-0.113,1.474-0.113
	c1.409,0,2.618,0.303,3.626,0.907c0.705,1.008,1.058,1.661,1.058,1.964c0,0.353-0.177,0.63-0.528,0.831
	c-0.051,0.051-0.164,0.151-0.34,0.302c-0.178,0.151-0.416,0.404-0.718,0.756c-0.303,0.403-0.807,0.604-1.512,0.604
	c-1.058,0.202-2.997,0.353-5.816,0.453c-2.368,0.102-4.257,0.403-5.666,0.906c-0.958,3.526-1.436,6.473-1.436,8.84
	c0,1.359,0.2,2.518,0.604,3.475c2.064,1.461,5.464,2.191,10.198,2.191c0.352,0,0.692-0.012,1.021-0.039
	c0.326-0.023,0.691-0.037,1.095-0.037s0.831-0.189,1.285-0.566c0.453-0.379,0.83-0.566,1.133-0.566c0.101,0,0.176-0.012,0.227-0.039
	c0.05-0.023,0.125-0.037,0.227-0.037c1.209,0,1.989,1.084,2.342,3.248c0,0.102,0.012,0.203,0.038,0.303
	c0.024,0.102,0.038,0.201,0.038,0.303c0,0.705-0.215,1.322-0.643,1.85c-0.429,0.529-0.995,0.818-1.7,0.869
	c-0.453,0-0.906,0.012-1.359,0.039c-0.453,0.023-0.906,0.037-1.36,0.037c-4.835,0-9.217-0.504-13.145-1.512
	c-1.411-0.352-2.695-1.133-3.854-2.342c-1.159-1.209-1.812-2.568-1.964-4.08c-0.102-1.105-0.189-2.164-0.265-3.172
	s-0.113-2.014-0.113-3.021s0.038-1.977,0.113-2.91c0.075-0.93,0.163-1.824,0.265-2.681c-1.26-0.906-1.889-1.737-1.889-2.493V142.973
	z"/>
</svg>
