<?xml version="1.0" encoding="utf-8"?>
<!-- Generator: Adobe Illustrator 15.1.0, SVG Export Plug-In . SVG Version: 6.00 Build 0)  -->
<!DOCTYPE svg PUBLIC "-//W3C//DTD SVG 1.1//EN" "http://www.w3.org/Graphics/SVG/1.1/DTD/svg11.dtd">
<svg version="1.1" id="Layer_1" xmlns="http://www.w3.org/2000/svg" xmlns:xlink="http://www.w3.org/1999/xlink" x="0px" y="0px"
	 width="631px" height="309px" viewBox="0 0 631 309" enable-background="new 0 0 631 309" xml:space="preserve">
<path fill="#FBDB42" d="M294.46,172.625c7.423-7.486,15.099-15.225,15.099-24.588c0-9.361-7.676-17.1-15.098-24.584
	c-5.608-5.655-10.905-10.996-12.744-16.66c-1.952-6.01-0.747-14.038,0.418-21.8c1.53-10.195,3.113-20.736-2.132-27.943
	c-5.311-7.298-15.896-9.045-26.133-10.735c-7.689-1.27-15.642-2.582-20.664-6.238c-4.936-3.591-8.593-10.688-12.13-17.55
	c-4.789-9.292-9.74-18.9-18.458-21.73C200.993,0.268,199.237,0,197.4,0c-6.894,0-14.393,3.747-21.645,7.371
	c-7.119,3.558-14.481,7.236-20.977,7.236c-6.496,0-13.858-3.679-20.978-7.236C126.55,3.747,119.052,0,112.158,0
	c-1.838,0-3.594,0.268-5.219,0.795c-8.717,2.831-13.669,12.438-18.457,21.73c-3.537,6.863-7.194,13.959-12.13,17.55
	c-5.023,3.656-12.975,4.968-20.664,6.238c-10.237,1.69-20.822,3.437-26.134,10.735c-5.244,7.207-3.661,17.748-2.131,27.942
	c1.166,7.763,2.371,15.79,0.42,21.801c-1.84,5.664-7.137,11.004-12.745,16.659C7.676,130.936,0,138.675,0,148.037
	c0,9.363,7.676,17.104,15.1,24.588c5.607,5.654,10.904,10.996,12.744,16.658c1.951,6.012,0.746,14.039-0.42,21.801
	c-1.53,10.195-3.113,20.736,2.131,27.943c5.312,7.297,15.896,9.045,26.134,10.734c7.689,1.27,15.641,2.579,20.664,6.235
	c4.936,3.592,8.593,10.688,12.13,17.551c4.789,9.293,9.741,18.9,18.457,21.729c1.626,0.525,3.382,0.796,5.219,0.796
	c6.895,0,14.393-3.748,21.645-7.371c7.119-3.56,14.48-7.234,20.977-7.234c6.497,0,13.857,3.681,20.978,7.234
	c7.251,3.625,14.749,7.371,21.644,7.371c1.837,0,3.593-0.271,5.218-0.796c8.718-2.829,13.669-12.438,18.458-21.729
	c3.537-6.86,7.194-13.959,12.13-17.551c5.022-3.656,12.975-4.97,20.664-6.235c10.236-1.689,20.822-3.438,26.133-10.734
	c5.245-7.207,3.662-17.748,2.132-27.943c-1.165-7.764-2.37-15.789-0.418-21.801C283.556,183.621,288.852,178.279,294.46,172.625z"/>
<path fill="#FF931E" d="M348.565,148.924c0.06,1.109,0.81,2.01,2.55,2.01c1.29,0,2.551-0.57,2.551-1.859c0-0.33,0-1.02-2.07-1.71
	l-2.43-0.81c-4.62-1.26-5.4-4.2-5.4-6.09c0-3.78,3.093-6.33,7.23-6.33c4.079,0,7.109,2.37,7.109,6.45h-5.013
	c0-1.11-0.631-1.92-2.16-1.92c-1.35,0-2.188,0.66-2.188,1.649c0,0.391,0.119,1.141,1.92,1.681l2.369,0.75
	c5.43,1.68,5.729,4.829,5.729,6.3c0,4.559-4.17,6.299-7.647,6.299c-4.619,0-7.619-2.52-7.619-6.42H348.565z"/>
<path fill="#FF931E" d="M371.006,141.094h4.771v13.98h-4.771v-2.189c-0.479,1.77-2.7,2.459-3.93,2.459c-3.75,0-5.58-2.551-5.58-6.9
	v-7.349h4.77v7.2c0,1.86,1.29,2.43,2.279,2.43c1.08,0,2.461-0.48,2.461-2.281V141.094z"/>
<path fill="#FF931E" d="M384.146,161.973h-4.771v-20.875h4.5v2.01c0.811-1.649,2.61-2.37,4.141-2.37c3.449,0,6.812,2.761,6.812,7.29
	c0,4.531-3.36,7.323-6.812,7.323c-1.68,0-2.971-0.573-3.867-1.562L384.146,161.973L384.146,161.973z M387.055,145.084
	c-1.59,0-2.906,1.409-2.906,3c0,1.589,1.316,2.82,2.906,2.82s2.91-1.32,2.91-2.911C389.965,146.404,388.645,145.084,387.055,145.084
	z"/>
<path fill="#FF931E" d="M402.416,161.973h-4.771v-20.875h4.5v2.01c0.812-1.649,2.61-2.37,4.143-2.37c3.45,0,6.811,2.761,6.811,7.29
	c0,4.531-3.357,7.323-6.811,7.323c-1.68,0-2.97-0.573-3.869-1.562L402.416,161.973L402.416,161.973z M405.325,145.084
	c-1.59,0-2.909,1.409-2.909,3c0,1.589,1.319,2.82,2.909,2.82s2.91-1.32,2.91-2.911C408.235,146.404,406.915,145.084,405.325,145.084
	z"/>
<path fill="#FF931E" d="M415.105,148.054c0-4.44,3.479-7.32,7.406-7.32c3.99,0,7.5,2.88,7.5,7.32c0,4.409-3.51,7.29-7.5,7.29
	C418.585,155.344,415.105,152.463,415.105,148.054z M422.515,150.965c1.594,0,2.91-1.32,2.91-2.911c0-1.59-1.316-2.91-2.91-2.91
	c-1.59,0-2.906,1.32-2.906,2.91C419.605,149.645,420.925,150.965,422.515,150.965z"/>
<path fill="#FF931E" d="M437.574,155.074h-4.771v-13.98h4.529v3.45c0.721-2.67,2.61-3.811,4.41-3.811c0.6,0,1.29,0.03,2.07,0.391
	l-1.173,4.5c-0.987-0.36-1.737-0.36-2.157-0.36c-1.803,0-2.91,1.02-2.91,5.22L437.574,155.074L437.574,155.074z"/>
<path fill="#FF931E" d="M451.734,141.094h2.938v3.51h-2.938v10.47h-4.71v-10.47h-2.553v-3.51h2.553v-5.01h4.71V141.094z"/>
<path fill="#FF931E" d="M474.024,134.134c5.879,0,10.56,4.74,10.56,10.62c0,5.82-4.681,10.589-10.56,10.589
	c-5.82,0-10.53-4.77-10.53-10.589C463.494,138.875,468.204,134.134,474.024,134.134z M474.024,150.305c3.06,0,5.52-2.46,5.52-5.55
	s-2.46-5.58-5.52-5.58c-3.062,0-5.46,2.49-5.46,5.58S470.964,150.305,474.024,150.305z"/>
<path fill="#FF931E" d="M496.854,141.094h4.771v13.98h-4.771v-2.189c-0.479,1.77-2.697,2.459-3.93,2.459
	c-3.75,0-5.58-2.551-5.58-6.9v-7.349h4.771v7.2c0,1.86,1.29,2.43,2.28,2.43c1.077,0,2.46-0.48,2.46-2.281L496.854,141.094
	L496.854,141.094z"/>
<path fill="#FF931E" d="M509.993,155.074h-4.771v-13.98h4.53v3.45c0.72-2.67,2.609-3.811,4.409-3.811c0.601,0,1.29,0.03,2.07,0.391
	l-1.172,4.5c-0.988-0.36-1.738-0.36-2.158-0.36c-1.803,0-2.91,1.02-2.91,5.22L509.993,155.074L509.993,155.074z"/>
<path fill="#FF931E" d="M541.072,146.165l3.6-11.76h5.46l-7.021,20.669h-3.869l-2.61-10.05l-2.52,10.05h-3.9l-6.959-20.669h5.43
	l3.569,11.76l2.34-8.79h4.17L541.072,146.165z"/>
<path fill="#FF931E" d="M550.913,148.054c0-4.44,3.479-7.32,7.409-7.32c3.99,0,7.5,2.88,7.5,7.32c0,4.409-3.51,7.29-7.5,7.29
	C554.393,155.344,550.913,152.463,550.913,148.054z M558.322,150.965c1.59,0,2.91-1.32,2.91-2.911c0-1.59-1.32-2.91-2.91-2.91
	s-2.909,1.32-2.909,2.91C555.413,149.645,556.732,150.965,558.322,150.965z"/>
<path fill="#FF931E" d="M573.382,155.074h-4.77v-13.98h4.527v3.45c0.723-2.67,2.609-3.811,4.409-3.811c0.604,0,1.29,0.03,2.07,0.391
	l-1.17,4.5c-0.99-0.36-1.74-0.36-2.16-0.36c-1.8,0-2.91,1.02-2.91,5.22L573.382,155.074L573.382,155.074z"/>
<path fill="#FF931E" d="M586.251,150.033v5.041h-4.771v-21.33h4.771v10.739l2.729-3.39h5.851l-5.16,6.21l6.271,7.77h-5.7
	L586.251,150.033z"/>
<path fill="#FF931E" d="M600.202,149.824c1.56,0,2.88,1.141,2.88,2.73c0,1.619-1.32,2.789-2.88,2.789c-1.53,0-2.82-1.17-2.82-2.789
	C597.382,150.965,598.672,149.824,600.202,149.824z M597.742,134.405h5.01l-0.54,13.739h-3.93L597.742,134.405z"/>
<g>
	<path fill="#153454" d="M57.049,120.892c-0.826-0.824-1.238-1.586-1.238-2.286c0-0.126,0.062-0.443,0.19-0.952
		c0.317-0.762,1.015-1.206,2.096-1.334l2.477-0.286c5.397,1.143,10.986,4.129,16.765,8.954c1.524,1.271,2.763,2.604,3.715,4
		c3.048,4.51,4.572,8.732,4.572,12.669c0,2.223-0.414,4.16-1.238,5.811c-0.318,0.699-0.619,1.429-0.905,2.191
		c-0.286,0.762-0.588,1.493-0.905,2.19c-0.636,1.461-1.462,2.825-2.477,4.096c-1.017,1.271-2,2.51-2.953,3.716
		c-0.953,1.207-1.938,2.414-2.953,3.618c-2.414,2.856-4.605,4.953-6.572,6.287c-0.636,0.763-1.319,1.523-2.048,2.287
		c-0.73,0.762-1.445,1.143-2.143,1.143c-0.445,0-1.176-0.176-2.191-0.523c-1.017-0.35-1.714-0.904-2.096-1.666
		c-0.19-2.668-0.286-5.523-0.286-8.574c0-1.586,0.031-3.522,0.095-5.811c0.062-2.286,0.158-4.984,0.286-8.097
		c0.126-3.11,0.222-5.811,0.286-8.097c0.062-2.286,0.095-4.222,0.095-5.811c0-2.032-0.048-4-0.143-5.906
		c-0.095-1.906-0.207-3.715-0.333-5.43L57.049,120.892z M66.956,160.423c7.175-7.175,10.764-14.002,10.764-20.48
		c0-0.443-0.016-0.889-0.047-1.333c-0.033-0.443-0.081-0.889-0.143-1.333c-0.571-4.001-3.969-7.525-10.192-10.574
		c-0.128,3.62-0.238,7.287-0.333,11.002c-0.095,3.715-0.143,7.573-0.143,11.573c0,1.843,0,3.683,0,5.525
		C66.86,156.646,66.892,158.518,66.956,160.423z"/>
	<path fill="#153454" d="M101.438,169.091c-1.081,0-2.048-0.302-2.905-0.903c-0.857-0.604-1.762-1.19-2.715-1.764
		c-2.096-1.205-3.715-2.794-4.858-4.763c-1.143-1.968-1.715-4.382-1.715-7.239c0-1.396,0.238-3.062,0.714-5.001
		c0.477-1.937,0.905-3.73,1.286-5.382c0.19-0.698,0.634-1.667,1.333-2.905c0.698-1.239,1.572-2.444,2.62-3.62
		c1.048-1.174,2.238-2.206,3.572-3.096c1.333-0.889,2.698-1.333,4.096-1.333c0.572,0,1.143,0.19,1.715,0.572
		c0.888,0.571,1.81,1.047,2.762,1.429c0.953,0.381,1.92,0.762,2.905,1.143c0.984,0.381,1.953,0.795,2.905,1.238
		c0.953,0.445,1.841,1.017,2.667,1.714c0.698,0.572,1.239,1.271,1.62,2.096c0.381,0.826,0.762,1.62,1.143,2.381
		c0.317,0.636,0.507,1.286,0.571,1.953c0.062,0.667,0.095,1.35,0.095,2.048v1.81c-0.064,1.968-0.461,3.794-1.19,5.477
		c-0.731,1.684-1.604,3.319-2.62,4.905c-0.509,0.826-1.176,1.777-2,2.856c-0.826,1.08-1.747,2.097-2.762,3.048
		c-1.017,0.953-2.081,1.764-3.191,2.432c-1.112,0.666-2.239,1-3.382,1c-0.318,0-0.652-0.019-1-0.049
		c-0.35-0.033-0.714-0.049-1.096-0.049L101.438,169.091L101.438,169.091z M110.773,146.325c0-1.841-0.667-3.175-2-4.001
		c-1.333-0.825-2.795-1.238-4.382-1.238c-1.271,0-2.35,0.493-3.238,1.477c-0.89,0.985-1.652,2.191-2.286,3.62
		c-0.636,1.429-1.096,2.953-1.381,4.572c-0.286,1.619-0.429,3.034-0.429,4.239c0,0.255,0.048,0.762,0.143,1.523
		c0.095,0.762,0.269,1.558,0.524,2.381c0.253,0.826,0.619,1.558,1.095,2.19c0.477,0.638,1.096,0.952,1.857,0.952
		c0.698,0,1.333-0.109,1.905-0.333c0.571-0.224,1.206-0.491,1.905-0.812c1.015-0.635,1.905-1.489,2.667-2.57
		c0.762-1.079,1.381-2.254,1.857-3.524c0.476-1.27,0.857-2.604,1.143-4c0.286-1.397,0.491-2.729,0.619-4.001L110.773,146.325
		L110.773,146.325z"/>
	<path fill="#153454" d="M133.824,154.993c0.889-0.89,1.603-2.032,2.144-3.429c0.539-1.396,1.062-2.73,1.571-4.001l0.191-0.572
		c0.381-1.015,0.952-2.27,1.714-3.763c0.762-1.491,1.65-2.92,2.667-4.286c1.015-1.365,2.127-2.524,3.334-3.477
		c1.206-0.953,2.444-1.429,3.715-1.429c1.079,0.318,1.889,0.826,2.429,1.524c0.539,0.7,0.953,1.477,1.238,2.334
		c0.286,0.857,0.539,1.747,0.762,2.667c0.222,0.921,0.524,1.795,0.905,2.62c0.825,1.843,1.444,3.81,1.857,5.906
		c0.413,2.097,0.762,4.224,1.048,6.382c0.286,2.159,0.619,4.286,1,6.383s0.952,4.032,1.714,5.812
		c-0.128,1.017-0.683,1.763-1.667,2.237c-0.985,0.478-1.857,0.716-2.62,0.716c-1.143,0-2.033-0.431-2.667-1.286
		c-0.636-0.855-1.128-1.905-1.477-3.145c-0.35-1.237-0.604-2.523-0.762-3.856c-0.16-1.334-0.366-2.444-0.619-3.334
		c-0.319-1.079-0.572-2.302-0.762-3.668c-0.19-1.364-0.414-2.746-0.667-4.143c-0.254-1.396-0.557-2.7-0.905-3.907
		c-0.35-1.206-0.842-2.19-1.477-2.953c-1.081,1.714-1.953,3.319-2.62,4.811c-0.667,1.493-1.271,2.922-1.81,4.287
		c-0.541,1.366-1.064,2.699-1.572,4c-0.509,1.303-1.143,2.62-1.905,3.953c-1.017,1.843-1.938,3.271-2.762,4.287
		c-0.826,1.018-1.588,1.762-2.286,2.238c-0.7,0.477-1.366,0.762-2,0.855c-0.635,0.096-1.238,0.145-1.81,0.145
		c-0.636,0-1.414-0.318-2.334-0.952c-0.921-0.636-1.381-1.396-1.381-2.286c0-4.001,0.015-7.716,0.048-11.146
		c0.031-3.429,0.047-7.048,0.047-10.858c0-1.079-0.033-2.174-0.095-3.286c-0.064-1.11-0.095-2.206-0.095-3.286
		c0-0.762,0.143-1.508,0.429-2.239c0.286-0.729,0.777-1.253,1.477-1.572c0.381,0,0.762-0.015,1.143-0.047
		c0.381-0.031,0.729-0.048,1.048-0.048c0.825,0,1.477,0.238,1.953,0.714c0.476,0.477,0.825,1.064,1.048,1.762
		c0.222,0.7,0.365,1.429,0.429,2.191c0.062,0.762,0.095,1.397,0.095,1.905c0,0.7,0.079,1.366,0.238,2
		c0.158,0.635,0.238,1.302,0.238,2c0,2.35-0.033,4.351-0.095,6.001c-0.064,1.652-0.095,3.238-0.095,4.762L133.824,154.993
		L133.824,154.993z"/>
	<path fill="#153454" d="M198.121,166.805c0.19,0.51,0.381,1.033,0.571,1.572c0.191,0.538,0.286,1.062,0.286,1.571
		c0,0.508-0.143,0.92-0.429,1.237c-0.286,0.316-0.636,0.57-1.048,0.763c-0.414,0.19-0.842,0.334-1.286,0.429
		c-0.445,0.096-0.857,0.145-1.238,0.145c-1.271,0-2.319-0.715-3.144-2.145c-0.826-1.429-1.493-3.206-2-5.334
		c-0.509-2.127-0.938-4.382-1.286-6.764c-0.35-2.381-0.683-4.524-1-6.43c-0.191,1.334-0.81,3.018-1.857,5.049
		c-1.048,2.033-2.367,3.983-3.953,5.856c-1.588,1.874-3.334,3.478-5.239,4.812c-1.905,1.334-3.81,2-5.715,2
		c-1.524,0-2.779-0.301-3.763-0.904c-0.985-0.604-1.731-1.35-2.238-2.238c-0.509-0.889-0.857-1.889-1.048-3
		c-0.19-1.109-0.286-2.145-0.286-3.097c0-2.095,0.524-4.683,1.571-7.763c1.048-3.081,2.477-6.081,4.287-9.002
		c1.81-2.92,3.906-5.413,6.287-7.478c2.381-2.063,4.905-3.096,7.573-3.096c0.571,0,1.222,0.095,1.953,0.286
		c0.729,0.19,1.477,0.429,2.238,0.714c0.762,0.286,1.492,0.636,2.191,1.048c0.698,0.414,1.301,0.81,1.81,1.191
		c1.079,0.89,1.81,2.096,2.191,3.62c0.381,1.524,0.667,3.112,0.857,4.763c0.443,3.176,0.793,6.049,1.048,8.621
		c0.253,2.571,0.729,5.287,1.429,8.145l0.571,3.522L198.121,166.805z M171.259,161.852c0,0.064,0.015,0.111,0.048,0.145
		c0.031,0.031,0.047,0.081,0.047,0.145c0.825-0.062,1.777-0.619,2.858-1.666c1.079-1.05,2.158-2.304,3.239-3.765
		c1.079-1.46,2.079-3.001,3-4.62c0.92-1.618,1.603-3.063,2.048-4.334c0.253-0.572,0.555-1.206,0.905-1.905
		c0.348-0.698,0.698-1.413,1.047-2.143c0.349-0.729,0.634-1.413,0.857-2.048c0.222-0.634,0.333-1.174,0.333-1.62
		c-0.318-0.126-0.604-0.253-0.857-0.381c-0.254-0.126-0.54-0.19-0.857-0.19c-1.397,0-2.636,0.54-3.715,1.619
		c-1.081,1.081-2.017,2.286-2.81,3.62c-0.794,1.333-1.445,2.62-1.953,3.858c-0.509,1.238-0.857,2.017-1.048,2.333
		c-0.89,1.588-1.636,3.304-2.238,5.145c-0.604,1.843-0.905,3.62-0.905,5.334L171.259,161.852L171.259,161.852z"/>
	<path fill="#153454" d="M209.124,107.937c0-0.762,0.095-1.586,0.286-2.477c0.507-0.253,0.92-0.46,1.238-0.619
		c0.317-0.158,0.729-0.238,1.238-0.238c1.079,0,1.953,0.19,2.62,0.572c0.667,0.381,1.174,0.857,1.524,1.429
		c0.348,0.571,0.586,1.224,0.714,1.953c0.126,0.731,0.19,1.445,0.19,2.143c0,1.334,0.031,2.493,0.096,3.477
		c0.062,0.985,0.095,1.953,0.095,2.905c0,1.017-0.017,2.017-0.048,3c-0.033,0.985-0.047,1.985-0.047,3
		c0,0.7-0.017,1.429-0.048,2.191c-0.033,0.762-0.048,1.557-0.048,2.381c0,0.381,0.031,0.731,0.096,1.048
		c0.062,0.319,0.348,0.477,0.857,0.477c1.651,0,3.096-0.27,4.334-0.81c1.238-0.539,2.682-0.81,4.334-0.81
		c0.889,0,1.491,0.35,1.81,1.048c0.317,0.7,0.477,1.397,0.477,2.096c0,0.826-0.19,1.477-0.572,1.953
		c-0.381,0.477-0.857,0.842-1.429,1.096c-0.571,0.254-1.19,0.461-1.857,0.619c-0.667,0.159-1.319,0.333-1.953,0.524
		c-0.572,0.254-1.255,0.493-2.048,0.714c-0.795,0.223-1.541,0.493-2.239,0.81c-0.7,0.318-1.302,0.731-1.81,1.238
		c-0.509,0.509-0.762,1.143-0.762,1.905c0,0.445,0.015,0.857,0.047,1.238c0.031,0.381,0.048,0.762,0.048,1.143
		c0,0.381-0.017,0.778-0.048,1.19c-0.033,0.414-0.047,0.843-0.047,1.286c0,2.857,0.205,5.827,0.619,8.906
		c0.412,3.081,0.872,6.049,1.381,8.905c0.19,0.892,0.412,1.778,0.667,2.668c0.253,0.891,0.381,1.715,0.381,2.478
		c0,1.08-0.286,1.872-0.857,2.381c-0.572,0.509-1.207,0.857-1.905,1.048c-0.636,0.127-1.017,0.19-1.143,0.19
		c-0.89,0-1.7-0.302-2.429-0.905c-0.73-0.604-1.35-1.35-1.857-2.238c-0.318-0.889-0.588-2.096-0.81-3.619
		c-0.223-1.522-0.366-2.92-0.429-4.189c-0.19-3.109-0.318-6.207-0.381-9.288c-0.064-3.079-0.128-6.175-0.19-9.287
		c0-0.253-0.017-0.491-0.048-0.714c-0.033-0.222-0.111-0.46-0.238-0.714c-1.143,0.19-2.095,0.477-2.857,0.857
		c-0.762,0.38-1.652,0.571-2.667,0.571c-1.271,0-2.35-0.412-3.239-1.238c-0.89-0.824-1.557-1.491-2-2
		c0-0.698,0.158-1.587,0.476-2.667c0.825-0.317,1.587-0.539,2.286-0.667c0.698-0.126,1.381-0.253,2.048-0.381
		c0.667-0.126,1.348-0.286,2.048-0.476c0.698-0.19,1.46-0.508,2.286-0.953c1.015,0,1.603-0.396,1.762-1.191
		c0.158-0.793,0.238-1.476,0.238-2.048c0-1.143-0.017-2.11-0.048-2.905c-0.033-0.793-0.047-1.92-0.047-3.381
		c0-0.953-0.017-1.92-0.048-2.905c-0.033-0.984-0.047-1.953-0.047-2.905V107.937L209.124,107.937z"/>
	<path fill="#153454" d="M228.699,152.707c0-2.35,0.301-4.715,0.905-7.097c0.603-2.381,1.508-4.524,2.715-6.43
		c1.206-1.905,2.698-3.444,4.477-4.62c1.777-1.174,3.841-1.762,6.191-1.762c1.651,0,3.096,0.254,4.334,0.762
		c1.238,0.509,2.27,1.176,3.096,2c0.824,0.826,1.444,1.762,1.857,2.81c0.412,1.048,0.619,2.144,0.619,3.287
		c0,1.461-0.271,2.874-0.81,4.239c-0.541,1.366-1.319,2.588-2.334,3.667c-1.017,1.082-2.271,1.953-3.763,2.621
		c-1.493,0.666-3.191,1.032-5.096,1.096c-0.826,0.062-1.557,0.031-2.19-0.096c-0.636-0.127-1.367-0.317-2.191-0.572
		c-0.064,0.318-0.095,0.588-0.095,0.811c0,0.223,0,0.396,0,0.523c0.062,2.351,0.443,4.191,1.143,5.525
		c0.698,1.332,1.46,2.332,2.286,3c0.824,0.666,1.619,1.096,2.381,1.285c0.762,0.189,1.27,0.286,1.524,0.286
		c1.968,0,3.604-0.444,4.906-1.334c1.301-0.89,2.746-1.872,4.334-2.953c0.317,0.128,0.667,0.271,1.048,0.429
		c0.381,0.159,0.729,0.463,1.048,0.905c0.062,0.382,0.126,0.683,0.19,0.904c0.062,0.224,0.095,0.557,0.095,1.001
		c-0.064,0.89-0.302,1.636-0.714,2.238c-0.414,0.604-0.874,1.127-1.381,1.57c-1.652,1.396-3.191,2.301-4.62,2.715
		c-1.429,0.412-3.287,0.619-5.573,0.619c-1.017,0-2.271-0.224-3.762-0.666c-1.493-0.445-2.748-0.923-3.763-1.431
		c-1.524-1.144-2.715-2.286-3.572-3.431c-0.857-1.144-1.524-2.348-2-3.618s-0.794-2.589-0.952-3.953
		C228.873,155.677,228.762,154.23,228.699,152.707z M236.986,147.563c0.253,0.064,0.65,0.111,1.191,0.143
		c0.539,0.033,0.967,0.048,1.286,0.048c2.158,0,3.825-0.539,5.001-1.62c1.174-1.079,1.762-2.381,1.762-3.905
		c0-0.889-0.254-1.714-0.762-2.477c-0.509-0.762-1.207-1.143-2.095-1.143c-0.636,0-1.255,0.064-1.857,0.19
		c-0.604,0.128-1.064,0.445-1.381,0.953c-0.254,0.318-0.541,0.635-0.857,0.953c-0.318,0.318-0.619,0.762-0.905,1.333
		c-0.286,0.571-0.557,1.286-0.81,2.143C237.303,145.039,237.113,146.167,236.986,147.563z"/>
</g>
</svg>
