<?xml version="1.0" encoding="utf-8"?>
<!-- Generator: Adobe Illustrator 15.1.0, SVG Export Plug-In . SVG Version: 6.00 Build 0)  -->
<!DOCTYPE svg PUBLIC "-//W3C//DTD SVG 1.1//EN" "http://www.w3.org/Graphics/SVG/1.1/DTD/svg11.dtd">
<svg version="1.1" id="Layer_1" xmlns="http://www.w3.org/2000/svg" xmlns:xlink="http://www.w3.org/1999/xlink" x="0px" y="0px"
	 width="200px" height="220px" viewBox="0 -20 200 220" enable-background="new 0 -20 200 220" xml:space="preserve">
<g>
	<g>
		<path fill="#F1F2F2" d="M197,166.346H3c0,0,49.891,14.699,97,14.699C147.109,181.045,197,166.346,197,166.346"/>
		<path fill="#ED572A" d="M14.993,168.328H3c-1.105,0-2-0.896-2-2s0.895-2,2-2h11.993c1.104,0,2,0.896,2,2
			C16.993,167.434,16.098,168.328,14.993,168.328"/>
		<path fill="#ED572A" d="M25.216,168.328h-3.515c-1.104,0-2-0.896-2-2s0.896-2,2-2h3.515c1.104,0,2,0.896,2,2
			C27.216,167.434,26.32,168.328,25.216,168.328"/>
		<path fill="#ED572A" d="M182.082,168.328H30.93c-1.105,0-2-0.896-2-2s0.895-2,2-2h151.152c1.104,0,2,0.896,2,2
			C184.082,167.434,183.186,168.328,182.082,168.328"/>
		<path fill="#ED572A" d="M197,168.328h-9.378c-1.104,0-2-0.896-2-2s0.896-2,2-2H197c1.104,0,2,0.896,2,2
			C199,167.434,198.104,168.328,197,168.328"/>
		<path fill="#F1F2F2" d="M122.714,70.906h-4.909c-1.012-0.021-10.136-0.663-10.136-15.815c0-10.55,9.185-41.635,9.185-44.821
			c0-8.829-7.225-16.052-16.053-16.052c-8.828,0-16.053,7.223-16.053,16.052c0,3.167,9.169,34.255,9.169,44.821
			c0,15.152-9.124,15.794-10.136,15.815h-4.895c-4.576,0-8.322,3.745-8.322,8.322v63.583c0,4.578,3.746,8.322,8.322,8.322h43.827
			c4.577,0,8.322-3.744,8.322-8.322V79.228C131.036,74.651,127.291,70.906,122.714,70.906"/>
		<path fill="#F49A7F" d="M70.564,97.21v45.601c0,4.578,3.746,8.322,8.322,8.322h43.827c4.577,0,8.322-3.744,8.322-8.322V97.21
			H70.564z"/>
		<path fill="#F06F48" d="M126.307,129.628c0-3.071-2.49-5.563-5.562-5.563s-5.562,2.492-5.562,5.563
			c0,3.354-2.402,4.989-2.402-6.623c0-2.185-0.102-3.098-0.102-5.612c0-3.072-2.49-5.562-5.562-5.562
			c-3.072,0-5.563,2.49-5.563,5.562c0,1.858-0.205,3.17-0.205,4.664c0,3.101-4.445,5.211-4.445-1.41
			c0-1.776-0.392-3.681-0.392-5.193c0-3.073-2.491-5.562-5.563-5.562c-3.071,0-5.562,2.489-5.562,5.562
			c0,3.105,0.305,7.738-4.582,7.738c-3.072,0-5.562,2.49-5.562,5.563c0,0.776,0.434,1.998-2.969,3.386v10.877
			c0,3.459,2.815,6.274,6.275,6.274h44.511c3.461,0,6.275-2.815,6.275-6.274v-6.83C129.331,136.188,126.307,137.816,126.307,129.628
			"/>
		<rect x="71.996" y="88.509" fill="#BCBEC0" width="57.609" height="8.701"/>
		<rect x="113.238" y="89.845" fill="#E6E7E8" width="10.188" height="6.152"/>
		<path fill="#ED572A" d="M122.714,68.906h-4.868c-0.836-0.017-8.176-0.548-8.176-13.816c0-6.563,3.898-22.22,6.479-32.582
			c1.826-7.337,2.705-10.922,2.705-12.238c0-9.954-8.099-18.053-18.053-18.053c-9.953,0-18.053,8.099-18.053,18.053
			c0,1.308,0.873,4.877,2.689,12.184c2.58,10.375,6.479,26.054,6.479,32.636c0,13.268-7.339,13.799-8.135,13.816h-4.895
			c-5.691,0-10.322,4.631-10.322,10.322V97.21v45.601c0,5.691,4.631,10.322,10.322,10.322h43.827
			c5.691,0,10.322-4.631,10.322-10.322V97.21V79.228C133.036,73.537,128.404,68.906,122.714,68.906 M73.996,90.508h53.609v4.701
			H73.996V90.508z M78.887,72.906h4.935c1.237-0.026,12.095-0.739,12.095-17.816c0-7.072-3.812-22.406-6.596-33.602
			c-1.256-5.047-2.553-10.265-2.572-11.218c0-7.749,6.305-14.053,14.053-14.053c7.749,0,14.054,6.304,14.054,14.049
			c-0.02,0.962-1.324,6.205-2.588,11.275c-2.783,11.182-6.597,26.496-6.597,33.549c0,17.077,10.856,17.79,12.136,17.816h4.908
			c3.486,0,6.322,2.836,6.322,6.322v7.28H72.564v-7.28C72.564,75.742,75.4,72.906,78.887,72.906 M129.036,142.811
			c0,3.486-2.836,6.322-6.322,6.322H78.887c-3.486,0-6.322-2.836-6.322-6.322V99.21h56.472L129.036,142.811L129.036,142.811z"/>
		<path fill="#F1F2F2" d="M46.112,57.729l1.067,88.855c0,3.08-3.588,5.602-6.668,5.602c-3.08,0-6.668-2.521-6.668-5.602
			l1.068-88.855H46.112z"/>
		<polygon fill="#D1D3D4" points="36.033,59.869 35.951,65.535 44.639,65.535 44.562,59.869 		"/>
		<polygon fill="#F49A7F" points="45.238,142.193 35.785,142.193 35.953,110.189 45.063,110.189 		"/>
		<path fill="#F1F2F2" d="M64.596,44.937c0,4.712,4.623,5.518,6.898,5.518c2.275,0,4.137-1.862,4.137-4.138V30.896
			c0-2.275-1.861-4.137-4.137-4.137c-3.868,0.029-6.898,1.452-6.898,6.441c0,0-0.004-0.112-4.604,0
			c-9.433,0.23-5.8-3.268-9.892-5.521c-4.095-2.253-33.014-2.876-43.711,15.414c-3.066,5.243,0,8.972,4.83,5.981
			c4.832-2.99,11.043-7.765,17.945-4.601c6.021,2.761,5.75,13.255,5.75,13.255h11.198c0,0-0.269-13.14,12.038-12.795L64.596,44.937z
			"/>
		<path fill="#FFFFFF" d="M100.801,14.957L100.801,14.957c-2.578,0-4.688-2.109-4.688-4.687s2.109-4.688,4.688-4.688
			c2.579,0,4.688,2.11,4.688,4.688C105.486,12.848,103.379,14.957,100.801,14.957"/>
		<path fill="#ED572A" d="M100.801,16.958c-3.688,0-6.688-3-6.688-6.687c0-3.688,3-6.688,6.688-6.688c3.688,0,6.688,3,6.688,6.688
			C107.488,13.958,104.488,16.958,100.801,16.958 M100.801,7.583c-1.482,0-2.688,1.206-2.688,2.688c0,1.481,1.205,2.687,2.688,2.687
			c1.481,0,2.688-1.206,2.688-2.687C103.488,8.789,102.282,7.583,100.801,7.583"/>
		<path fill="#ED572A" d="M81.164,151.41c-0.828,0-1.5-0.672-1.5-1.5v-15.908c0-0.828,0.672-1.5,1.5-1.5c0.83,0,1.5,0.672,1.5,1.5
			v15.908C82.664,150.738,81.994,151.41,81.164,151.41"/>
		<path fill="#ED572A" d="M91.098,152.633c-0.83,0-1.5-0.672-1.5-1.5v-22.025c0-0.828,0.67-1.5,1.5-1.5c0.828,0,1.5,0.672,1.5,1.5
			v22.025C92.598,151.961,91.926,152.633,91.098,152.633"/>
		<path fill="#ED572A" d="M91.098,123.736c-0.83,0-1.5-0.672-1.5-1.5v-3.832c0-0.827,0.67-1.5,1.5-1.5c0.828,0,1.5,0.673,1.5,1.5
			v3.832C92.598,123.064,91.926,123.736,91.098,123.736"/>
		<path fill="#ED572A" d="M106.43,139.781c-0.828,0-1.5-0.672-1.5-1.5v-13.057c0-0.828,0.672-1.5,1.5-1.5s1.5,0.672,1.5,1.5v13.057
			C107.93,139.109,107.258,139.781,106.43,139.781"/>
		<path fill="#ED572A" d="M106.43,150.488c-0.828,0-1.5-0.672-1.5-1.5v-4.494c0-0.828,0.672-1.5,1.5-1.5s1.5,0.672,1.5,1.5v4.494
			C107.93,149.816,107.258,150.488,106.43,150.488"/>
		<path fill="#ED572A" d="M120.438,151.41c-0.828,0-1.5-0.672-1.5-1.5v-14.363c0-0.828,0.672-1.5,1.5-1.5s1.5,0.672,1.5,1.5v14.363
			C121.938,150.738,121.266,151.41,120.438,151.41"/>
		<path fill="#F1F2F2" d="M149.854,56.011c-7.861-3.097-13.427-10.76-13.427-19.722c0-8.891,5.48-16.49,13.243-19.635v19.635
			l7.946,4.267l7.944-4.267V16.654c7.763,3.145,13.244,10.744,13.244,19.635c0,8.963-5.566,16.627-13.431,19.723l0.036,0.624
			l4.206,87.814c0,3.081-8.923,7.735-12.001,7.735c-3.08,0-12.002-4.654-12.002-7.735l4.215-87.959L149.854,56.011z"/>
		<path fill="#BCBEC0" d="M151.413,148.337c2.22,1.31,4.797,2.416,6.149,2.416c2.58,0,9.6-4.021,10.127-5.786l-2.207-47.098
			C165.482,97.869,167.689,138.199,151.413,148.337"/>
		<path fill="#ED572A" d="M157.617,154.186c-2.307,0-5.846-1.61-8.176-2.99c-3.866-2.289-4.826-4.56-6.32-6.719l4.175-87.148
			c-6.67-3.831-12.868-11.929-12.868-21.039c0-9.486,5.688-17.92,14.492-21.488c0.616-0.251,1.316-0.178,1.868,0.196
			c0.552,0.371,0.883,0.993,0.883,1.658v18.438l5.946,3.194l5.945-3.194V16.654c0-0.665,0.332-1.287,0.883-1.658
			c0.553-0.373,1.254-0.446,1.869-0.196c8.803,3.568,14.492,12.002,14.492,21.488c0,9.109-5.199,17.206-13.361,21.011l4.171,87.059
			C171.618,149.234,161.223,154.186,157.617,154.186 M147.618,144.434c0.411,1.691,7.452,5.752,9.999,5.752
			c2.546,0,9.588-4.062,9.998-5.752l-4.236-88.307c-0.05-0.862,0.46-1.659,1.266-1.976c7.388-2.909,12.16-9.921,12.16-17.863
			c0-6.81-3.543-12.966-9.24-16.405v16.405c0,0.737-0.405,1.414-1.055,1.762l-7.945,4.268c-0.592,0.318-1.301,0.318-1.894,0
			l-7.946-4.268c-0.647-0.348-1.054-1.025-1.054-1.762V19.883c-5.698,3.439-9.243,9.594-9.243,16.405
			c0,7.942,4.773,14.953,12.16,17.862c0.799,0.315,1.309,1.105,1.264,1.963l-0.023,0.479L147.618,144.434z"/>
		<path fill="#ED572A" d="M157.427,143.238L157.427,143.238c-2.577,0-4.687-2.108-4.687-4.688c0-2.578,2.107-4.688,4.687-4.688
			s4.688,2.109,4.688,4.688S160.005,143.238,157.427,143.238"/>
		<path fill="#ED572A" d="M71.479,24.759c-6.201,0.046-8.171,3.438-8.706,6.393c-0.749,0.005-1.696,0.021-2.831,0.05
			c-4.756,0.112-5.123-0.616-5.664-1.724c-0.503-1.028-1.19-2.437-3.215-3.551c-5.409-2.974-35.317-2.794-46.402,16.157
			c-2.403,4.109-1.585,7.207-0.019,8.736c1.42,1.385,4.17,2.099,7.63-0.045c0.478-0.295,0.967-0.607,1.471-0.929
			c4.382-2.792,9.349-5.956,14.587-3.554c3.133,1.435,4.217,6.176,4.501,9.34c-0.596,0.46-0.987,1.173-0.987,1.982v0.396
			c0,0.834,0.412,1.569,1.039,2.026l-1.039,86.548c0,4.351,4.576,7.601,8.668,7.601c4.092,0,8.668-3.25,8.668-7.625l-1.037-86.198
			c0.963-0.352,1.656-1.269,1.656-2.352v-0.397c0-1.005-0.598-1.867-1.453-2.269c0.32-1.811,1.072-4.298,2.857-6.07
			c1.649-1.637,3.975-2.415,6.947-2.342l4.68,0.003c1.01,4.031,5.096,5.519,8.664,5.519c3.385,0,6.137-2.753,6.137-6.137V30.896
			C77.631,27.512,74.879,24.759,71.479,24.759 M64.139,35.148c-0.243-0.05-0.489-0.161-0.713-0.324
			C63.637,34.975,63.879,35.088,64.139,35.148 M36.295,108.189l0.584-47.667h7.267l0.583,47.667H36.295z M43.229,140.193h-5.434
			l0.147-28.004h5.132L43.229,140.193z M40.512,150.186c-2.039,0-4.668-1.746-4.668-3.578l0.028-2.412h9.279l0.028,2.391
			C45.18,148.438,42.549,150.186,40.512,150.186 M73.631,46.318c0,1.178-0.959,2.137-2.137,2.137c-4.262,0-4.898-2.204-4.898-3.518
			c0-1.104-0.895-1.999-1.998-2l-6.391-0.003c-4.066-0.118-7.365,1.065-9.822,3.502c-2.695,2.677-3.686,6.248-4.053,8.665h-7.541
			c-0.355-3.688-1.713-10.116-6.794-12.446c-7.222-3.312-13.685,0.81-18.403,3.818c-0.488,0.312-0.965,0.615-1.428,0.902
			c-1.336,0.826-2.385,0.917-2.729,0.582c-0.416-0.408-0.482-1.871,0.678-3.854c10.024-17.14,37.847-16.419,41.021-14.672
			c0.914,0.504,1.168,1.021,1.551,1.804c1.343,2.748,3.166,4.116,9.355,3.965c3.045-0.074,3.955-0.046,4.188-0.032
			c0.134,0.023,0.272,0.037,0.415,0.032c1.085-0.026,1.951-0.913,1.951-1.999c0-3.212,1.332-4.415,4.898-4.442
			c1.178,0,2.137,0.959,2.137,2.137V46.318z"/>
	</g>
</g>
</svg>
