<?xml version="1.0" encoding="utf-8"?>
<!-- Generator: Adobe Illustrator 20.0.0, SVG Export Plug-In . SVG Version: 6.00 Build 0)  -->
<svg version="1.1" id="Layer_1" xmlns="http://www.w3.org/2000/svg" xmlns:xlink="http://www.w3.org/1999/xlink" x="0px" y="0px"
	 viewBox="0 0 630 308.7" style="enable-background:new 0 0 630 308.7;" xml:space="preserve">
<style type="text/css">
	.st0{fill:#FBDB42;}
	.st1{fill:#FF931E;}
	.st2{fill:#153454;}
</style>
<g>
	<path class="st0" d="M269.5,308.7h-74.1c-1.7,0-3.4-1.4-3.4-3v-73h-50v73c0,1.7-0.8,3-2.5,3H64.4c-1.7,0-3.4-1.4-3.4-3v-151H2.9
		c-1.3,0-2.4-0.9-2.9-2.1c-0.4-1.2-0.1-2.6,0.8-3.4l69.5-60.9C70.3,88,70,87.6,70,87.3v-70c0-1.7,1.9-3.6,3.6-3.6h41.6
		c1.7,0,2.8,2,2.8,3.6v24.2l48.4-40.2c1.2-1,2.9-0.9,4,0.1L338.8,149c1,0.8,1.3,2.3,0.9,3.5c-0.4,1.2-1.6,2.1-2.8,2.1H273v151
		C273,307.3,271.2,308.7,269.5,308.7z"/>
</g>
<g>
	<path class="st1" d="M376.7,154.5c0.1,1.1,0.8,2,2.5,2c1.3,0,2.5-0.6,2.5-1.9c0-0.3,0-1-2.1-1.7l-2.4-0.8c-4.6-1.3-5.4-4.2-5.4-6.1
		c0-3.8,3.1-6.3,7.2-6.3c4.1,0,7.1,2.4,7.1,6.5h-5c0-1.1-0.6-1.9-2.2-1.9c-1.4,0-2.2,0.7-2.2,1.6c0,0.4,0.1,1.1,1.9,1.7l2.4,0.8
		c5.4,1.7,5.7,4.8,5.7,6.3c0,4.6-4.2,6.3-7.6,6.3c-4.6,0-7.6-2.5-7.6-6.4H376.7z"/>
	<path class="st1" d="M399.1,146.6h4.8v14h-4.8v-2.2c-0.5,1.8-2.7,2.5-3.9,2.5c-3.8,0-5.6-2.5-5.6-6.9v-7.3h4.8v7.2
		c0,1.9,1.3,2.4,2.3,2.4c1.1,0,2.5-0.5,2.5-2.3V146.6z"/>
	<path class="st1" d="M412.3,167.5h-4.8v-20.9h4.5v2c0.8-1.6,2.6-2.4,4.1-2.4c3.5,0,6.8,2.8,6.8,7.3c0,4.5-3.4,7.3-6.8,7.3
		c-1.7,0-3-0.6-3.9-1.6V167.5z M415.2,150.6c-1.6,0-2.9,1.4-2.9,3c0,1.6,1.3,2.8,2.9,2.8s2.9-1.3,2.9-2.9S416.8,150.6,415.2,150.6z"
		/>
	<path class="st1" d="M430.3,167.5h-4.8v-20.9h4.5v2c0.8-1.6,2.6-2.4,4.1-2.4c3.4,0,6.8,2.8,6.8,7.3c0,4.5-3.4,7.3-6.8,7.3
		c-1.7,0-3-0.6-3.9-1.6V167.5z M433.2,150.6c-1.6,0-2.9,1.4-2.9,3c0,1.6,1.3,2.8,2.9,2.8s2.9-1.3,2.9-2.9S434.8,150.6,433.2,150.6z"
		/>
	<path class="st1" d="M443.2,153.6c0-4.4,3.5-7.3,7.4-7.3c4,0,7.5,2.9,7.5,7.3c0,4.4-3.5,7.3-7.5,7.3
		C446.7,160.9,443.2,158,443.2,153.6z M450.6,156.5c1.6,0,2.9-1.3,2.9-2.9s-1.3-2.9-2.9-2.9s-2.9,1.3-2.9,2.9S449,156.5,450.6,156.5
		z"/>
	<path class="st1" d="M465.5,160.6h-4.8v-14h4.5v3.5c0.7-2.7,2.6-3.8,4.4-3.8c0.6,0,1.3,0,2.1,0.4l-1.2,4.5c-1-0.4-1.7-0.4-2.2-0.4
		c-1.8,0-2.9,1-2.9,5.2V160.6z"/>
	<path class="st1" d="M480.5,146.6h2.9v3.5h-2.9v10.5h-4.7v-10.5h-2.5v-3.5h2.5v-5h4.7V146.6z"/>
	<path class="st1" d="M502.1,139.7c5.9,0,10.6,4.7,10.6,10.6c0,5.8-4.7,10.6-10.6,10.6c-5.8,0-10.5-4.8-10.5-10.6
		C491.6,144.4,496.3,139.7,502.1,139.7z M502.1,155.8c3.1,0,5.5-2.5,5.5-5.5s-2.5-5.6-5.5-5.6c-3.1,0-5.5,2.5-5.5,5.6
		S499.1,155.8,502.1,155.8z"/>
	<path class="st1" d="M525,146.6h4.8v14H525v-2.2c-0.5,1.8-2.7,2.5-3.9,2.5c-3.7,0-5.6-2.5-5.6-6.9v-7.3h4.8v7.2
		c0,1.9,1.3,2.4,2.3,2.4c1.1,0,2.5-0.5,2.5-2.3V146.6z"/>
	<path class="st1" d="M538.1,160.6h-4.8v-14h4.5v3.5c0.7-2.7,2.6-3.8,4.4-3.8c0.6,0,1.3,0,2.1,0.4l-1.2,4.5c-1-0.4-1.7-0.4-2.2-0.4
		c-1.8,0-2.9,1-2.9,5.2V160.6z"/>
	<path class="st1" d="M568.4,151.7l3.6-11.8h5.5l-7,20.7h-3.9l-2.6-10l-2.5,10h-3.9l-7-20.7h5.4l3.6,11.8l2.3-8.8h4.2L568.4,151.7z"
		/>
	<path class="st1" d="M575.8,153.6c0-4.4,3.5-7.3,7.4-7.3c4,0,7.5,2.9,7.5,7.3c0,4.4-3.5,7.3-7.5,7.3
		C579.3,160.9,575.8,158,575.8,153.6z M583.2,156.5c1.6,0,2.9-1.3,2.9-2.9s-1.3-2.9-2.9-2.9s-2.9,1.3-2.9,2.9
		S581.7,156.5,583.2,156.5z"/>
	<path class="st1" d="M598.3,160.6h-4.8v-14h4.5v3.5c0.7-2.7,2.6-3.8,4.4-3.8c0.6,0,1.3,0,2.1,0.4l-1.2,4.5c-1-0.4-1.7-0.4-2.2-0.4
		c-1.8,0-2.9,1-2.9,5.2V160.6z"/>
	<path class="st1" d="M611.2,155.6v5h-4.8v-21.3h4.8V150l2.7-3.4h5.8l-5.2,6.2l6.3,7.8h-5.7L611.2,155.6z"/>
	<path class="st1" d="M625.1,155.4c1.6,0,2.9,1.1,2.9,2.7c0,1.6-1.3,2.8-2.9,2.8c-1.5,0-2.8-1.2-2.8-2.8
		C622.3,156.5,623.6,155.4,625.1,155.4z M622.7,139.9h5l-0.5,13.7h-3.9L622.7,139.9z"/>
</g>
<g>
	<g>
		<path class="st2" d="M79.1,129.8c-0.7-0.7-1.1-1.4-1.1-2c0-0.1,0.1-0.4,0.2-0.8c0.3-0.7,0.9-1,1.8-1.2l2.2-0.2
			c4.7,1,9.6,3.6,14.6,7.8c1.3,1.1,2.4,2.3,3.2,3.5c2.7,3.9,4,7.6,4,11c0,1.9-0.4,3.6-1.1,5.1c-0.3,0.6-0.5,1.2-0.8,1.9
			c-0.2,0.7-0.5,1.3-0.8,1.9c-0.6,1.3-1.3,2.5-2.2,3.6c-0.9,1.1-1.7,2.2-2.6,3.2c-0.8,1.1-1.7,2.1-2.6,3.2c-2.1,2.5-4,4.3-5.7,5.5
			c-0.6,0.7-1.1,1.3-1.8,2c-0.6,0.7-1.3,1-1.9,1c-0.4,0-1-0.2-1.9-0.5c-0.9-0.3-1.5-0.8-1.8-1.5c-0.2-2.3-0.2-4.8-0.2-7.5
			c0-1.4,0-3.1,0.1-5.1c0.1-2,0.1-4.3,0.2-7c0.1-2.7,0.2-5.1,0.2-7c0.1-2,0.1-3.7,0.1-5.1c0-1.8,0-3.5-0.1-5.1
			c-0.1-1.7-0.2-3.2-0.3-4.7L79.1,129.8z M87.7,164.2c6.2-6.2,9.4-12.2,9.4-17.8c0-0.4,0-0.8,0-1.2c0-0.4-0.1-0.8-0.1-1.2
			c-0.5-3.5-3.5-6.5-8.9-9.2c-0.1,3.1-0.2,6.3-0.3,9.6c-0.1,3.2-0.1,6.6-0.1,10.1c0,1.6,0,3.2,0,4.8C87.6,161,87.6,162.6,87.7,164.2
			z"/>
		<path class="st2" d="M137.6,153.4c-0.8,1.9-1.8,3.7-3,5.3c-1.2,1.6-2.4,3-3.8,4.2c-1.4,1.2-2.8,2.1-4.4,2.8c-1.6,0.7-3.2,1-4.8,1
			c-1.2,0-2.5-0.3-3.9-0.9c-1.5-0.6-2.8-1.5-4.1-2.7c-1.3-1.2-2.4-2.7-3.3-4.4c-0.9-1.7-1.4-3.8-1.4-6.1c0-1.8,0.3-3.9,1-6.3
			c0.7-2.4,1.6-4.7,2.7-6.8c1.1-2.2,2.4-4,3.9-5.5s3-2.2,4.6-2.2c0.4,0,0.7,0.1,1,0.2c0.2,0.1,0.5,0.2,0.8,0.4
			c0.3,0.2,0.7,0.4,1.1,0.7c0.4,0.3,1,0.6,1.8,0.9c0.5,0.2,1.1,0.5,1.7,0.7c0.6,0.2,1.4,0.5,2.3,0.8c1.7,0.6,3,1.4,4.1,2.7
			c1.1,1.2,2,2.5,2.7,3.9c0.7,1.4,1.1,2.8,1.4,4.1c0.2,1.4,0.4,2.4,0.4,3.3C138.5,150.9,138.2,152.3,137.6,153.4z M131,148.2
			c-0.3-2.2-0.7-4-1.4-5.3c-0.6-1.4-1.5-2-2.6-2c-0.3,0-0.8,0.2-1.3,0.6c-0.5,0.4-1.1,0.9-1.6,1.4c-0.5,0.5-1,1-1.5,1.4
			c-0.5,0.4-0.8,0.6-1,0.6c-0.4,0-1-0.2-1.6-0.7c-0.6-0.4-1-0.7-1.2-0.7c-0.6,0-1,0.3-1.5,0.9c-0.4,0.6-0.8,1.3-1,2.1
			c-0.3,0.8-0.5,1.7-0.6,2.6c-0.1,0.9-0.2,1.7-0.2,2.4c0,1.4,0.2,2.7,0.7,3.9c0.4,1.2,1,2.2,1.6,3c0.6,0.8,1.2,1.5,1.9,1.9
			c0.6,0.4,1.1,0.7,1.5,0.7c1,0,2.2-0.4,3.3-1.1s2.2-1.7,3.2-2.9c1-1.2,1.8-2.4,2.4-3.8c0.6-1.4,1-2.7,1-4V148.2z"/>
		<path class="st2" d="M151.5,159.5c0.8-0.8,1.4-1.8,1.9-3c0.5-1.2,0.9-2.4,1.4-3.5l0.2-0.5c0.3-0.9,0.8-2,1.5-3.3
			c0.7-1.3,1.4-2.5,2.3-3.7c0.9-1.2,1.9-2.2,2.9-3c1-0.8,2.1-1.2,3.2-1.2c0.9,0.3,1.6,0.7,2.1,1.3c0.5,0.6,0.8,1.3,1.1,2
			c0.2,0.7,0.5,1.5,0.7,2.3c0.2,0.8,0.5,1.6,0.8,2.3c0.7,1.6,1.3,3.3,1.6,5.1c0.4,1.8,0.7,3.7,0.9,5.6c0.2,1.9,0.5,3.7,0.9,5.6
			c0.3,1.8,0.8,3.5,1.5,5.1c-0.1,0.9-0.6,1.5-1.5,1.9c-0.9,0.4-1.6,0.6-2.3,0.6c-1,0-1.8-0.4-2.3-1.1c-0.6-0.7-1-1.7-1.3-2.7
			c-0.3-1.1-0.5-2.2-0.7-3.4c-0.1-1.2-0.3-2.1-0.5-2.9c-0.3-0.9-0.5-2-0.7-3.2c-0.2-1.2-0.4-2.4-0.6-3.6c-0.2-1.2-0.5-2.3-0.8-3.4
			c-0.3-1-0.7-1.9-1.3-2.6c-0.9,1.5-1.7,2.9-2.3,4.2c-0.6,1.3-1.1,2.5-1.6,3.7c-0.5,1.2-0.9,2.3-1.4,3.5c-0.4,1.1-1,2.3-1.7,3.4
			c-0.9,1.6-1.7,2.8-2.4,3.7c-0.7,0.9-1.4,1.5-2,1.9c-0.6,0.4-1.2,0.7-1.7,0.7c-0.6,0.1-1.1,0.1-1.6,0.1c-0.6,0-1.2-0.3-2-0.8
			c-0.8-0.6-1.2-1.2-1.2-2c0-3.5,0-6.7,0-9.7c0-3,0-6.1,0-9.5c0-0.9,0-1.9-0.1-2.9c-0.1-1-0.1-1.9-0.1-2.9c0-0.7,0.1-1.3,0.4-1.9
			c0.2-0.6,0.7-1.1,1.3-1.4c0.3,0,0.7,0,1,0c0.3,0,0.6,0,0.9,0c0.7,0,1.3,0.2,1.7,0.6c0.4,0.4,0.7,0.9,0.9,1.5
			c0.2,0.6,0.3,1.2,0.4,1.9c0.1,0.7,0.1,1.2,0.1,1.7c0,0.6,0.1,1.2,0.2,1.7c0.1,0.6,0.2,1.1,0.2,1.7c0,2,0,3.8-0.1,5.2
			c-0.1,1.4-0.1,2.8-0.1,4.1V159.5z"/>
		<path class="st2" d="M207.4,169.8c0.2,0.4,0.3,0.9,0.5,1.4s0.2,0.9,0.2,1.4s-0.1,0.8-0.4,1.1c-0.2,0.3-0.6,0.5-0.9,0.7
			c-0.4,0.2-0.7,0.3-1.1,0.4c-0.4,0.1-0.7,0.1-1.1,0.1c-1.1,0-2-0.6-2.7-1.9c-0.7-1.2-1.3-2.8-1.7-4.6c-0.4-1.9-0.8-3.8-1.1-5.9
			c-0.3-2.1-0.6-3.9-0.9-5.6c-0.2,1.2-0.7,2.6-1.6,4.4c-0.9,1.8-2.1,3.5-3.4,5.1c-1.4,1.6-2.9,3-4.6,4.2c-1.7,1.2-3.3,1.7-5,1.7
			c-1.3,0-2.4-0.3-3.3-0.8c-0.9-0.5-1.5-1.2-1.9-1.9c-0.4-0.8-0.7-1.6-0.9-2.6c-0.2-1-0.2-1.9-0.2-2.7c0-1.8,0.5-4.1,1.4-6.8
			c0.9-2.7,2.2-5.3,3.7-7.8c1.6-2.5,3.4-4.7,5.5-6.5c2.1-1.8,4.3-2.7,6.6-2.7c0.5,0,1.1,0.1,1.7,0.2c0.6,0.2,1.3,0.4,1.9,0.6
			c0.7,0.2,1.3,0.6,1.9,0.9c0.6,0.4,1.1,0.7,1.6,1c0.9,0.8,1.6,1.8,1.9,3.2c0.3,1.3,0.6,2.7,0.7,4.1c0.4,2.8,0.7,5.3,0.9,7.5
			c0.2,2.2,0.6,4.6,1.2,7.1l0.5,3.1L207.4,169.8z M184.1,165.5c0,0.1,0,0.1,0,0.1c0,0,0,0.1,0,0.1c0.7-0.1,1.5-0.5,2.5-1.5
			c0.9-0.9,1.9-2,2.8-3.3c0.9-1.3,1.8-2.6,2.6-4c0.8-1.4,1.4-2.7,1.8-3.8c0.2-0.5,0.5-1,0.8-1.7c0.3-0.6,0.6-1.2,0.9-1.9
			c0.3-0.6,0.6-1.2,0.7-1.8c0.2-0.6,0.3-1,0.3-1.4c-0.3-0.1-0.5-0.2-0.7-0.3c-0.2-0.1-0.5-0.2-0.7-0.2c-1.2,0-2.3,0.5-3.2,1.4
			c-0.9,0.9-1.8,2-2.4,3.2c-0.7,1.2-1.3,2.3-1.7,3.4c-0.4,1.1-0.7,1.8-0.9,2c-0.8,1.4-1.4,2.9-1.9,4.5c-0.5,1.6-0.8,3.2-0.8,4.6
			V165.5z"/>
		<path class="st2" d="M218.7,118.6c0-0.7,0.1-1.4,0.2-2.2c0.4-0.2,0.8-0.4,1.1-0.5c0.3-0.1,0.6-0.2,1.1-0.2c0.9,0,1.7,0.2,2.3,0.5
			c0.6,0.3,1,0.7,1.3,1.2c0.3,0.5,0.5,1.1,0.6,1.7c0.1,0.6,0.2,1.3,0.2,1.9c0,1.2,0,2.2,0.1,3c0.1,0.9,0.1,1.7,0.1,2.5
			c0,0.9,0,1.8,0,2.6c0,0.9,0,1.7,0,2.6c0,0.6,0,1.2,0,1.9c0,0.7,0,1.4,0,2.1c0,0.3,0,0.6,0.1,0.9c0.1,0.3,0.3,0.4,0.7,0.4
			c1.4,0,2.7-0.2,3.8-0.7c1.1-0.5,2.3-0.7,3.8-0.7c0.8,0,1.3,0.3,1.6,0.9c0.3,0.6,0.4,1.2,0.4,1.8c0,0.7-0.2,1.3-0.5,1.7
			c-0.3,0.4-0.7,0.7-1.2,1c-0.5,0.2-1,0.4-1.6,0.5c-0.6,0.1-1.1,0.3-1.7,0.5c-0.5,0.2-1.1,0.4-1.8,0.6c-0.7,0.2-1.3,0.4-1.9,0.7
			c-0.6,0.3-1.1,0.6-1.6,1.1c-0.4,0.4-0.7,1-0.7,1.7c0,0.4,0,0.7,0,1.1c0,0.3,0,0.7,0,1c0,0.3,0,0.7,0,1c0,0.4,0,0.7,0,1.1
			c0,2.5,0.2,5.1,0.5,7.8c0.4,2.7,0.8,5.3,1.2,7.8c0.2,0.8,0.4,1.5,0.6,2.3c0.2,0.8,0.3,1.5,0.3,2.2c0,0.9-0.2,1.6-0.7,2.1
			c-0.5,0.4-1.1,0.7-1.7,0.9c-0.6,0.1-0.9,0.2-1,0.2c-0.8,0-1.5-0.3-2.1-0.8c-0.6-0.5-1.2-1.2-1.6-1.9c-0.3-0.8-0.5-1.8-0.7-3.2
			c-0.2-1.3-0.3-2.5-0.4-3.6c-0.2-2.7-0.3-5.4-0.3-8.1c-0.1-2.7-0.1-5.4-0.2-8.1c0-0.2,0-0.4,0-0.6c0-0.2-0.1-0.4-0.2-0.6
			c-1,0.2-1.8,0.4-2.5,0.7c-0.7,0.3-1.4,0.5-2.3,0.5c-1.1,0-2-0.4-2.8-1.1c-0.8-0.7-1.4-1.3-1.7-1.7c0-0.6,0.1-1.4,0.4-2.3
			c0.7-0.3,1.4-0.5,2-0.6c0.6-0.1,1.2-0.2,1.8-0.3c0.6-0.1,1.2-0.2,1.8-0.4c0.6-0.2,1.3-0.4,2-0.8c0.9,0,1.4-0.3,1.5-1
			c0.1-0.7,0.2-1.3,0.2-1.8c0-1,0-1.8,0-2.5c0-0.7,0-1.7,0-2.9c0-0.8,0-1.7,0-2.5c0-0.9,0-1.7,0-2.5V118.6z"/>
		<path class="st2" d="M237.7,157.5c0-2,0.3-4.1,0.8-6.2c0.5-2.1,1.3-3.9,2.4-5.6c1-1.7,2.3-3,3.9-4c1.5-1,3.3-1.5,5.4-1.5
			c1.4,0,2.7,0.2,3.8,0.7s2,1,2.7,1.7c0.7,0.7,1.3,1.5,1.6,2.4c0.4,0.9,0.5,1.9,0.5,2.9c0,1.3-0.2,2.5-0.7,3.7
			c-0.5,1.2-1.1,2.3-2,3.2c-0.9,0.9-2,1.7-3.3,2.3c-1.3,0.6-2.8,0.9-4.4,1c-0.7,0.1-1.4,0-1.9-0.1c-0.6-0.1-1.2-0.3-1.9-0.5
			c-0.1,0.3-0.1,0.5-0.1,0.7c0,0.2,0,0.3,0,0.5c0.1,2,0.4,3.6,1,4.8c0.6,1.2,1.3,2,2,2.6c0.7,0.6,1.4,1,2.1,1.1
			c0.7,0.2,1.1,0.2,1.3,0.2c1.7,0,3.1-0.4,4.3-1.2c1.1-0.8,2.4-1.6,3.8-2.6c0.3,0.1,0.6,0.2,0.9,0.4c0.3,0.1,0.6,0.4,0.9,0.8
			c0.1,0.3,0.1,0.6,0.2,0.8c0.1,0.2,0.1,0.5,0.1,0.9c-0.1,0.8-0.3,1.4-0.6,1.9c-0.4,0.5-0.8,1-1.2,1.4c-1.4,1.2-2.8,2-4,2.4
			c-1.2,0.4-2.9,0.5-4.8,0.5c-0.9,0-2-0.2-3.3-0.6c-1.3-0.4-2.4-0.8-3.3-1.2c-1.3-1-2.4-2-3.1-3c-0.7-1-1.3-2-1.7-3.2
			c-0.4-1.1-0.7-2.3-0.8-3.4C237.8,160.1,237.7,158.9,237.7,157.5z M244.9,153.1c0.2,0.1,0.6,0.1,1,0.1c0.5,0,0.8,0,1.1,0
			c1.9,0,3.3-0.5,4.4-1.4c1-0.9,1.5-2.1,1.5-3.4c0-0.8-0.2-1.5-0.7-2.2c-0.4-0.7-1.1-1-1.8-1c-0.6,0-1.1,0.1-1.6,0.2
			c-0.5,0.1-0.9,0.4-1.2,0.8c-0.2,0.3-0.5,0.6-0.7,0.8c-0.3,0.3-0.5,0.7-0.8,1.2c-0.2,0.5-0.5,1.1-0.7,1.9
			C245.1,150.9,245,151.8,244.9,153.1z"/>
	</g>
</g>
<text transform="matrix(1 0 0 1 607.5171 3400.8682)"><tspan x="0" y="0" class="st1" style="font-family:'SofiaProBlack'; font-size:30px;">Support Our </tspan><tspan x="181.1" y="0" class="st1" style="font-family:'SofiaProBlack'; font-size:30px; letter-spacing:-2;">W</tspan><tspan x="205.2" y="0" class="st1" style="font-family:'SofiaProBlack'; font-size:30px;">ork!</tspan></text>
<g>
	<text transform="matrix(1 0 0 1 297.8721 3410.2148)" class="st2" style="font-family:'Verveine-Regular'; font-size:82.8998px;">DOnate</text>
</g>
<text transform="matrix(1 0 0 1 607.5171 3400.8682)"><tspan x="0" y="0" class="st1" style="font-family:'SofiaProBlack'; font-size:30px;">Support Our </tspan><tspan x="181.1" y="0" class="st1" style="font-family:'SofiaProBlack'; font-size:30px; letter-spacing:-2;">W</tspan><tspan x="205.2" y="0" class="st1" style="font-family:'SofiaProBlack'; font-size:30px;">ork!</tspan></text>
<g>
	<text transform="matrix(1 0 0 1 297.8721 3410.2148)" class="st2" style="font-family:'Verveine-Regular'; font-size:82.8998px;">DOnate</text>
</g>
</svg>
