<?xml version="1.0" encoding="utf-8"?>
<!-- Generator: Adobe Illustrator 15.1.0, SVG Export Plug-In . SVG Version: 6.00 Build 0)  -->
<!DOCTYPE svg PUBLIC "-//W3C//DTD SVG 1.1//EN" "http://www.w3.org/Graphics/SVG/1.1/DTD/svg11.dtd">
<svg version="1.1" id="Layer_1" xmlns="http://www.w3.org/2000/svg" xmlns:xlink="http://www.w3.org/1999/xlink" x="0px" y="0px"
	 width="200px" height="220px" viewBox="0 -20 200 220" enable-background="new 0 -20 200 220" xml:space="preserve">
<g>
	<polygon fill="#CAE5C1" points="164.979,107.384 88.773,71.043 46.29,101.09 46.29,115.021 46.29,165.794 164.979,165.794 
		164.979,114.662 	"/>
	<g>
		<path fill="#F1F2F2" d="M197,165.977H3c0,0,49.891,14.699,97,14.699C147.109,180.676,197,165.977,197,165.977"/>
		<path fill="#68B54D" d="M11.993,167.959H3c-1.105,0-2-0.896-2-2s0.895-2,2-2h8.993c1.104,0,2,0.896,2,2
			S13.098,167.959,11.993,167.959"/>
		<path fill="#68B54D" d="M22.216,167.959h-3.515c-1.104,0-2-0.896-2-2s0.896-2,2-2h3.515c1.104,0,2,0.896,2,2
			S23.32,167.959,22.216,167.959"/>
		<path fill="#68B54D" d="M182.082,167.959H27.93c-1.105,0-2-0.896-2-2s0.895-2,2-2h154.152c1.104,0,2,0.896,2,2
			S183.186,167.959,182.082,167.959"/>
		<path fill="#68B54D" d="M197,167.959h-9.378c-1.104,0-2-0.896-2-2s0.896-2,2-2H197c1.104,0,2,0.896,2,2
			S198.104,167.959,197,167.959"/>
		<path fill="#68B54D" d="M180.993,112.811l-91.36-43.573c-0.653-0.31-1.424-0.245-2.014,0.173l-62.266,44.038
			c-0.9,0.638-1.115,1.885-0.479,2.787c0.391,0.552,1.008,0.846,1.636,0.846c0.399,0,0.802-0.119,1.153-0.367l16.627-11.761v60.858
			c0,1.104,0.896,2,2,2h118.688c1.104,0,2-0.896,2-2v-55.252l12.291,5.86c0.998,0.472,2.188,0.056,2.668-0.942
			C182.412,114.48,181.99,113.286,180.993,112.811 M162.979,163.812H48.291v-61.688l40.68-28.771l74.007,35.299V163.812
			L162.979,163.812z"/>
		<rect x="63.883" y="119.05" fill="#E6E7E8" width="26.926" height="46.763"/>
		<path fill="#68B54D" d="M90.809,167.812H63.883c-1.104,0-2-0.896-2-2V119.05c0-1.104,0.896-2,2-2h26.926c1.104,0,2,0.896,2,2
			v46.763C92.809,166.917,91.913,167.812,90.809,167.812 M65.883,163.812h22.926V121.05H65.883V163.812z"/>
		<rect x="106.184" y="118.834" fill="#E6E7E8" width="44.51" height="25.238"/>
		<path fill="#68B54D" d="M150.691,146.072h-44.508c-1.104,0-2-0.896-2-2v-25.238c0-1.104,0.896-2,2-2h44.508c1.104,0,2,0.896,2,2
			v25.238C152.691,145.177,151.796,146.072,150.691,146.072 M108.184,142.072h40.51v-21.238h-40.51V142.072z"/>
		<path fill="#68B54D" d="M68.878,73.443h-16.89c-1.104,0-2,0.896-2,2V97.06c0,1.104,0.896,2,2,2s2-0.896,2-2v-1.414l13.26-9.378
			c0.363,0.511,0.956,0.847,1.63,0.847c1.104,0,2-0.896,2-2v-9.671C70.878,74.339,69.982,73.443,68.878,73.443"/>
		<path fill="#B3DAA6" d="M140.777,146.124c-0.404,0.069-0.795,0.254-1.116,0.556l-12.183,11.353l-0.002-0.005
			c-0.828-0.826-2.16-0.854-3.021-0.061l-6.312,5.835h24.659l6.744-7.237c0.306-0.328,0.488-0.727,0.556-1.137
			c0.008,0.006,0.019,0.012,0.026,0.021c3.951,2.635,8.323,4.354,12.865,5.151v-12.916C162.994,147.684,152.898,147,140.777,146.124
			"/>
		<path fill="#68B54D" d="M76.582,144.129c0,1.873-1.518,3.391-3.391,3.391s-3.391-1.518-3.391-3.391s1.518-3.393,3.391-3.393
			S76.582,142.256,76.582,144.129"/>
		<path fill="#FFFFFF" d="M168.246,151.584c-17.076,3.414-33.688-7.663-37.1-24.741c-3.414-17.077,7.66-33.688,24.733-37.102
			c17.076-3.413,33.688,7.664,37.103,24.741C196.396,131.559,185.322,148.17,168.246,151.584"/>
		<path fill="#68B54D" d="M162.057,154.199c-15.652,0-29.688-11.042-32.871-26.965c-1.756-8.783,0.015-17.726,4.981-25.178
			c4.968-7.452,12.541-12.521,21.324-14.278c8.778-1.756,17.723,0.015,25.174,4.982c7.452,4.97,12.521,12.543,14.278,21.327
			c3.625,18.133-8.176,35.83-26.305,39.455h-0.002C166.43,153.986,164.227,154.199,162.057,154.199 M168.246,151.584h0.01H168.246z
			 M162.124,91.12c-1.942,0-3.899,0.192-5.849,0.582c-7.735,1.546-14.405,6.012-18.78,12.575
			c-4.376,6.562-5.935,14.438-4.388,22.174c3.19,15.968,18.778,26.361,34.746,23.172c15.967-3.191,26.358-18.781,23.166-34.75
			c-1.545-7.734-6.013-14.405-12.574-18.782C173.537,92.817,167.895,91.12,162.124,91.12"/>
		<path fill="#68B54D" d="M162.891,145.211c-3.971,0-7.942-0.958-11.578-2.875c-4.317-2.277-7.838-5.761-10.182-10.074
			c-0.527-0.971-0.167-2.185,0.805-2.712c0.969-0.526,2.185-0.167,2.711,0.804c1.965,3.616,4.914,6.537,8.531,8.445
			c6.168,3.252,13.498,3.212,19.607-0.107c4.861-2.637,8.408-7.021,9.984-12.346c1.576-5.322,0.989-10.932-1.649-15.794
			c-0.526-0.971-0.167-2.185,0.805-2.712c0.97-0.525,2.185-0.168,2.712,0.805c3.148,5.801,3.85,12.49,1.969,18.838
			c-1.881,6.35-6.109,11.578-11.91,14.728C171.008,144.209,166.951,145.211,162.891,145.211"/>
		<path fill="#E6E7E8" d="M141.189,148.343l-17.715,19.013c-1.093,1.09-9.193-7.014-8.104-8.104l19.012-17.715L141.189,148.343z"/>
		<path fill="#68B54D" d="M123.229,169.467c-1.465,0-3.385-1.279-6.037-3.932c-3.83-3.831-4.799-6.133-3.233-7.698l19.062-17.764
			c0.789-0.734,2.018-0.714,2.777,0.049l6.807,6.808c0.764,0.762,0.783,1.988,0.049,2.776l-17.715,19.012
			C124.441,169.215,123.88,169.467,123.229,169.467 M117.592,159.916c1.008,1.504,3.717,4.212,5.219,5.219l15.602-16.742
			l-4.076-4.076L117.592,159.916z"/>
		<path fill="#91C97D" d="M129.896,163.555l-24.836,26.879c-2.949,2.948-8.796,1.928-11.747-1.021
			c-2.949-2.95-3.971-8.796-1.021-11.745l26.878-24.836L129.896,163.555z"/>
		<path fill="#68B54D" d="M131.311,162.141l-10.725-10.724c-0.759-0.759-1.982-0.783-2.771-0.056l-26.936,24.891
			c-3.816,3.816-2.584,10.969,1.021,14.574c1.779,1.779,4.352,2.98,7.056,3.295c0.446,0.052,0.884,0.077,1.315,0.077
			c2.467,0,4.686-0.834,6.256-2.407l24.836-26.879C132.093,164.123,132.068,162.898,131.311,162.141 M94.729,187.998
			c-2.189-2.189-3.109-6.829-1.078-8.862l3.041-2.81l9.71,9.71l-2.756,2.983C101.557,191.107,96.919,190.188,94.729,187.998
			 M109.118,183.098l-9.487-9.488l19.486-18.004l8.005,8.004L109.118,183.098z"/>
	</g>
</g>
</svg>
