<?xml version="1.0" encoding="utf-8"?>
<!-- Generator: Adobe Illustrator 15.1.0, SVG Export Plug-In . SVG Version: 6.00 Build 0)  -->
<!DOCTYPE svg PUBLIC "-//W3C//DTD SVG 1.1//EN" "http://www.w3.org/Graphics/SVG/1.1/DTD/svg11.dtd">
<svg version="1.1" id="Layer_1" xmlns="http://www.w3.org/2000/svg" xmlns:xlink="http://www.w3.org/1999/xlink" x="0px" y="0px"
	 width="200px" height="220px" viewBox="0 -20 200 220" enable-background="new 0 -20 200 220" xml:space="preserve">
<g>
	<g>
		<path fill="#FCE1BF" d="M63.876,165.975v-65.177c0-13.859,11.34-25.198,25.198-25.198h6.187c13.86,0,25.198,11.339,25.198,25.198
			v65.177H63.876z"/>
		<path fill="#F7A848" d="M120.459,167.975H63.876c-1.104,0-2-0.896-2-2v-65.177c0-14.997,12.201-27.198,27.198-27.198h6.187
			c14.999,0,27.198,12.201,27.198,27.198v65.177C122.459,167.078,121.564,167.975,120.459,167.975 M65.876,163.975h52.583v-63.177
			c0-12.792-10.404-23.198-23.198-23.198h-6.187c-12.792,0-23.198,10.406-23.198,23.198V163.975z"/>
		<path fill="#FEF8F1" d="M92.066,93.659L92.066,93.659c-11.02,0-20.035-9.016-20.035-20.035V63.9
			c0-11.019,9.016-20.035,20.035-20.035c11.018,0,20.036,9.016,20.036,20.035v9.724C112.102,84.643,103.084,93.659,92.066,93.659"/>
		<path fill="#FFFFFF" d="M72.937,58.344c2.209,0.852,4.602,1.338,7.111,1.338c4.745,0,15.155-3.998,16.957-6.447"/>
		<path fill="#F7A848" d="M92.066,41.865c-12.15,0-22.035,9.885-22.035,22.035v9.724c0,12.15,9.885,22.035,22.035,22.035
			c12.151,0,22.036-9.885,22.036-22.035V63.9C114.102,51.75,104.217,41.865,92.066,41.865 M110.102,73.624
			c0,9.944-8.092,18.035-18.036,18.035c-9.945,0-18.035-8.091-18.035-18.035V63.9c0-1.026,0.106-2.027,0.272-3.008
			c1.881,0.521,3.805,0.791,5.745,0.791c4.334,0,13.238-3.018,17.121-5.905c0.361,0.267,0.724,0.546,1.098,0.835
			c2.22,1.719,4.737,3.666,8.188,3.666c0.996,0,2.021-0.084,3.215-0.262c0.275,1.253,0.432,2.549,0.432,3.883V73.624z"/>
		<path fill="#F9C07B" d="M105.766,115.771c0,18.045,10.438,19.125,11.047,2.688c1.269-34.218,32.381,13.954,32.381,13.954
			l-31.938,33.562l-16.188,0.035v-40.447L105.766,115.771z"/>
		<path fill="#F9B96D" d="M119.287,97.438h-3.504V86.902c0-11.94,9.43-21.709,20.955-21.709s20.955,9.769,20.955,21.709v10.536
			h-4.41"/>
		<path fill="#FCE1BF" d="M115.568,165.975v-47.591c0-10.743,8.483-19.534,18.854-19.534h4.629c10.371,0,18.857,8.791,18.857,19.534
			v47.591H115.568z"/>
		<path fill="#F7A848" d="M157.908,167.975h-42.34c-1.104,0-2-0.896-2-2v-47.592c0-11.873,9.354-21.533,20.854-21.533h4.629
			c11.5,0,20.855,9.66,20.855,21.533v47.592C159.908,167.078,159.014,167.975,157.908,167.975 M117.568,163.975h38.34v-45.592
			c0-9.668-7.561-17.533-16.855-17.533h-4.629c-9.293,0-16.855,7.865-16.855,17.533V163.975L117.568,163.975z"/>
		<path fill="#FEF8F1" d="M144.02,73.314c-0.526,1.836-2.252,4.455-3.319,5.961c2.437,1.576,4.471,3.175,7.573,4.188
			c2.263,0.738,4.347-0.427,4.347-0.427c0.418,1.478,0.182,3.483,0.182,5.096v8.076c0,9.153-7.227,16.642-16.062,16.642
			c-8.836,0-16.064-7.488-16.064-16.642v-8.076c0-0.572,0.029-1.137,0.084-1.695l0.643,0.133c1.771,0.707,3.689,1.111,5.701,1.111
			c5.252,0,10.707-4.338,13.599-8.406"/>
		<path fill="#F7A848" d="M136.738,63.194c-12.658,0-22.955,10.636-22.955,23.708v10.536c0,1.104,0.895,2,2,2h3.182
			c1.488,8.742,8.883,15.412,17.773,15.412c8.89,0,16.285-6.67,17.773-15.412h3.182c1.104,0,2-0.896,2-2V86.902
			C159.693,73.831,149.396,63.194,136.738,63.194 M150.834,86.745c-0.016,0.479-0.033,0.948-0.033,1.388v8.078
			c0,8.072-6.309,14.641-14.062,14.641c-7.752,0-14.062-6.567-14.062-14.641v-7.112c1.451,0.388,2.935,0.583,4.429,0.583
			c5.312,0,10.623-3.668,14.035-7.715c1.873,1.251,3.834,2.525,6.516,3.4c1.164,0.38,2.271,0.403,3.211,0.278
			C150.861,86.012,150.848,86.385,150.834,86.745 M155.693,95.438H154.8v-7.306c0-0.395,0.017-0.815,0.031-1.246
			c0.049-1.405,0.106-2.998-0.287-4.394c-0.166-0.582-0.594-1.053-1.149-1.29c-0.558-0.239-1.199-0.204-1.732,0.078
			c-0.014,0.007-1.398,0.73-2.768,0.282c-2.123-0.693-3.681-1.686-5.404-2.837c1.021-1.58,2.023-3.372,2.451-4.859
			c0.305-1.062-0.31-2.169-1.371-2.474c-1.062-0.308-2.168,0.307-2.473,1.37c-0.332,1.151-1.464,3.151-3.027,5.351
			c0,0.001-0.002,0.002-0.002,0.003c-2.672,3.759-7.639,7.564-11.965,7.564c-1.685,0-3.353-0.325-4.961-0.968
			c-0.109-0.044-0.224-0.077-0.336-0.101l-0.644-0.133c-0.56-0.114-1.134,0.012-1.59,0.348c-0.457,0.335-0.75,0.848-0.808,1.413
			c-0.061,0.617-0.092,1.254-0.092,1.893v7.306h-0.893v-8.536c0-10.867,8.502-19.708,18.955-19.708
			c10.451,0,18.955,8.841,18.955,19.708v8.536H155.693z"/>
		<path fill="#FCE1BF" d="M42.089,165.975v-39.201c0-9.258,7.574-16.832,16.832-16.832h4.133c9.257,0,16.831,7.574,16.831,16.832
			v39.201H42.089z"/>
		<path fill="#F9C07B" d="M43.682,164.382h18.687c0,0-13.227,0-18.687-37.61V164.382z"/>
		<path fill="#F7A848" d="M79.884,167.975H42.089c-1.104,0-2-0.896-2-2v-39.201c0-10.385,8.448-18.832,18.832-18.832h4.133
			c10.383,0,18.83,8.447,18.83,18.832v39.201C81.884,167.078,80.989,167.975,79.884,167.975 M44.089,163.975h33.795v-37.201
			c0-8.178-6.652-14.832-14.83-14.832h-4.133c-8.179,0-14.832,6.654-14.832,14.832V163.975z"/>
		<path fill="#F9C07B" d="M117.594,163.977h18.688c0,0-13.229,0-18.688-37.61V163.977z"/>
		<path fill="#FEF8F1" d="M60.988,122.004L60.988,122.004c-7.887,0-14.34-6.452-14.34-14.339v-6.958
			c0-7.888,6.453-14.339,14.34-14.339c7.886,0,14.338,6.452,14.338,14.339v6.958C75.326,115.552,68.874,122.004,60.988,122.004"/>
		<polygon fill="#F9B96D" points="53.419,87.675 46.138,95.804 53.011,97.562 65.795,92.779 69.183,95.232 73.911,96.684 
			72.505,91.278 65.795,85.933 		"/>
		<path fill="#F7A848" d="M75.753,93.76c-0.016-0.039-0.023-0.079-0.043-0.117c-0.05-0.104-0.107-0.201-0.16-0.304
			c-0.11-0.219-0.223-0.437-0.344-0.651c-0.094-0.165-0.197-0.325-0.297-0.488c-0.275-0.447-0.568-0.88-0.884-1.298
			c-0.063-0.084-0.126-0.172-0.191-0.255c-0.204-0.26-0.418-0.512-0.638-0.759c-0.047-0.053-0.094-0.104-0.141-0.155
			c-1.307-1.435-2.857-2.639-4.597-3.538c-0.032-0.018-0.067-0.032-0.1-0.049c-0.548-0.278-1.113-0.522-1.694-0.738
			c-0.041-0.016-0.083-0.031-0.124-0.046c-0.879-0.319-1.79-0.567-2.731-0.732c-0.284-0.05-0.569-0.095-0.857-0.131
			c-0.173-0.021-0.346-0.041-0.52-0.057c-0.479-0.043-0.961-0.073-1.445-0.073c-0.527,0-1.048,0.03-1.564,0.079
			c-0.188,0.018-0.371,0.051-0.558,0.075c-0.321,0.042-0.642,0.086-0.957,0.146c-0.224,0.043-0.442,0.098-0.663,0.149
			c-0.271,0.064-0.54,0.131-0.805,0.208c-0.232,0.067-0.46,0.141-0.688,0.219c-0.246,0.084-0.49,0.173-0.732,0.268
			c-0.228,0.09-0.453,0.182-0.676,0.281c-0.235,0.105-0.465,0.22-0.695,0.336c-0.213,0.108-0.428,0.213-0.635,0.33
			c-0.241,0.135-0.474,0.283-0.707,0.43c-0.184,0.115-0.371,0.225-0.547,0.347c-0.312,0.213-0.609,0.442-0.904,0.676
			c-0.09,0.071-0.186,0.135-0.274,0.208c-0.378,0.313-0.739,0.644-1.089,0.99c-0.109,0.108-0.209,0.224-0.314,0.336
			c-0.237,0.248-0.473,0.499-0.693,0.763c-0.12,0.141-0.23,0.29-0.344,0.435c-0.193,0.246-0.383,0.493-0.562,0.75
			c-0.116,0.166-0.224,0.335-0.334,0.506c-0.159,0.247-0.312,0.497-0.458,0.754c-0.107,0.188-0.21,0.379-0.311,0.572
			c-0.129,0.247-0.248,0.499-0.363,0.755c-0.096,0.211-0.189,0.422-0.277,0.638c-0.1,0.247-0.188,0.5-0.277,0.754
			c-0.078,0.229-0.16,0.457-0.229,0.69c-0.077,0.262-0.14,0.528-0.205,0.796c-0.056,0.229-0.118,0.457-0.165,0.69
			c-0.006,0.033-0.016,0.064-0.023,0.098c-0.049,0.259-0.074,0.523-0.111,0.786c-0.031,0.225-0.072,0.446-0.096,0.674
			c-0.053,0.53-0.081,1.064-0.081,1.599v6.959c0,9.01,7.329,16.339,16.339,16.339c9.008,0,16.338-7.329,16.338-16.339v-6.959
			C77.326,98.22,76.751,95.871,75.753,93.76 M50.026,95.067c0.077-0.152,0.159-0.302,0.243-0.449c0.106-0.188,0.219-0.37,0.334-0.55
			c0.087-0.136,0.174-0.27,0.265-0.4c0.13-0.186,0.269-0.366,0.408-0.545c0.091-0.117,0.179-0.236,0.274-0.349
			c0.159-0.189,0.33-0.37,0.5-0.55c0.088-0.093,0.17-0.189,0.262-0.278c0.258-0.256,0.525-0.501,0.805-0.733
			c0.085-0.07,0.177-0.133,0.264-0.201c0.207-0.163,0.418-0.325,0.635-0.475c0.141-0.097,0.287-0.183,0.432-0.274
			c0.171-0.107,0.341-0.215,0.518-0.314c0.159-0.09,0.324-0.171,0.488-0.254c0.17-0.086,0.341-0.171,0.516-0.249
			c0.17-0.076,0.344-0.147,0.519-0.216c0.179-0.07,0.36-0.137,0.545-0.2c0.173-0.058,0.347-0.115,0.524-0.166
			c0.199-0.058,0.4-0.108,0.603-0.156c0.168-0.04,0.335-0.081,0.505-0.113c0.237-0.046,0.479-0.079,0.721-0.11
			c0.141-0.019,0.279-0.043,0.422-0.057c0.39-0.037,0.783-0.06,1.182-0.06c0.367,0,0.729,0.024,1.088,0.055
			c0.134,0.013,0.268,0.027,0.4,0.044c0.211,0.026,0.422,0.06,0.63,0.096c0.581,0.104,1.151,0.249,1.708,0.434
			c-0.475,0.841-1.123,1.834-1.902,2.892c0,0,0,0.001-0.001,0.001c-1.795,2.438-5.335,3.671-10.524,3.671
			c-0.83,0-1.654-0.096-2.47-0.268C49.954,95.218,49.988,95.142,50.026,95.067 M68.358,90.845c1.309,0.979,2.431,2.216,3.278,3.658
			c0.022,0.039,0.047,0.078,0.07,0.117c0.008,0.014,0.016,0.03,0.023,0.044c-0.148,0.007-0.303,0.02-0.446,0.02
			c-1.296,0-2.437-0.883-3.758-1.905c-0.077-0.06-0.154-0.119-0.231-0.179C67.668,92.033,68.029,91.438,68.358,90.845
			 M73.326,107.665c0,6.804-5.535,12.339-12.338,12.339c-6.805,0-12.339-5.535-12.339-12.339v-6.959
			c0-0.407,0.022-0.811,0.061-1.208c0.013-0.125,0.037-0.247,0.054-0.372c1.191,0.278,2.402,0.435,3.623,0.435
			c5.541,0,9.693-1.296,12.412-3.833c0.094,0.072,0.184,0.14,0.278,0.214c1.661,1.285,3.544,2.742,6.207,2.742
			c0.581,0,1.19-0.051,1.841-0.131c0.124,0.701,0.201,1.418,0.201,2.153V107.665z"/>
		<path fill="#FFFFFF" d="M103.734,124.527h4.645v-7.036c0-7.976-7.322-14.501-15.296-14.501c-7.976,0-15.298,6.525-15.298,14.501
			v7.036h3.223"/>
		<path fill="#FCE1BF" d="M78.433,165.975V138.52c0-7.177,5.871-13.047,13.047-13.047h3.204c7.175,0,13.046,5.87,13.046,13.047
			v27.455H78.433z"/>
		<path fill="#F9C07B" d="M105.766,143.366c-3.053,21.016-10.442,21.016-10.442,21.016h10.442V143.366z"/>
		<path fill="#F7A848" d="M107.73,167.975H78.433c-1.104,0-2-0.896-2-2V138.52c0-8.299,6.75-15.049,15.047-15.049h3.204
			c8.296,0,15.046,6.75,15.046,15.049v27.455C109.73,167.078,108.836,167.975,107.73,167.975 M80.433,163.975h25.297V138.52
			c0-6.093-4.955-11.049-11.046-11.049H91.48c-6.091,0-11.047,4.956-11.047,11.049V163.975z"/>
		<path fill="#FEF8F1" d="M97.597,108.414c-0.365,1.227-1.557,2.977-2.298,3.98c1.687,1.054,3.097,2.114,5.242,2.799
			c1.453,0.464,3.008-0.285,3.008-0.285l0.125,8.798c0,6.114-5.001,11.114-11.114,11.114c-6.113,0-10.115-5-10.115-11.114
			c0,0,0.019-6.153,0.057-6.524l0.445,0.088c1.226,0.473,1.553,0.741,2.945,0.741c3.633,0,7.407-2.897,9.407-5.614"/>
		<path fill="#F7A848" d="M93.083,100.99c-9.376,0-17.297,7.557-17.297,16.501v7.036c0,1.104,0.896,2,2,2h2.921
			c1.13,6.029,5.847,10.295,11.854,10.295c6.256,0,11.494-4.406,12.794-10.295h3.023c1.104,0,2-0.896,2-2v-7.036
			C110.379,108.547,102.457,100.99,93.083,100.99 M92.56,132.822c-5.328,0-8.115-4.586-8.115-9.109
			c0.004-1.297,0.011-2.675,0.018-3.814c0.396,0.07,0.857,0.112,1.43,0.112c3.684,0,7.35-2.321,9.816-4.979
			c1.206,0.765,2.503,1.519,4.225,2.068c0.557,0.178,1.11,0.244,1.626,0.244h0.023l0.09,6.363
			C101.674,128.732,97.585,132.822,92.56,132.822 M106.379,122.527h-0.721l-0.109-7.647c-0.01-0.676-0.371-1.295-0.941-1.655
			c-0.567-0.361-1.293-0.406-1.907-0.127c-0.289,0.133-1.043,0.353-1.55,0.19c-1.167-0.372-2.087-0.879-3.033-1.468
			c0.595-0.945,1.136-1.956,1.397-2.836c0.315-1.061-0.288-2.174-1.347-2.487c-1.061-0.317-2.172,0.288-2.487,1.347
			c-0.204,0.686-0.966,1.975-1.989,3.363c0,0.001,0,0.002-0.002,0.003c-1.756,2.386-4.998,4.801-7.797,4.801
			c-0.731,0-0.875-0.06-1.568-0.344c-0.194-0.08-0.408-0.168-0.657-0.265c-0.106-0.041-0.216-0.072-0.328-0.096l-0.444-0.089
			c-0.552-0.112-1.127,0.017-1.58,0.353c-0.453,0.334-0.744,0.846-0.802,1.406c-0.011,0.107-0.043,0.428-0.063,5.551h-0.663v-5.036
			c0-6.659,6.214-12.501,13.297-12.501s13.296,5.842,13.296,12.501L106.379,122.527L106.379,122.527z"/>
		<path fill="#F7A848" d="M49.142,141.65c-0.829,0-1.5-0.672-1.5-1.5v-2.192c0-0.828,0.671-1.5,1.5-1.5s1.5,0.672,1.5,1.5v2.192
			C50.642,140.979,49.971,141.65,49.142,141.65"/>
		<path fill="#F7A848" d="M49.142,146.699c-0.829,0-1.5-0.672-1.5-1.5v-0.184c0-0.828,0.671-1.5,1.5-1.5s1.5,0.672,1.5,1.5v0.184
			C50.642,146.027,49.971,146.699,49.142,146.699"/>
		<path fill="#F7A848" d="M49.142,167.475c-0.829,0-1.5-0.672-1.5-1.5v-17.338c0-0.828,0.671-1.5,1.5-1.5s1.5,0.672,1.5,1.5v17.338
			C50.642,166.803,49.971,167.475,49.142,167.475"/>
		<path fill="#F7A848" d="M149.99,128.913c-0.828,0-1.5-0.672-1.5-1.5v-2.194c0-0.828,0.672-1.5,1.5-1.5s1.5,0.672,1.5,1.5v2.194
			C151.49,128.241,150.818,128.913,149.99,128.913"/>
		<path fill="#F7A848" d="M149.99,167.475c-0.828,0-1.5-0.672-1.5-1.5v-30.076c0-0.828,0.672-1.5,1.5-1.5s1.5,0.672,1.5,1.5v30.076
			C151.49,166.803,150.818,167.475,149.99,167.475"/>
		<path fill="#F1F2F2" d="M3,166.01h194c0,0-49.891,14.699-97,14.699C52.89,180.709,3,166.01,3,166.01"/>
		<path fill="#F7A848" d="M197,167.992h-8.994c-1.104,0-2-0.896-2-2s0.896-2,2-2H197c1.104,0,2,0.896,2,2
			S198.104,167.992,197,167.992"/>
		<path fill="#F7A848" d="M183.297,167.992h-2.514c-1.104,0-2-0.896-2-2s0.896-2,2-2h2.514c1.105,0,2,0.896,2,2
			S184.402,167.992,183.297,167.992"/>
		<path fill="#F7A848" d="M176.07,167.992H17.918c-1.105,0-2-0.896-2-2s0.895-2,2-2H176.07c1.104,0,2,0.896,2,2
			S177.174,167.992,176.07,167.992"/>
		<path fill="#F7A848" d="M12.377,167.992H3c-1.105,0-2-0.896-2-2s0.895-2,2-2h9.377c1.104,0,2,0.896,2,2
			S13.482,167.992,12.377,167.992"/>
	</g>
</g>
</svg>
