<?xml version="1.0" encoding="utf-8"?>
<!-- Generator: Adobe Illustrator 15.1.0, SVG Export Plug-In . SVG Version: 6.00 Build 0)  -->
<!DOCTYPE svg PUBLIC "-//W3C//DTD SVG 1.1//EN" "http://www.w3.org/Graphics/SVG/1.1/DTD/svg11.dtd">
<svg version="1.1" id="Layer_1" xmlns="http://www.w3.org/2000/svg" xmlns:xlink="http://www.w3.org/1999/xlink" x="0px" y="0px"
	 width="200px" height="200px" viewBox="0 0 200 200" enable-background="new 0 0 200 200" xml:space="preserve">
<g>
	<g>
		<path fill="#FCE1C1" d="M100.239,104.258c23.76-10.274,49.422-43.635,28.255-59.721c-16.054-12.201-28.255,8.99-28.255,8.99
			h-0.478c0,0-12.623-21.726-28.256-8.99c-20.839,16.977,3.327,49.477,28.256,59.721H100.239z"/>
		<path fill="#FAC78A" d="M99.981,101.639c18.367-8.269,32.227-26.767,33.725-39.105c0.464-3.824-0.095-7.236-1.665-10.207
			C132.041,59.597,120.183,86.991,99.981,101.639"/>
		<path fill="#F7A848" d="M100.239,106.758h-0.479c-0.325,0-0.649-0.063-0.95-0.188c-18.64-7.66-35.072-26.052-37.412-41.868
			c-1.309-8.849,1.641-16.492,8.528-22.104c4.623-3.766,9.497-5.212,14.491-4.303c7.284,1.329,12.825,7.434,15.581,11.128
			c2.679-3.58,8.005-9.404,15.133-10.843c5.061-1.022,10.067,0.312,14.875,3.967c6.686,5.081,9.681,12.201,8.662,20.589
			c-1.678,13.821-16.469,34.35-37.438,43.417C100.918,106.687,100.581,106.758,100.239,106.758 M81.54,43.032
			c-2.841,0-5.624,1.137-8.455,3.443c-5.524,4.5-7.792,10.386-6.739,17.495c2.04,13.801,17.045,30.548,33.635,37.668
			c18.368-8.268,32.227-26.766,33.726-39.104c0.804-6.619-1.459-12.005-6.725-16.007c-3.658-2.78-7.201-3.78-10.843-3.05
			c-8.037,1.612-13.679,11.204-13.734,11.301c-0.447,0.771-1.273,1.249-2.165,1.249h-0.479c-0.891,0-1.715-0.474-2.161-1.244
			c-0.058-0.098-5.992-10.105-14.094-11.572C82.848,43.092,82.191,43.032,81.54,43.032"/>
		<path fill="#FAC78A" d="M100,21.343c-1.104,0-2-0.896-2-2V0.027c0-1.105,0.896-2,2-2s2,0.895,2,2v19.315
			C102,20.447,101.104,21.343,100,21.343"/>
		<path fill="#FAC78A" d="M100,144.26c-1.104,0-2-0.896-2-2v-19.315c0-1.104,0.896-2,2-2s2,0.896,2,2v19.315
			C102,143.363,101.104,144.26,100,144.26"/>
		<path fill="#FAC78A" d="M136.629,36.514c-0.512,0-1.023-0.195-1.414-0.586c-0.781-0.781-0.781-2.047,0-2.828l13.658-13.658
			c0.781-0.782,2.047-0.782,2.828,0c0.781,0.781,0.781,2.047,0,2.828l-13.658,13.658C137.652,36.319,137.141,36.514,136.629,36.514"
			/>
		<path fill="#FAC78A" d="M49.713,123.431c-0.512,0-1.023-0.195-1.414-0.586c-0.781-0.781-0.781-2.047,0-2.828l13.658-13.658
			c0.779-0.782,2.048-0.782,2.828,0c0.781,0.781,0.781,2.047,0,2.828l-13.658,13.658C50.736,123.235,50.225,123.431,49.713,123.431"
			/>
		<path fill="#FAC78A" d="M171.116,73.143h-19.315c-1.104,0-2-0.896-2-2s0.896-2,2-2h19.315c1.104,0,2,0.896,2,2
			S172.22,73.143,171.116,73.143"/>
		<path fill="#FAC78A" d="M48.199,73.143H28.883c-1.104,0-2-0.896-2-2s0.896-2,2-2h19.316c1.104,0,2,0.896,2,2
			S49.303,73.143,48.199,73.143"/>
		<path fill="#FAC78A" d="M150.287,123.431c-0.512,0-1.023-0.195-1.414-0.586l-13.658-13.658c-0.782-0.781-0.782-2.047,0-2.828
			c0.781-0.782,2.047-0.782,2.828,0l13.658,13.658c0.781,0.781,0.781,2.047,0,2.828
			C151.311,123.235,150.799,123.431,150.287,123.431"/>
		<path fill="#FAC78A" d="M63.371,36.514c-0.512,0-1.023-0.195-1.414-0.586L48.299,22.271c-0.781-0.781-0.781-2.047,0-2.828
			c0.78-0.782,2.049-0.782,2.828,0l13.658,13.658c0.781,0.781,0.781,2.047,0,2.828C64.395,36.319,63.883,36.514,63.371,36.514"/>
		<path fill="#F7A848" d="M123.56,19.152c-0.331,0-0.668-0.066-0.991-0.206c-1.268-0.548-1.851-2.02-1.303-3.287l8.785-20.319
			c0.548-1.268,2.02-1.85,3.287-1.303c1.268,0.548,1.851,2.019,1.303,3.287l-8.785,20.319
			C125.447,18.588,124.526,19.152,123.56,19.152"/>
		<path fill="#F7A848" d="M67.652,148.457c-0.33,0-0.666-0.066-0.99-0.206c-1.268-0.548-1.85-2.021-1.303-3.287l8.785-20.319
			c0.549-1.269,2.018-1.852,3.287-1.303c1.268,0.548,1.85,2.019,1.303,3.287l-8.785,20.318
			C69.541,147.893,68.619,148.457,67.652,148.457"/>
		<path fill="#F7A848" d="M155.192,51.772c-0.995,0-1.937-0.599-2.325-1.58c-0.509-1.283,0.119-2.736,1.403-3.245l20.58-8.156
			c1.28-0.511,2.736,0.119,3.245,1.403c0.509,1.283-0.119,2.736-1.403,3.245l-20.58,8.156
			C155.811,51.715,155.499,51.772,155.192,51.772"/>
		<path fill="#F7A848" d="M24.229,103.673c-0.995,0-1.936-0.6-2.325-1.58c-0.508-1.283,0.12-2.736,1.404-3.245l20.58-8.155
			c1.28-0.51,2.735,0.119,3.245,1.403c0.509,1.283-0.12,2.736-1.404,3.245l-20.58,8.154
			C24.847,103.615,24.535,103.673,24.229,103.673"/>
		<path fill="#F7A848" d="M174.811,105.99c-0.331,0-0.668-0.066-0.991-0.206L153.5,96.999c-1.267-0.548-1.85-2.021-1.302-3.287
			c0.548-1.268,2.02-1.85,3.287-1.303l20.318,8.785c1.268,0.548,1.851,2.02,1.303,3.287
			C176.698,105.426,175.777,105.99,174.811,105.99"/>
		<path fill="#F7A848" d="M45.506,50.084c-0.331,0-0.667-0.066-0.991-0.206l-20.319-8.785c-1.267-0.548-1.851-2.02-1.303-3.287
			c0.549-1.268,2.02-1.852,3.287-1.303l20.32,8.785c1.268,0.548,1.85,2.02,1.302,3.287C47.395,49.52,46.473,50.084,45.506,50.084"/>
		<path fill="#F7A848" d="M130.029,149.416c-0.995,0-1.938-0.6-2.325-1.58l-8.156-20.58c-0.509-1.283,0.119-2.736,1.403-3.245
			c1.28-0.509,2.736,0.119,3.245,1.403l8.156,20.58c0.509,1.282-0.119,2.735-1.403,3.244
			C130.647,149.358,130.336,149.416,130.029,149.416"/>
		<path fill="#F7A848" d="M78.128,18.453c-0.995,0-1.937-0.599-2.325-1.58l-8.154-20.58c-0.51-1.283,0.119-2.736,1.402-3.245
			c1.283-0.512,2.736,0.119,3.245,1.403l8.155,20.58c0.51,1.283-0.119,2.736-1.403,3.245C78.746,18.396,78.436,18.453,78.128,18.453
			"/>
		<path fill="#F1F2F2" d="M3,166.01h194c0,0-49.89,14.699-97,14.699C52.891,180.709,3,166.01,3,166.01"/>
		<path fill="#F7A848" d="M197,167.992h-11.993c-1.104,0-2-0.896-2-2c0-1.104,0.896-2,2-2H197c1.104,0,2,0.896,2,2
			C199,167.096,198.104,167.992,197,167.992"/>
		<path fill="#F7A848" d="M178.298,167.992h-3.514c-1.104,0-2-0.896-2-2c0-1.104,0.896-2,2-2h3.514c1.104,0,2,0.896,2,2
			C180.298,167.096,179.402,167.992,178.298,167.992"/>
		<path fill="#F7A848" d="M169.071,167.992H17.918c-1.104,0-2-0.896-2-2c0-1.104,0.896-2,2-2h151.153c1.104,0,2,0.896,2,2
			C171.071,167.096,170.176,167.992,169.071,167.992"/>
		<path fill="#F7A848" d="M12.379,167.992H3c-1.104,0-2-0.896-2-2c0-1.104,0.896-2,2-2h9.379c1.104,0,2,0.896,2,2
			C14.379,167.096,13.482,167.992,12.379,167.992"/>
		<path fill="#FFFFFF" d="M82.023,51.335c0,1.374-1.113,2.488-2.488,2.488c-1.373,0-2.488-1.114-2.488-2.488
			s1.115-2.488,2.488-2.488C80.91,48.847,82.023,49.961,82.023,51.335"/>
	</g>
</g>
</svg>
