<?xml version="1.0" encoding="utf-8"?>
<!-- Generator: Adobe Illustrator 15.1.0, SVG Export Plug-In . SVG Version: 6.00 Build 0)  -->
<!DOCTYPE svg PUBLIC "-//W3C//DTD SVG 1.1//EN" "http://www.w3.org/Graphics/SVG/1.1/DTD/svg11.dtd">
<svg version="1.1" id="Layer_1" xmlns="http://www.w3.org/2000/svg" xmlns:xlink="http://www.w3.org/1999/xlink" x="0px" y="0px"
	 width="200px" height="220px" viewBox="0 -20 200 220" enable-background="new 0 -20 200 220" xml:space="preserve">
<g>
	<rect x="70.855" y="-6.767" fill="#D2626C" width="58.288" height="124.996"/>
	<rect x="72.956" y="79.372" fill="#C8404C" width="54.087" height="12.594"/>
	<g>
		<path fill="#BE1E2D" d="M129.145-8.766h-58.29c-1.104,0-2,0.895-2,2v124.995c0,1.104,0.896,2,2,2h58.29c1.104,0,2-0.896,2-2
			V-6.766C131.145-7.871,130.249-8.766,129.145-8.766 M72.855,13.281c9.758-0.698,17.617-8.363,18.576-18.047h17.694
			c0.941,9.501,8.518,17.077,18.02,18.019v84.956c-9.502,0.941-17.076,8.518-18.02,18.02H91.432
			c-0.959-9.685-8.818-17.351-18.576-18.047L72.855,13.281L72.855,13.281z M127.145,9.216c-7.289-0.908-13.074-6.693-13.981-13.982
			h13.981V9.216z M87.396-4.766C86.465,2.709,80.407,8.607,72.855,9.281V-4.766H87.396z M72.855,102.182
			c7.552,0.674,13.609,6.571,14.541,14.047H72.855V102.182z M113.162,116.229c0.908-7.291,6.693-13.074,13.982-13.981v13.981
			H113.162z"/>
		<path fill="#FFFFFF" d="M99.075,74.333c-10.274,0-18.603-8.328-18.603-18.602S88.8,37.129,99.075,37.129
			c10.272,0,18.602,8.328,18.602,18.602S109.35,74.333,99.075,74.333"/>
		<path fill="#BE1E2D" d="M99.075,76.333c-11.36,0-20.603-9.241-20.603-20.602s9.242-20.603,20.603-20.603
			c11.36,0,20.603,9.242,20.603,20.603S110.436,76.333,99.075,76.333 M99.075,39.128c-9.155,0-16.603,7.448-16.603,16.603
			c0,9.153,7.447,16.602,16.603,16.602c9.153,0,16.603-7.448,16.603-16.602C115.678,46.576,108.229,39.128,99.075,39.128"/>
		<path fill="#006838" d="M90.005,54.774c0.274-2.676,1.229-5.326,2.704-7.374l3.632,2.458c-1.229,1.748-1.966,3.387-2.239,5.08
			h3.278c1.01-4.397,2.513-6.637,5.897-6.637h0.057c3.223,0,5.462,2.349,5.764,6.528h1.557v2.841h-1.639
			c-0.246,2.239-1.012,4.124-2.131,5.762l-3.66-2.238c0.793-1.119,1.338-2.43,1.639-3.659h-3.168
			c-1.01,4.342-2.566,6.526-5.954,6.526h-0.055c-3.332,0-5.381-2.567-5.736-6.445h-2.676v-2.841L90.005,54.774L90.005,54.774z
			 M105.107,54.966c-0.107-1.339-0.653-1.858-1.363-1.858h-0.057c-0.709,0-1.119,0.383-1.529,1.858H105.107z M95.33,59.336h0.055
			c0.738,0,1.148-0.41,1.559-1.83h-3.006C94.074,58.763,94.539,59.336,95.33,59.336"/>
		<path fill="#BE1E2D" d="M107.463,66.131l-5.595-3.424c-1.195,1.928-3.058,3.354-6.128,3.354c-3.811,0-6.553-2.424-7.492-6.446
			h-2.975v-6.84h3.017c0.491-2.412,1.458-4.686,2.796-6.542l1.135-1.576l5.795,3.92c1.178-1.359,2.843-2.275,5.263-2.275
			c3.841,0,6.647,2.506,7.545,6.528h1.83v6.841h-1.955c-0.409,1.746-1.135,3.385-2.162,4.891L107.463,66.131z M92.201,58.939
			c0.406,1.528,1.343,3.122,3.484,3.122c1.612,0,2.989-0.375,4.062-4.98l0.025-0.114h-0.246l0.704-2.535
			c0.254-0.909,0.924-3.322,3.458-3.322c1.354,0,2.806,0.757,3.279,2.811c-0.312-1.666-1.195-3.619-3.636-3.619
			c-1.576,0-2.924,0.383-4.004,5.086l-0.028,0.119H99.6l-0.736,2.554c-0.258,0.896-0.943,3.276-3.479,3.276h-0.054
			C94.727,61.336,92.921,61.143,92.201,58.939 M105.928,60.501l0.239,0.148c0.451-1.001,0.735-2.059,0.858-3.197l0.055-0.486h-0.02
			l-0.256,1.043C106.641,58.683,106.369,59.561,105.928,60.501 M91.939,55.506h0.045l0.143-0.886
			c0.225-1.395,0.717-2.778,1.495-4.187l-0.284-0.192c-0.701,1.435-1.175,3.083-1.344,4.737L91.939,55.506z"/>
		<rect x="37.502" y="26.587" fill="#D2626C" width="124.995" height="58.289"/>
		<path fill="#BE1E2D" d="M162.497,24.586H37.502c-1.104,0-2,0.895-2,2v58.289c0,1.104,0.896,2,2,2h124.995c1.104,0,2-0.896,2-2
			V26.586C164.497,25.481,163.602,24.586,162.497,24.586 M39.502,46.605c9.501-0.942,17.078-8.518,18.02-18.019h84.957
			c0.941,9.501,8.519,17.077,18.02,18.019v17.693c-9.684,0.961-17.35,8.818-18.047,18.576h-84.9
			c-0.699-9.758-8.365-17.615-18.049-18.576V46.605z M160.497,42.568c-7.29-0.908-13.075-6.693-13.983-13.982h13.983V42.568z
			 M53.485,28.586c-0.908,7.289-6.693,13.074-13.983,13.982V28.586H53.485z M39.502,68.336c7.477,0.93,13.374,6.988,14.049,14.539
			H39.502V68.336z M146.45,82.875c0.674-7.551,6.571-13.609,14.047-14.539v14.539H146.45z"/>
		<path fill="#E6E7E8" d="M118.604,56.656c0,10.274-8.328,18.602-18.604,18.602c-10.273,0-18.602-8.328-18.602-18.602
			c0-10.274,8.329-18.602,18.602-18.602C110.273,38.054,118.604,46.382,118.604,56.656"/>
		<path fill="#BE1E2D" d="M100,77.258c-11.359,0-20.602-9.242-20.602-20.602c0-11.361,9.242-20.603,20.602-20.603
			c11.359,0,20.604,9.242,20.604,20.603C120.604,68.016,111.359,77.258,100,77.258 M100,40.053c-9.154,0-16.602,7.448-16.602,16.603
			c0,9.154,7.447,16.602,16.602,16.602c9.154,0,16.604-7.447,16.604-16.602C116.604,47.501,109.154,40.053,100,40.053"/>
		<path fill="#BE1E2D" d="M121.956,133.91c-0.293-0.779-1.039-1.297-1.872-1.297H79.915c-0.833,0-1.579,0.518-1.872,1.297
			s-0.072,1.658,0.557,2.208l20.084,17.575c0.377,0.33,0.847,0.494,1.316,0.494s0.939-0.164,1.316-0.494l20.084-17.575
			C122.027,135.568,122.249,134.689,121.956,133.91"/>
		<path fill="#F1F2F2" d="M3,166.416h194c0,0-49.891,14.698-97,14.698C52.891,181.114,3,166.416,3,166.416"/>
		<path fill="#BE1E2D" d="M197,168.398h-11.993c-1.104,0-2-0.896-2-2c0-1.104,0.896-2,2-2H197c1.104,0,2,0.896,2,2
			S198.104,168.398,197,168.398"/>
		<path fill="#BE1E2D" d="M178.298,168.398h-3.514c-1.104,0-2-0.896-2-2c0-1.104,0.896-2,2-2h3.514c1.104,0,2,0.896,2,2
			S179.402,168.398,178.298,168.398"/>
		<path fill="#BE1E2D" d="M169.07,168.398H17.918c-1.104,0-2-0.896-2-2c0-1.104,0.896-2,2-2H169.07c1.104,0,2,0.896,2,2
			S170.176,168.398,169.07,168.398"/>
		<path fill="#BE1E2D" d="M12.379,168.398H3c-1.104,0-2-0.896-2-2c0-1.104,0.896-2,2-2h9.379c1.104,0,2,0.896,2,2
			S13.482,168.398,12.379,168.398"/>
		<path fill="#BE1E2D" d="M108.458,61.422c0-3.809-3.052-5.774-6.458-6.203v-5.561c1.698,0.459,2.283,1.623,2.361,1.805
			c0.397,1.016,1.539,1.527,2.562,1.142c1.035-0.387,1.56-1.539,1.173-2.573c-0.062-0.17-1.49-3.802-6.096-4.459v-0.66
			c0-1.105-0.896-2-2-2c-1.105,0-2,0.895-2,2v0.82c-3.711,0.813-6.208,3.405-6.208,6.76c0,1.755,0.665,5.557,6.208,6.444v4.646
			c-2.043-0.577-2.545-1.749-2.557-1.771c-0.34-1.05-1.467-1.622-2.52-1.285c-1.05,0.341-1.626,1.468-1.285,2.519
			c0.057,0.173,1.273,3.715,6.361,4.635v0.717c0,1.104,0.895,2,2,2c1.104,0,2-0.896,2-2v-0.582
			C106.07,67.378,108.458,65.061,108.458,61.422 M95.792,52.493c0-1.29,0.944-2.144,2.208-2.608v4.989
			C95.802,54.343,95.792,53.103,95.792,52.493 M102,63.798v-4.54c1.152,0.212,2.458,0.759,2.458,2.164
			C104.458,62.109,104.45,63.429,102,63.798"/>
	</g>
</g>
</svg>
