<?xml version="1.0" encoding="utf-8"?>
<!-- Generator: Adobe Illustrator 15.1.0, SVG Export Plug-In . SVG Version: 6.00 Build 0)  -->
<!DOCTYPE svg PUBLIC "-//W3C//DTD SVG 1.1//EN" "http://www.w3.org/Graphics/SVG/1.1/DTD/svg11.dtd">
<svg version="1.1" id="Layer_1" xmlns="http://www.w3.org/2000/svg" xmlns:xlink="http://www.w3.org/1999/xlink" x="0px" y="0px"
	 width="200px" height="220px" viewBox="0 -20 200 220" enable-background="new 0 -20 200 220" xml:space="preserve">
<path fill="#9CB67B" d="M133.154,150.971H64.18c-7.649,0-13.905-6.257-13.905-13.904V33.036c0-7.646,6.256-13.903,13.905-13.903
	h68.976c7.646,0,13.9,6.257,13.9,13.903v104.028C147.057,144.714,140.801,150.971,133.154,150.971"/>
<path fill="none" stroke="#5D8728" stroke-width="5" stroke-linecap="round" stroke-linejoin="round" stroke-miterlimit="10" d="
	M133.154,150.971H64.18c-7.649,0-13.905-6.257-13.905-13.904V33.036c0-7.646,6.256-13.903,13.905-13.903h68.976
	c7.646,0,13.9,6.257,13.9,13.903v104.028C147.057,144.714,140.801,150.971,133.154,150.971z"/>
<polyline fill="none" stroke="#5D8728" stroke-width="5" stroke-linecap="round" stroke-linejoin="round" stroke-miterlimit="10" points="
	71.089,51.634 79.982,45.809 92.729,54.971 104.004,44.705 116.479,48.463 121.782,41.723 "/>
<path fill="#F1F2F2" d="M116.503,11.153h-8.909C107.053,6.287,102.93,2.5,97.919,2.5c-5.012,0-9.134,3.787-9.672,8.653h-7.57
	L75.27,25.938h46.64L116.503,11.153z"/>
<path fill="none" stroke="#5D8728" stroke-width="5" stroke-linecap="round" stroke-linejoin="round" stroke-miterlimit="10" d="
	M116.503,11.153h-8.909C107.053,6.287,102.93,2.5,97.919,2.5c-5.012,0-9.134,3.787-9.672,8.653h-7.57L75.27,25.938h46.64
	L116.503,11.153z"/>
<path fill="#D1D3D4" d="M79.139,23.235h38.901l-3.429-9.376C114.611,13.859,112.622,21.571,79.139,23.235"/>
<path fill="#84A45B" d="M134.16,21.889v26.685c0,47.025-30.51,86.486-76.817,97.341c1.894,1.47,4.261,2.351,6.836,2.351h68.975
	c6.175,0,11.199-5.023,11.199-11.199V33.035C144.354,27.201,139.865,22.401,134.16,21.889"/>
<path fill="#F1F2F2" d="M2,166.309h194c0,0-50.843,14.4-97,14.4C52.841,180.709,2,166.309,2,166.309"/>
<line fill="none" stroke="#5D8728" stroke-width="4" stroke-linecap="round" stroke-miterlimit="10" x1="184.249" y1="166.29" x2="196" y2="166.29"/>
<line fill="none" stroke="#5D8728" stroke-width="4" stroke-linecap="round" stroke-miterlimit="10" x1="174.232" y1="166.29" x2="177.677" y2="166.29"/>
<polyline fill="none" stroke="#5D8728" stroke-width="4" stroke-linecap="round" stroke-miterlimit="10" points="16.617,166.29 
	21.921,166.29 168.634,166.29 "/>
<polyline fill="none" stroke="#5D8728" stroke-width="4" stroke-linecap="round" stroke-miterlimit="10" points="2,166.29 
	5.717,166.29 11.188,166.29 "/>
<polyline fill="none" stroke="#5D8728" stroke-width="5" stroke-linecap="round" stroke-linejoin="round" stroke-miterlimit="10" points="
	63.233,77.073 68.638,81.97 77.421,70.801 "/>
<line fill="none" x1="92.468" y1="81.97" x2="104.711" y2="69.936"/>
<line fill="none" stroke="#5D8728" stroke-width="5" stroke-linecap="round" stroke-linejoin="round" stroke-miterlimit="10" x1="92.468" y1="81.97" x2="104.711" y2="69.936"/>
<line fill="none" x1="104.712" y1="81.97" x2="92.469" y2="69.936"/>
<line fill="none" stroke="#5D8728" stroke-width="5" stroke-linecap="round" stroke-linejoin="round" stroke-miterlimit="10" x1="104.712" y1="81.97" x2="92.469" y2="69.936"/>
<line fill="none" x1="120.73" y1="81.97" x2="132.977" y2="69.936"/>
<line fill="none" stroke="#5D8728" stroke-width="5" stroke-linecap="round" stroke-linejoin="round" stroke-miterlimit="10" x1="120.73" y1="81.97" x2="132.977" y2="69.936"/>
<line fill="none" x1="132.977" y1="81.97" x2="120.73" y2="69.936"/>
<line fill="none" stroke="#5D8728" stroke-width="5" stroke-linecap="round" stroke-linejoin="round" stroke-miterlimit="10" x1="132.977" y1="81.97" x2="120.73" y2="69.936"/>
<polyline fill="none" stroke="#5D8728" stroke-width="5" stroke-linecap="round" stroke-linejoin="round" stroke-miterlimit="10" points="
	63.233,127.232 68.638,132.127 77.421,120.959 "/>
<polyline fill="none" stroke="#5D8728" stroke-width="5" stroke-linecap="round" stroke-linejoin="round" stroke-miterlimit="10" points="
	91.495,127.232 96.9,132.127 105.686,120.959 "/>
<polyline fill="none" stroke="#5D8728" stroke-width="5" stroke-linecap="round" stroke-linejoin="round" stroke-miterlimit="10" points="
	119.757,127.232 125.164,132.127 133.949,120.959 "/>
<polyline fill="none" stroke="#5D8728" stroke-width="5" stroke-linecap="round" stroke-linejoin="round" stroke-miterlimit="10" points="
	63.233,102.369 68.638,107.264 77.421,96.095 "/>
<polyline fill="none" stroke="#5D8728" stroke-width="5" stroke-linecap="round" stroke-linejoin="round" stroke-miterlimit="10" points="
	119.757,102.369 125.164,107.264 133.949,96.095 "/>
<line fill="none" x1="92.468" y1="107.264" x2="104.711" y2="95.231"/>
<line fill="none" stroke="#5D8728" stroke-width="5" stroke-linecap="round" stroke-linejoin="round" stroke-miterlimit="10" x1="92.468" y1="107.264" x2="104.711" y2="95.231"/>
<line fill="none" x1="104.712" y1="107.264" x2="92.469" y2="95.231"/>
<line fill="none" stroke="#5D8728" stroke-width="5" stroke-linecap="round" stroke-linejoin="round" stroke-miterlimit="10" x1="104.712" y1="107.264" x2="92.469" y2="95.231"/>
</svg>
