<?xml version="1.0" encoding="utf-8"?>
<!-- Generator: Adobe Illustrator 15.1.0, SVG Export Plug-In . SVG Version: 6.00 Build 0)  -->
<!DOCTYPE svg PUBLIC "-//W3C//DTD SVG 1.1//EN" "http://www.w3.org/Graphics/SVG/1.1/DTD/svg11.dtd">
<svg version="1.1" id="Layer_1" xmlns="http://www.w3.org/2000/svg" xmlns:xlink="http://www.w3.org/1999/xlink" x="0px" y="0px"
	 width="200px" height="200px" viewBox="0 0 200 200" enable-background="new 0 0 200 200" xml:space="preserve">
<g>
	<g>
		<path fill="#F1F2F2" d="M4,165.949h96h96c0,0-48.89,14.699-96,14.699C52.891,180.648,4,165.949,4,165.949"/>
		<path fill="#F7A848" d="M196,167.932h-8.993c-1.104,0-2-0.896-2-2c0-1.104,0.896-2,2-2H196c1.104,0,2,0.896,2,2
			C198,167.036,197.104,167.932,196,167.932"/>
		<path fill="#F7A848" d="M180.298,167.932h-3.514c-1.104,0-2-0.896-2-2c0-1.104,0.896-2,2-2h3.514c1.104,0,2,0.896,2,2
			C182.298,167.036,181.402,167.932,180.298,167.932"/>
		<path fill="#F7A848" d="M171.071,167.932H18.918c-1.104,0-2-0.896-2-2c0-1.104,0.896-2,2-2h152.153c1.104,0,2,0.896,2,2
			C173.071,167.036,172.176,167.932,171.071,167.932"/>
		<path fill="#F7A848" d="M13.379,167.932H4c-1.104,0-2-0.896-2-2c0-1.104,0.896-2,2-2h9.379c1.104,0,2,0.896,2,2
			C15.379,167.036,14.482,167.932,13.379,167.932"/>
		<path fill="#FCE1C1" d="M33.231,123.007l9.731-6.04v-12.484c0-2.913,2.68-5.297,5.955-5.297h2.975
			c3.275,0,5.759,2.384,5.759,5.297v12.584l4.386,8.836v31.65c0,4.57-4.205,8.311-9.343,8.311H33.231
			c-5.138,0-9.343-3.74-9.343-8.311v-19.658C23.889,131.256,29.142,125.793,33.231,123.007"/>
		<path fill="#FACD95" d="M40.287,97.186c3.274,0,15.75-0.879,15.75,5.297v12.584l4.385,8.836v31.651
			c0.175,5.205-4.446,7.593-9.984,8.438c-6.714,1.025-14.771-0.128-17.206-0.128c13.595,0,17.047-12.27,17.047-20.63V106.63
			C50.278,103.778,40.287,97.186,40.287,97.186"/>
		<path fill="#F7A848" d="M52.694,167.863H33.23c-6.254,0-11.342-4.625-11.342-10.311v-19.657c0-8.891,7.82-14.908,10.217-16.541
			c0.023-0.017,0.048-0.031,0.072-0.047l8.785-5.452v-11.373c0-4.024,3.568-7.298,7.954-7.298h2.976
			c4.351,0,7.759,3.205,7.759,7.298v12.114l4.177,8.416c0.137,0.275,0.208,0.58,0.208,0.89v31.65
			C64.036,163.238,58.948,167.863,52.694,167.863 M34.323,124.684c-4.084,2.793-8.435,7.723-8.435,13.212v19.657
			c0,3.48,3.295,6.311,7.342,6.311h19.464c4.048,0,7.342-2.83,7.342-6.311v-31.182l-4.176-8.416
			c-0.138-0.276-0.209-0.581-0.209-0.889v-12.584c0-1.85-1.651-3.298-3.759-3.298h-2.976c-2.143,0-3.954,1.511-3.954,3.298v12.484
			c0,0.692-0.357,1.334-0.945,1.699L34.323,124.684z"/>
		<polygon fill="#FCE1C1" points="166.042,165.863 115.281,165.863 104.221,106.312 177.102,106.312 		"/>
		<polygon fill="#FACD95" points="139.463,163.863 115.28,163.863 104.222,108.31 121.686,108.31 		"/>
		<path fill="#F7A848" d="M178.64,105.033c-0.38-0.457-0.943-0.723-1.538-0.723h-14.414c-0.998-11.48-10.492-20.514-22.026-20.514
			c-11.459,0-20.893,9.033-21.884,20.514h-14.557c-0.595,0-1.158,0.266-1.538,0.723c-0.38,0.456-0.537,1.06-0.429,1.643
			l11.06,59.552c0.177,0.948,1.002,1.635,1.967,1.635h50.762c0.964,0,1.79-0.687,1.967-1.635l11.06-59.552
			C179.177,106.093,179.02,105.489,178.64,105.033 M140.661,87.797c9.161,0,16.99,7.378,18.002,16.514h-35.868
			C123.767,95.04,131.406,87.797,140.661,87.797 M164.379,163.862h-47.436l-10.317-55.552h68.07L164.379,163.862z"/>
		<polygon fill="#FCE1C1" points="67.363,118.74 118.521,118.74 131.677,165.863 52.017,165.863 		"/>
		<line fill="#FFFFFF" x1="69.41" y1="164.531" x2="73.868" y2="149.881"/>
		<line fill="#FFFFFF" x1="116" y1="163.865" x2="112.639" y2="149.214"/>
		<line fill="#FFFFFF" x1="99.557" y1="163.865" x2="98.291" y2="153.308"/>
		<path fill="#FCE1C1" d="M86.913,92.158V9.756C86.913,6.591,89.504,4,92.668,4c3.166,0,5.756,2.59,5.756,5.755v82.402H86.913z"/>
		<rect x="86.913" y="76.756" fill="#FACC93" width="11.511" height="15.402"/>
		<path fill="#F7A848" d="M98.424,94.157H86.913c-1.104,0-2-0.895-2-2V76.755c0-1.104,0.896-2,2-2h11.511c1.104,0,2,0.896,2,2
			v15.402C100.424,93.263,99.527,94.157,98.424,94.157 M88.913,90.157h7.511V78.755h-7.511V90.157z"/>
		<line fill="#FFFFFF" x1="87.516" y1="76.752" x2="98.341" y2="76.752"/>
		<path fill="#F7A848" d="M92.668,2c-4.275,0-7.755,3.479-7.755,7.755v82.402c0,1.105,0.896,2,2,2h11.511c1.104,0,2-0.895,2-2V9.755
			C100.424,5.479,96.945,2,92.668,2 M92.668,6c2.07,0,3.756,1.685,3.756,3.755v64.996h-7.511V9.755C88.913,7.685,90.598,6,92.668,6
			 M88.913,78.751h7.511v11.406h-7.511V78.751z"/>
		<path fill="#F1F2F2" d="M67.363,118.74c4.219-14.891,10.713-25.925,25.031-25.925s22.127,11.583,26.127,25.925H67.363z"/>
		<path fill="#D1D3D4" d="M114.077,111.96c-0.792-1.89-1.656-3.621-2.586-5.2c-5.151,3.137-38.392,5.2-38.392,5.2H114.077z"/>
		<path fill="#F1F2F2" d="M36.777,100.151h25.088c4.063,0-6.246-13.146-10.311-13.146H36.777c-4.064,0-7.39,2.958-7.39,6.572
			C29.388,97.193,32.713,100.151,36.777,100.151"/>
		<path fill="#D1D3D4" d="M60.797,99.263h0.011H60.797z M34.209,97.6c0.765,0.354,1.64,0.553,2.568,0.553H60.42
			c-0.689-1.38-2.23-3.432-3.877-5.243C54.576,95.788,36.82,97.537,34.209,97.6"/>
		<line fill="#FFFFFF" x1="27.195" y1="93.254" x2="26.684" y2="93.254"/>
		<path fill="#F7A848" d="M59.953,90.692c-1.881-2.123-5.473-5.686-8.398-5.686H36.777c-4.326,0-7.967,2.689-9.053,6.329
			c-0.169-0.047-0.345-0.08-0.529-0.08h-0.512c-1.104,0-2,0.896-2,2c0,1.104,0.896,2,2,2h0.512c0.127,0,0.25-0.015,0.369-0.038
			c0.84,3.945,4.649,6.934,9.213,6.934h25.088c1.084,0,1.759-0.453,2.134-0.835c0.364-0.368,0.797-1.026,0.797-2.062
			C64.796,96.383,61.089,91.975,59.953,90.692 M36.777,98.15c-2.973,0-5.39-2.051-5.39-4.571c0-2.522,2.417-4.573,5.39-4.573h14.775
			c1.928,0.064,7.374,6.168,8.864,9.145H36.777z"/>
		<path fill="#F7A848" d="M136.715,155.093h-7.343c-0.828,0-1.5-0.672-1.5-1.5c0-0.827,0.672-1.5,1.5-1.5h7.343
			c0.828,0,1.5,0.673,1.5,1.5C138.215,154.421,137.543,155.093,136.715,155.093"/>
		<path fill="#F7A848" d="M145.503,161.088h-15.457c-0.828,0-1.5-0.672-1.5-1.5c0-0.827,0.672-1.5,1.5-1.5h15.457
			c0.828,0,1.5,0.673,1.5,1.5C147.003,160.416,146.331,161.088,145.503,161.088"/>
		<path fill="#F7A848" d="M156.401,161.088h-6.374c-0.828,0-1.5-0.672-1.5-1.5c0-0.827,0.672-1.5,1.5-1.5h6.374
			c0.828,0,1.5,0.673,1.5,1.5C157.901,160.416,157.229,161.088,156.401,161.088"/>
		<path fill="#F7A848" d="M60.807,140.383h-3.861c-0.828,0-1.5-0.673-1.5-1.5c0-0.828,0.672-1.5,1.5-1.5h3.861
			c0.83,0,1.5,0.672,1.5,1.5C62.307,139.71,61.637,140.383,60.807,140.383"/>
		<path fill="#F7A848" d="M62.796,134.023h-5.651c-0.828,0-1.5-0.672-1.5-1.5c0-0.827,0.672-1.5,1.5-1.5h5.651
			c0.829,0,1.5,0.673,1.5,1.5C64.296,133.352,63.625,134.023,62.796,134.023"/>
		<path fill="#F7A848" d="M52.961,140.383h-0.006c-0.829,0-1.5-0.673-1.5-1.5c0-0.828,0.671-1.5,1.5-1.5
			c0.828,0,1.503,0.672,1.503,1.5C54.458,139.71,53.79,140.383,52.961,140.383"/>
		<path fill="#F7A848" d="M129.683,148.716h-1.008c-0.828,0-1.5-0.672-1.5-1.5c0-0.827,0.672-1.5,1.5-1.5h1.008
			c0.828,0,1.5,0.673,1.5,1.5C131.183,148.044,130.511,148.716,129.683,148.716"/>
		<path fill="#F7A848" d="M133.604,165.325l-13.155-47.122c0-0.001-0.001-0.001-0.001-0.002c-0.457-1.64-0.967-3.183-1.502-4.679
			c-0.035-0.176-0.1-0.34-0.178-0.496c-5.339-14.544-14.375-22.21-26.373-22.21c-16.995,0-23.328,14.596-26.941,27.333
			l-15.339,47.096c-0.198,0.607-0.093,1.274,0.283,1.794c0.376,0.518,0.978,0.824,1.619,0.824h79.66
			c0.625,0,1.215-0.293,1.593-0.791C133.648,166.573,133.771,165.927,133.604,165.325 M70.321,115.918h45.232
			c0.093,0.276,0.192,0.54,0.283,0.822h-45.79C70.137,116.457,70.231,116.195,70.321,115.918 M92.395,94.815
			c9.632,0,16.895,5.751,21.666,17.103H71.75C76.438,100.025,82.845,94.815,92.395,94.815 M117.996,163.862
			c0-0.146-0.013-0.296-0.047-0.444l-3.361-14.651c-0.246-1.076-1.321-1.745-2.396-1.502c-1.076,0.247-1.749,1.321-1.502,2.397
			l3.258,14.2h-12.4c0-0.078,0.005-0.155-0.004-0.235l-1.267-10.558c-0.132-1.096-1.116-1.878-2.224-1.747
			c-1.098,0.132-1.879,1.128-1.748,2.225l1.236,10.315H71.705l4.076-13.399c0.321-1.057-0.275-2.174-1.332-2.495
			c-1.054-0.323-2.173,0.275-2.494,1.331l-4.432,14.563H54.771l14.044-43.122h48.188l12.04,43.122H117.996z"/>
	</g>
</g>
</svg>
