<?xml version="1.0" encoding="utf-8"?>
<!-- Generator: Adobe Illustrator 15.1.0, SVG Export Plug-In . SVG Version: 6.00 Build 0)  -->
<!DOCTYPE svg PUBLIC "-//W3C//DTD SVG 1.1//EN" "http://www.w3.org/Graphics/SVG/1.1/DTD/svg11.dtd">
<svg version="1.1" id="Layer_1" xmlns="http://www.w3.org/2000/svg" xmlns:xlink="http://www.w3.org/1999/xlink" x="0px" y="0px"
	 width="200px" height="192px" viewBox="0 0 200 192" enable-background="new 0 0 200 192" xml:space="preserve">
<path fill="#FFFFFF" d="M197.186,93.21c0.627-3.487-3.727-2.62-5.148-4.367c-0.621-8.725-1.996-17.451-4.112-25.743
	c-2.737-4.654-3.544-10.037-6.43-14.547c0.998-1.742,3.562-2.031,4.401-3.775c0.391-1.743,0.762-4.071-1.236-4.944
	c-2.516-2.475-5.299-0.007-7.854,0.426c-3.781-4.22-6.09-9.313-10.468-13.245c2.062-1.597,4.71-3.628,4.293-6.828
	c-0.343-1.019-0.719-3.053-2.374-2.766c-3.876-2.621-5.632,3.193-9.593,2.462l-4.528-3.934c1.018-1.161,2.174-2.613,1.354-4.359
	c-1.438-6.253-6.673-0.298-10.161-0.594c-13.73-7.29-29.16-11.38-45.785-10.819C95.578-0.701,92.501,2.058,88.664,0.6L67.979,5.953
	c-13.255,5.799-26.803,11.888-36.542,22.928c-1.492,0.579-2.667,1.596-2.911,3.195c-8.418,5.659-11.838,15.687-17.917,23.242
	c-1.221,3.922-3.667,7.409-4.734,11.334c-2.749,3.485-1.337,9.014-4.695,12.352c-1.009,1.453-2.135,3.778,0.184,5.089
	c2.141,4.801-2.579,8.139-0.131,13.087c0.372,6.11-0.351,11.196,1.975,16.867c1.379,8.874,4.853,17.021,8.611,24.73l-0.309,3.927
	c1.263,1.456,3.104,2.185,4.65,3.058c2.014,1.312,1.947,3.639,1.729,5.967c0.975,1.892,3,3.494,5.418,3.351
	c6.143,6.696,12.834,11.794,20.122,16.603c3.743,3.059,8.621,4.084,12.521,7.286c1.392,0.871,3.496,0.438,4.752,1.749
	c6.153,2.771,12.859,4.092,19.424,5.697c3.103-2.033,5.38,2.331,8.333,0.3c-1.983-0.438-4.452-1.749-6.885-2.046l-0.478-0.729
	c3.105-1.883,6.991,0.883,10.099-1.004c3.07,1.17,6.232,0.732,9.417,1.028c1.291,2.187,3.902,3.206,5.777,4.953
	c2.551-0.724,5.473,0.586,7.699-0.574c2.428,0.151,4.18-1.59,6.314-1.151c2.185-2.322,6.002-1.301,8.687-2.461
	c3.224-2.905,7.418-4.062,10.808-6.528c0.864-1.162,3.472-0.289,3.697-2.323c5.676-2.027,9.605-6.386,15.131-8.413
	c1.639-0.725,2.03-2.327,3.983-2.759c1.817-4.068,6.635-4.789,9.089-7.982c3.421-1.744,3.398-6.539,6.96-8.425
	c2.843-5.09,6.302-9.882,7.753-15.696c0.641-3.196,3.227-6.975,0.844-10.176l2.221-1.308c1.878-2.47-0.049-5.524-0.738-7.853
	c0.592-4.509,2.264-8.576,2.553-13.084C192.948,97.422,198.4,97.575,197.186,93.21 M10.749,121.766
	c-1.145-2.328-2.454-5.096-2.09-7.562l2.6,0.73C9.688,117.549,15.548,120.607,10.749,121.766 M17.546,129.771l-2.143,3.485
	c-1.115-1.452-2.532-3.058-2.606-5.095C14.519,129.766,17.877,126.425,17.546,129.771 M23.265,145.627
	c-0.604,0-1.533-0.584-1.106-1.312c0.276-0.726,1.153-1.597,2.222-1.303C25.785,144.18,24.622,145.486,23.265,145.627
	 M19.733,52.422l-0.455-0.002c0.564-1.162,1.126-2.326,2.16-3.05C22.701,50.824,20.928,51.987,19.733,52.422 M78.342,8l3.599-0.867
	c-0.833,2.034-4.501,1.014-5.645,2.901H75.54C75.013,7.997,77.46,8.729,78.342,8 M72.992,110.793l-1,1.6l-7.126,3.771
	C66.9,113.84,70.177,112.389,72.992,110.793 M48.688,70.631c-2.045,2.033-4.85,3.919-7.252,4.499
	C43.022,72.952,46.491,72.664,48.688,70.631 M25.182,44.139c0.557-1.308,1.251-3.053,2.775-2.759
	C28.181,43.417,26.053,43.122,25.182,44.139 M47.426,169.359c-4.686-4.075-11.147-6.996-14.823-12.379
	c2.134,0.437,4.597,1.604,6.513,0.152c2.467,1.312,1.859,5.385,5.361,5.969c2.395-0.726,4.706,0.441,6.418,1.752
	C49.748,166.6,49.531,168.923,47.426,169.359 M43.759,130.824c-0.303,0-0.75,0.142-0.768-0.293
	c4.546-4.066,10.302-7.984,15.817-10.305c1-1.598,3.094-2.32,4.876-3.19C57.365,122.114,50.578,126.904,43.759,130.824
	 M68.636,178.4c0.022,0.58,0.49,1.018,0.366,1.744c-3.512-0.877-7.927-1.607-10.159-4.812c1.338-0.577,3.108-1.889,4.662-0.723
	c2.487,1.75,4.178-1.596,6.794-0.428C68.358,174.909,68.88,176.801,68.636,178.4 M71.459,139.436
	c-1.809,0.144-2.002,3.197-3.996,2.469c0.104-1.311,1.769-1.311,2.645-2.18c6.901-5.808,15.523-10.013,22.91-14.947
	c0.907,0,1.315-1.307,2.39-0.869C88.515,129.859,79.301,134.502,71.459,139.436 M99.55,121.297c0.996-1.746,3.261-1.889,4.737-2.902
	C103.134,119.99,101.178,120.279,99.55,121.297 M109.643,115.782c-2.136-0.438-2.656,1.889-4.621,2.03
	c4.402-3.774,9.304-6.386,14.199-8.998L109.643,115.782z M124.104,105.771c0.267-1.164,2.65-2.035,3.854-2.324
	C126.779,104.464,125.924,105.918,124.104,105.771 M127.605,60.408h-0.457c0.422-0.872,1.465-1.306,2.519-1.451
	C129.55,59.829,128.501,60.119,127.605,60.408 M122.075,12.274c-1.362-0.001-0.371-1.891-1.011-2.764
	c-0.967-1.601-3.541-1.75-4.871-0.878l-11.164,5.076c-0.346-1.164,1.463-1.308,1.574-2.472c-0.064-1.744,0.907-4.067-1.246-5.089
	c-1.84-0.73-3.935-0.005-5.419,0.719c-0.428,0.727-1.002,1.599-1.927,1.162c-0.331-0.873-0.536-2.328,0.048-2.91
	c11.16-1.005,21.38,1.19,31.173,4.257C128.609,13.154,123.953,9.804,122.075,12.274 M134.705,55.909
	c0.423-0.724,1.459-1.451,2.521-1.305C136.648,55.33,135.756,55.766,134.705,55.909 M139.089,14.185l-4.021,1.741
	c0.113-1.017,0.353-2.763,1.064-3.924C137.213,12.438,139.343,12.877,139.089,14.185 M145.645,23.79
	c-2.146-0.73-3.104,2.033-5.084,1.738l-0.428-3.489c2.025-2.469,5.696-1.447,8.208-3.044c1.382,0.437,2.941,1.749,4.187,2.767
	C150.934,23.651,148.241,24.521,145.645,23.79 M164.714,36.463c-1.2,0.29-0.653-1.31-0.519-1.745l0.402-1.454
	C166.137,33.994,167.298,36.759,164.714,36.463 M172.939,67.153c-0.324-0.582-0.207-1.455,0.23-1.89l7.592-3.48
	c0.172,0.582,0.488,1.018,0.364,1.746C178.285,64.398,175.958,67.012,172.939,67.153 M185.032,91.887
	c-5.31-0.297-0.188-5.233-4.036-6.984c2.836-1.013,0.714-5.379,3.554-6.247C186.062,82.727,186.245,87.817,185.032,91.887"/>
<path fill="#68B54D" d="M76.267,59.576c0.472,0.202,0.992-0.06,1.036-0.599c0.023-2.15-0.408-4.193,0.164-6.146
	c0.626,0.192,1.341,0.609,1.671,0.973c0.233,0.062,0.543,0.12,0.638,0.421c-0.017,0.998,0.669,2.185,0.114,3.139
	c0.325,0.285,0.43,0.738,0.297,1.131c0.397,0.206,0.357,0.821,0.889,0.712c0.683-0.12,1.405-0.852,1.287-1.535
	c-0.233-0.062-0.687,0.041-0.706-0.264c0.615-2.491-0.67-4.715-1.789-6.717c-0.921-0.022-2.059,0.201-2.742,0.321
	c-0.059-0.995-0.875-1.789-0.782-2.79c-0.587-0.809,0.271-4.389-1.839-2.497c0.235,2.595-0.395,6.161,0.772,8.926
	C75.847,56.458,75.262,58.181,76.267,59.576"/>
<path fill="#68B54D" d="M89.522,58.083c0.739-0.43,1.836-0.037,2.388-1.066c0.51-1.72-0.333-2.973-0.803-4.401
	c-0.349-0.669,0.282-1.628-0.371-2.279c-0.535-1.271-1.81-2.038-3.188-2.029c-0.917,0.053-1.321,1-2.247,0.903
	c-0.322,1.014-1.791,2.103-1.268,3.146c0.566,0.424,0.926,0.096,1.123-0.454c0.855,0.178,0.346-0.634,1.02-0.905
	c0.989-0.135,1.833-0.111,2.702,0.296c0.329,0.365,0.52,0.965,0.464,1.277l-3.159-0.193c-0.802,0.664-2.04,0.509-2.43,1.683
	c-0.307,1.245-0.462,2.483,0.144,3.596C85.67,59.082,87.583,57.738,89.522,58.083 M88.463,54.542
	c0.535-0.034,0.737,0.798,1.408,0.45c0.289,0.981-0.777,1.121-1.369,1.464c-0.837,0.128-1.61,0.023-2.25-0.4
	C85.934,54.617,87.734,55.198,88.463,54.542"/>
<path fill="#68B54D" d="M67.608,52.126c0.405,0.356,1.255,0.46,1.215,1.075l-1.299,0.079c-1.427,0.472-3.162,0.959-3.286,2.732
	c-0.244,1.011-0.15,2.538,1.25,2.915c1.262,0.537,3.023,0.507,4.295-0.03c0.403,0.358,0.968,0.783,1.469,0.218
	c1.197-1.761,0.404-3.477,0.584-5.559l-2.769-2.67c-1.613-1.281-2.695,1.085-4.238,0.949c-0.44,0.333-0.862,0.974-0.591,1.646
	C65.774,54.766,66.227,52.133,67.608,52.126 M69.823,55.75l0.36,0.898c0.104,0.455-0.169,1.006-0.706,1.041
	c-0.743,0.351-1.468-0.218-2.247-0.399c-0.252-0.37-0.438-0.895,0.165-1.086C68.316,56.225,68.931,54.959,69.823,55.75"/>
<path fill="#68B54D" d="M51.252,60.634c1.467-1.086,0.445-2.787,0.447-4.013c0.649-0.652,0.396-2.325,1.716-2.022
	c1.531,1.21-0.082,3.687,0.717,5.478c-0.283,0.402,0.505,0.737,0.91,1.095c2.375-1.295,0.885-4.348,1.066-6.43
	c0.127-0.469,0.661-0.501,1.042-0.524c0.63,0.27,1.79,0.428,1.316,1.454c0.314,0.136,0.572,0.58,0.282,0.827
	c0.837,1.177-0.708,2.267,0.504,3.268c0.634,0.344,1.494,0.6,2.076,0.103c-0.09-0.225,0.509-0.489-0.041-0.687
	c0.502-0.568,0.159-1.161,0.187-1.93c-0.047-2.068-1.074-3.845-2.172-5.465c-1.295-1.148-2.545,0.999-3.838,1.153
	c-1.551-1.518-3.459-0.097-5.202,0.239c-0.582-0.731-0.922-0.022-1.285,0.307c0.521,2.272,0.326,4.124,0.533,6.256
	C49.914,60.103,50.51,61.062,51.252,60.634"/>
<path fill="#68B54D" d="M37.897,59.221c0.299,1.132,1.488,1.751,1.935,2.799c1.484,0.446,3.385,0.177,4.827-0.063
	c1.315-1.077,1.82-2.872,2.42-4.366c0.335-0.788,0.405-2.172-0.463-2.579c-0.778-1.412-2.445-2.385-4.136-2.435
	c-2.386-0.162-3.871,1.924-4.761,3.664C38.082,57.216,37.237,58.419,37.897,59.221 M43.14,54.608
	c0.706,0.264,1.723,0.585,2.007,1.489c0.046,0.765,0.632,1.573,0.143,2.37c-1.247,0.919-3.071,1.181-4.484,0.655
	c-0.437-0.893-0.268-1.9-0.325-2.819C41.122,55.497,42.061,54.521,43.14,54.608"/>
<path fill="#68B54D" d="M74.513,87.062l-0.124-0.101l0.148-0.243c-0.028-0.284,0.223-0.647-0.08-0.848
	c-1.708,0.619-2.654-0.944-3.954-1.446c-1.233,0.8-1.969,2.064-3.311,2.934c-1.508,0.314-3.258,0.48-4.392-0.665
	c1.972-1.441,4.262-2.511,6.187-3.835c0.119-0.522,0.788-0.075,0.782-0.757c1.639-0.726,3.072-1.829,4.551-3.053
	c0.941-2.083-1.359-3.517-2.655-5.16c-2.85-3.032-7.016-3.092-11.05-2.995c-3.214,0.932-5.792,2.602-7.926,5.309
	c0.255-0.309-0.341-0.592-0.08-0.846c-0.434-0.358,0.144-0.867-0.271-1.057c-0.096-1.017-0.421-1.439-0.123-2.495l-0.174-0.041
	c-0.054-0.564-0.368-0.876-0.015-1.366c-0.393-0.531-0.013-1.308-0.398-1.785c0.432-0.838,0.105-1.889,0.329-2.537l-0.102,0.123
	c-0.067-0.107-0.237-0.091-0.198-0.266c-0.014-0.169,0.216-0.134,0.28-0.084c-0.184-0.723,0.279-1.848-0.65-2.044
	c-1.609,1.062-3.875,0.595-5.282,1.355c-0.977-0.078-2.09,0.201-3.029,0.516c-0.309-0.257-0.679,0.064-0.933,0.374
	c-0.156,0.754,0.003,1.823,0.185,2.546c-0.072,2.227-0.192,4.573-0.04,6.782c-1.691,0.787-3.587,1.822-5.228,1.919
	c-1.194-2.962-0.88-6.865-2.474-9.847c0.229-0.591-0.182-0.722-0.293-1.283c-0.591-0.226-1.017,0.098-1.262,0.522
	c-1.886,0.518-3.685,1.373-5.532,1.72c-0.625,0.001-1.385,0.416-2.156,0.089c-0.21,0.192-0.611,0.172-0.753,0.471
	c-0.346,1.742,0.037,3.358,0.077,5.006c1.775,7.294,1.974,14.792,3.134,22.201c0.008,0.683-0.102,1.321,0.301,1.968l3.016-0.629
	c2.479-0.293,5.001-0.703,7.696-1.132c0.373-0.261,0.448-0.667,0.399-1.178c0.392-0.093,0.36-0.432,0.513-0.618
	c-0.192-2.031-1.37-3.628-1.169-5.697c0.769-1.499-0.204-3.342-0.395-4.747c1.391-0.36,3.231-0.764,4.64-0.329l0.653,0.281
	c0.363,2.016,0.645,4.383,0.935,6.233l-0.057,0.006c0.13,1.983,0.333,3.5,0.736,5.341c0.027,0.282-0.207,0.817,0.151,1.012
	c3.014-0.059,5.853-2.55,8.86-2.097l0.363-0.374c-0.083-0.846,0.862-1.107,0.658-2.056c0.621-0.062,1.236,1.021,2.034,0.431
	c1.944,0.671,3.912,0.996,6.069,0.906c3.045-0.289,5.881-1.642,8.333-3.413C72.785,89.275,73.341,87.913,74.513,87.062
	 M29.224,96.602c-0.473-0.183-0.301-0.768-0.503-1.087C28.862,95.784,29.628,96.052,29.224,96.602 M30.146,70.94
	c0.099-0.181,0.375-0.265,0.663-0.234c0.194,0.266-0.199,0.303-0.352,0.489L30.146,70.94z M30.68,96.352l0.143-0.3l0.531,0.179
	L30.68,96.352z M34.74,95.909l0.344-1.175c0.371,0.307,0.459,0.643,0.666,1.021L34.74,95.909z M46.265,70.319
	c0.162-0.698-0.384-1.044-0.043-1.647l0.216-0.134c0.409,0.702,0.325,1.621,0.395,2.356C46.149,70.901,46.987,70.137,46.265,70.319
	 M63.227,74.976c0.226-0.022,0.512,0.009,0.539,0.291l-1.621,0.324C62.267,75.066,62.842,75.125,63.227,74.976 M60.753,80.733
	c-0.478-1.435,0.405-2.94,1.516-3.845c1.29-0.805,2.69,0.144,3.833,0.776c-0.189,0.417-0.838,0.765-1.336,0.924
	C63.604,79.552,62.194,80.313,60.753,80.733"/>
<path fill="#68B54D" d="M91.548,69.566c0.435-0.213-0.201-0.323-0.222-0.547c-0.293-0.086-0.368,0.319-0.579,0.51
	c-0.575-0.06-1.314-0.047-1.126,0.733c0.843,0.489-0.2,1.501-0.259,2.076c-1.926-1.071-4.262-2.273-6.751-2.093
	c-1.679-0.296-2.849,1.182-4.475,1.451c-0.556,0.734-1.514,1.452-2.233,2.263c-1.641,3.117-2.081,6.292-1.979,9.755
	c0.443,2.865,2.235,5.544,5.055,7.042c1.529,1.106,3.331,0.877,5.056,1.056c1.625-0.268,2.989-0.911,4.333-1.778
	c0.729-0.127,1.099-1.016,1.844-0.972c0.127,0.727-0.263,1.449,0.034,2.162c1.366-0.018,2.729,0.535,3.911-0.203
	c0.982,0.135,2.221-0.608,2.805,0.135c0.415,0.185,0.811,0.149,1.066-0.16c-0.619-1.138-0.277-2.309-0.676-3.524
	c-0.703-5.002-1.167-10.483,0.322-15.181l0.466-0.502c0.207,1.576,0.51,2.972,0.671,4.666c0.371,2.697,1.077,5.366,1.359,7.73
	c0.26,0.32,0.302,0.77,0.283,1.171c0.247,0.203,0.342,0.595,0.193,0.835l-0.187-0.153l0.065,0.109
	c0.008,0.055-0.044,0.118-0.096,0.178l0.348,0.082l-0.024,0.343c-0.108,0.011-0.131-0.214-0.293-0.085
	c0.7,0.162-0.058,0.574,0.42,0.815c0.032,0.339-0.151,0.185-0.366,0.319c0.68,0.562,0.295,1.909,0.305,2.592
	c0.553,1.03,1.398-0.247,2.34,0.062c1.697-0.73,3.607-1.026,5.58-1.213c0.119-0.58,0.184-1.099-0.139-1.468
	c-0.973-3.609-1.035-7.307-1.082-10.777c-0.567-2.396-0.703-5.629-0.945-8.169c-0.178-1.293,0.617-2.509,0.058-3.594
	c0.106-1.263,0.2-2.697,1.007-3.796l-0.462-0.642c-1.782,0.399-3.356-0.592-5.011-0.606c-1.053-0.297-2.262-0.411-3.273-0.885
	l-0.667,0.177l0.021,0.228c-0.544,0.28,0.02,0.793-0.467,1.071l0.169-0.019c-0.093,2.63-0.034,5.644-0.166,8.448l-1.177,0.225
	l-0.005-0.057C95.075,69.516,93.105,69.761,91.548,69.566 M89.291,85.388c-1.096,0.447-2.417,0.343-3.276-0.315
	c-0.827,0.307-1.588-0.532-1.993-1.177c-1.215-1.993-1.116-4.566-0.751-6.707c0.333-0.716,1.235-0.802,1.807-1.37
	c0.577,0.062,1.26,0.054,1.584,0.477c0.276-0.083,0.479,0.241,0.606,0.397c0.797-0.018,1.131,0.521,1.633,0.985
	c0.163,1.125,0.727,2.267,0.489,3.372C89.813,82.49,89.909,84.076,89.291,85.388"/>
<path fill="#68B54D" d="M169.51,63.359c-2.214,0.723-4.664,1.297-7.195,1.024c-0.57-0.004-0.979-0.079-1.354,0.128
	c-0.229,0.591,0.503,1.092,0.393,1.729c0.543,0.917,0.035,2.161,0.188,3.171c-0.289,3.559,0.136,7.45-1.323,10.666
	c-0.357-1.962-1.078-3.545-1.484-5.443c-0.656-2.103-2.225-3.605-3.908-5.154c-0.948-0.421,0-1.195-0.285-1.795
	c-0.749-0.727-2.035,0.137-2.635-0.775c-0.803,1.158-2.562,1.211-3.735,2.063c-0.758-1.408-1.899-2.609-3.487-3.143
	c-3.062-1.075-6.514,0.391-9.395,1.861c-0.213-1.69,0.285-3.617-0.824-5.104c0.296-1.055-1.132-1.716-0.656-2.729
	c0.014-1.027-1.346-0.955-1.979-0.439c-2.145,0.83-4.35,1.608-6.488,2.44l-0.363,0.377c-0.65,0.344,0.584,0.741-0.131,1.037
	c1.288,2.782,1.932,6.537,2.616,9.548c0.687,4.833,0.59,9.798,1.328,14.569l-0.21,1.388c0.27,0.429,0.191,0.836,0.004,1.254
	l0.584,0.171l2.986-0.341c1.012-0.779,2.306-0.334,3.459-0.783l0.305-0.371c0.41-4.71-0.251-9.263-0.136-14.058
	c0.405-1.121-0.9-2.251,0.288-2.932l1.438-0.478c4.286,1.357,3.642,5.976,4.359,9.327l-0.345,5.384
	c-0.51,0.62-0.269,1.394-0.092,2.004c2.535-0.242,4.598-0.723,7.176-1.193c0.365,0.25,0.892,0.371,1.129-0.109l0.609-4.386
	c0.125-1.664-0.082-3.237,0.221-4.864c1.041,0.756,1.689,1.606,2.621,2.429c1.819,2.333,2.924,4.963,3.588,7.747
	c-0.455,1.24-1.106,2.157-2.039,3.156c-0.385,0.718-1.413,0.705-1.623,1.465c0.541,0.916,1.587-0.037,2.313,0.407
	c1.235-0.176,2.981-0.397,4.146,0.46c0.586,0.17,1.222,0.852,1.823,0.625c0.058-1.203,0.847-1.903,1.074-3.121
	c0.139-0.3,0.639-0.46,0.487-0.844c1.093-2.27,1.89-4.679,2.806-7.045c2.024-5.661,3.73-11.689,3.901-17.688
	c0.075-0.404,0.159-0.699,0.479-0.957C170.432,63.499,169.795,63.388,169.51,63.359 M127.273,66.686
	c0.537,0.86,0.662,2.16,0.875,3.221C127.727,69.036,127.443,67.867,127.273,66.686 M131.826,88.241l0.497,0.407
	C132.066,88.959,131.352,88.627,131.826,88.241 M134.133,68.142c-0.367-0.875,0.11-1.832,0.032-2.679
	C134.32,66.529,134.046,67.239,134.133,68.142 M134.555,88.152l-0.058,0.006c0.046-0.118,0.179-0.531,0.464-0.5
	C135.157,87.923,134.846,88.24,134.555,88.152 M146.096,86.145l-0.05-0.507c0.337-0.089,0.437,0.357,0.729,0.442L146.096,86.145z
	 M147.046,70.333c-0.588-0.798-1.153-1.942-1.86-2.784c0.949,0.42,1.453,1.513,1.938,2.378L147.046,70.333z M148.984,84.163
	l-0.258-2.709l0.44-1.353C149.357,81.506,149.448,83.037,148.984,84.163 M156.669,83.489l-0.367-0.876l0.378,0.419L156.669,83.489z
	 M155.027,91.391l0.309-0.314l0.604,0.342L155.027,91.391z M161.857,90.174c-0.129-0.252,0.072-0.631,0.265-0.882
	c0.01-0.028,0.024-0.05,0.047-0.06c-0.017,0.018-0.033,0.039-0.047,0.06C162.059,89.476,162.186,89.994,161.857,90.174"/>
<path fill="#68B54D" d="M108.367,75.146c0.146,0.328,0.652,0.28,0.938,0.253c0.87-0.996,1.53,0.537,2.555-0.073l0.072,0.165
	c-0.324,1.968,0.863,4.304,0.139,6.253c0.693,1.3,0.717,2.723,1.681,3.884c1.021,1.157,2.049,2.369,3.392,2.696
	c0.514,0.636,1.639,0.472,2.26,0.413c1.061,0.355,2.135-0.316,3.102-0.352l2.518-1.092c0.078-0.352,0.481-0.901,0.937-0.944
	c0.283-0.597,0.31-0.94,0.19-1.558c-0.703-0.217-0.765-1.462-0.941-2.13c-0.332-0.481-0.156-1.067-0.596-1.481
	c-0.709-0.217-0.637,0.516-1.245,0.688c-0.692-0.105-0.988,0.38-1.791,0.341c-0.397-0.018-0.728-0.442-1.099-0.18
	c-0.508-0.521-1.221-0.854-1.299-1.642c-0.812-1.974-0.339-4.186-0.367-6.29c1.23-0.23,2.496-0.123,3.785-0.303
	c1.329,0.161,1.495-1.051,1.817-1.879l-0.179-0.097c0.104-1.89,0.826-3.837,0.643-5.814c-0.339,0.032-0.792,0.074-1.131,0.107
	c-1.671,0.387-3.737,0.812-5.532,1.097l0.154-0.188c0.044-0.687,0.231-1.731,0.213-2.525c0.203-0.248,0.61-0.172,0.567-0.624
	c-0.678-0.562-0.016-1.366,0.031-2.055c-0.035-0.394-0.289-0.654-0.676-0.505c-0.21,0.76-1.182,0.74-1.799,0.855
	c-0.871,0.423-1.877,0.634-2.748,1.059c0.081,0.846-0.857,0.537-1.227,0.913c-1.58,0.72-1.295,2.517-1.33,3.942l-1.797,0.285
	c-0.414-0.131-0.594,0.343-0.896,0.143C107.586,70.493,108.725,72.891,108.367,75.146"/>
<path fill="#68B54D" d="M147.717,116.27c0.984-1.009,1.268-2.23,1.245-3.651c-0.237-2.542-1.637-5.254-4.176-6.21
	c-2.124-1.34-4.745-1.375-6.925-2.702c-0.27-0.433-0.156-1.071,0.269-1.396c1.349-0.811,3.001-0.795,4.312-0.18
	c1.164,0.229,2.338,0.635,2.959,1.768c0.312,0.258,0.466,0.07,0.729-0.125l1.498-5.213l-0.339-0.595
	c-0.688-0.047-0.578-0.687-1.018-1.099l-0.211,0.189l-3.248-0.603c-0.381,0.149-0.688-0.679-1.033-0.132
	c-1.484-0.029-2.774,0.208-4.077,0.276c-0.472,0.441-0.597-0.288-1.011,0.152c-0.623,0.628-1.588,0.093-2.215,0.667
	c-1.057-0.3-1.812,0.737-2.851,0.608c-1.733,0.908-3.728,2.121-4.694,3.92c-0.685,0.578-0.303,1.625-0.564,2.449
	c0.518,1.83,0.928,3.781,2.529,5.058c0.383,0.418,0.965,0.534,1.5,0.767c0.457,0.016,0.522,0.746,0.949,0.422
	c1.432,0.664,3.002,1.024,4.313,1.644c0.866,0.146-0.146,0.866,0.303,1.396c0.59,0.229,0.812-0.476,1.245-0.688l0.885,0.939
	c0.501-0.16,0.872,0.146,1.135,0.52l-0.102,0.125c-1.309,0.066-2.736,1.171-4.234,0.97c-1.82-0.565-4.537-0.362-5.033-2.601
	c-0.129-0.728-0.746-0.036-0.976-0.076c-0.146,1.494-0.879,2.763-2.104,3.678c-1.15-4.334-1.912-8.763-1.84-13.383
	c-0.096-3.409-0.181-6.706,0.186-10.043c0.161-0.7,0.943-1.456,0.37-2.085c-0.401-0.076-0.866-0.146-1.112,0.275
	c-1.246,0.061-2.327-0.52-3.561-0.287c-0.754-0.156-1.59-0.589-2.493-0.504c-0.878,0.368-2.146,0.204-2.767,0.888
	c-0.094,3.197,0.604,6.324,0.403,9.646c-1.771-1.258-4.163-1.258-6.239-0.947c-0.479,0.389-1.09,0.559-1.586,0.719
	c-1.037-0.127-1.662,1.07-2.435,1.369c-0.92,0.49-0.843,1.338-1.573,2.031c-1.936,3.604-2.305,8.078-1.316,11.918
	c0.683,2.951,3.209,4.992,5.697,6.578c0.248,0.262,0.784-0.133,0.883,0.314c0.385-0.15,0.719,0.388,1.082,0.01
	c2.104,0.542,4.694,0.239,6.51-1.018c1.025-0.605,1.918-0.807,2.8-1.744c0.438,0.413,0.091,0.96,0.473,1.377
	c0.722,0.39,1.089-0.557,1.841-0.398c0.166-0.076,0.313,0.312,0.457,0.01c1.004,0.359,1.754-0.734,2.729-0.086
	c0.812-0.42,1.795-0.285,2.595-0.25c0.42-0.377,0.25-0.986,0.218-1.326c-0.406-0.074-0.578-0.688-0.441-1.043l2.359,1.429
	c1.934-0.011,3.827,1.346,5.951,0.917c2.494-0.124,5.021,0.094,7.374-0.928c1.069-0.729,2.479-0.918,3.159-2.125
	C146.773,117.154,147.677,117.066,147.717,116.27 M128.375,106.371c-0.339,0.031-0.324-0.424-0.355-0.764
	C128.164,105.934,128.736,105.938,128.375,106.371 M115.048,104.561l0.437,0.414c-0.668-0.449-1.568-0.935-2.408-0.8
	C113.688,104.062,115.041,103.309,115.048,104.561 M114.549,122.096c-1.791,0.34-3.512,0.219-5.098-0.257
	c0.703-0.411,1.635,0.415,2.471,0.218c1.284-0.291,2.791-0.035,4.053-0.496C115.669,121.928,114.995,121.997,114.549,122.096
	 M116.777,115.618c-0.641,0.399-1.44,0.422-2.125,0.371c-1.532-0.537-3.18-1.69-3.354-3.497c-0.094-0.96-0.451-1.78-0.258-2.709
	c-0.209-1.006,0.375-2.03,0.508-3.069c0.311-0.313,0.703-0.978,1.223-0.913c0.773-0.871,1.662,0.129,2.236,0.756
	c0.844,2.256,1.038,4.346,1.776,6.727C116.872,114.184,117.562,114.857,116.777,115.618 M117.758,91.712
	c0.215-0.133,0.6-0.282,0.896-0.14C118.438,91.705,118.111,91.852,117.758,91.712 M120.822,119.791l0.089-0.24
	c0.337-0.084,0.544,0.293,0.782,0.439C121.537,120.12,120.77,120.422,120.822,119.791 M123.215,92.219l0.977,0.078
	c-0.119,0.524-0.174,1.156-0.549,1.42C122.939,93.5,123.488,92.707,123.215,92.219 M123.928,98.533
	c0.047,1.076,0.15,2.148-0.104,3.083l-0.202-0.321C123.531,100.334,123.732,99.464,123.928,98.533 M123.732,101.857
	c0.76,1.976,0.057,4.207,0.537,6.271c-0.312-0.312-0.231-1.231-0.218-1.688C123.854,104.917,123.598,103.404,123.732,101.857
	 M124.311,109.719c-0.162-0.5-0.269-1-0.082-1.474c0.156,1.065,0.275,2.31,0.547,3.364
	C124.122,111.331,124.316,110.4,124.311,109.719 M125.88,117.884c-0.83-1.571-0.67-3.468-1.293-5.231l0.224-0.646
	c0.17,1.808,0.86,3.054,0.916,4.869C126.038,117.129,125.799,117.605,125.88,117.884"/>
<path fill="#68B54D" d="M91.482,124.791c-0.271-2.88-1.465-5.839-3.389-8.105c-1.115-1.547-2.997-2.166-4.623-3.094l2.248-2.72
	l1.612-2.83c1.008-1.976,2.259-3.806,3.209-5.771c0.1-0.754,0.651-1.547,0.35-2.314c-0.738,0.016-1.603-0.074-2.263,0.158
	c-2.073,0.367-3.885-0.713-5.791-0.989c-0.873-0.2-1.126,0.733-1.474,1.282c-1.34,2.062-1.95,4.629-2.996,6.834
	c-1.042,1.011-1.233,1.996-2.035,3.156c-0.769,0.3-0.719,1.435-1.565,1.517c-0.116-0.617-0.272-1.685,0.439-1.979
	c0.064-0.519-0.192-0.836-0.622-1.141c-0.482-2.688-1.494-6.12-0.858-9.029c-0.03-0.34-0.346-0.647-0.746-0.672
	c-2.267,0.729-4.446,1.791-6.939,1.914c-0.498,0.16-0.795,0.646-1.43,0.536c-1.005,0.206-0.488,1.472-0.325,1.967
	c0.811,2.544,0.544,5.132,0.959,7.712c0.184,4.938,0.345,10.223,0.421,15.229c-0.296,0.48,0.333,1.104-0.199,1.499
	c0.291,0.655,1.042,0.185,1.504,0.258c2.053-0.599,3.8-0.19,5.913-0.731c0.546,0.346,1.721,0.121,2.156-0.095
	c0.166,0.556,0.569,0.004,0.791-0.073c-0.191-0.211,0.249-0.363,0.17-0.588c-0.761-2.031-0.074-4.378-0.615-6.49
	c1.068-0.729,2.409-1.026,3.333-2.084c2.697,1.398,3.741,4.602,3.495,7.418l0.351,0.707c-0.332,0.088-0.187,0.416-0.284,0.594
	c0.084,0.279,0.34,0.598,0.617,0.511c0.98-0.487,2.756-0.374,3.837-0.987c1.259,0.051,2.838-0.725,4.041-0.043
	c0.507-0.047,0.641-0.46,0.89-0.824C91.588,125.295,91.895,124.923,91.482,124.791 M69.737,126.744l0.268-0.197l0.924,0.141
	L69.737,126.744z M73.885,120.025l0.164-0.069c0.223,0.546,0.406,1.271,0.356,1.96L73.885,120.025z"/>
<path fill="#68B54D" d="M92.092,108.162c2.289-0.499,4.467-0.936,6.623-1.023c0.498-0.162,1.291,0.389,1.565-0.32
	c0.085-0.293,0.15-0.813-0.047-1.076c0.062-1.775-0.306-3.846,0.63-5.358c-0.135-0.215-0.391-0.53-0.672-0.507
	c-2.063,0.48-4.305,0.865-6.343,1.001c-0.711,0.295-1.725-0.176-2.209,0.726c-0.208,2.012,0.278,4.133-0.109,6.049
	C91.557,107.93,91.759,108.251,92.092,108.162 M98.999,105.914c-0.301,0.429-1.035,0.496-1.501,0.372l-0.063-0.054
	C98.102,106.057,98.321,105.979,98.999,105.914"/>
<path fill="#68B54D" d="M103.021,126.663c-0.25-0.205-0.071-0.731-0.311-0.826c-0.082-1.471-0.718-2.774-0.738-4.201
	c0.178-0.526,0.506-1.241-0.104-1.698c-0.593-3.248-1.429-6.643-1.678-9.863l0.255-0.312c0.403-0.551-0.302-0.768-0.554-1.027
	c-0.471,0.442-1.18,0.168-1.42,0.646c-1.956-0.211-3.101,0.354-4.898,0.582c-0.775,0.242-1.61-0.76-1.96,0.355
	c1.214,4.384,1.713,9.062,2.847,13.8c-0.261,0.253-0.725,0.752-0.575,1.139c0.064,0.677,1.055,0.92,0.602,1.535
	c0.637,1.308,0.685,3.013,0.927,4.354c1.027,0.02,1.911-0.863,3.057-0.805c1.54,0.025,2.936-0.275,4.243-0.283
	c0.425-0.328,1.207-0.516,1.188-1.312C103.129,128.421,103.135,127.279,103.021,126.663 M94.591,119.491l-0.413-1.956
	c0.4,0.018,0.448,0.527,0.587,0.8c-0.192,0.36-0.042,0.742,0.052,1.132L94.591,119.491z M98.463,110.464l0.045-0.116
	c0.144,0.327,0.667-0.18,0.653,0.276L98.463,110.464z"/>
<path fill="#68B54D" d="M127.818,127.877c0.73-0.377,1.332-1.357,1.093-2.259c-0.539-0.794-1.324-0.183-2.046-0.5
	c-0.635,0.601-0.262,1.337-0.432,1.967C126.63,127.529,127.111,128.561,127.818,127.877"/>
<path fill="#68B54D" d="M117.236,126.576c-0.411-0.271-0.889-0.457-1.354-0.488c-0.515,0.279-0.868,0.541-0.729,1.219
	c0.603,3.102,1.177,6.736,1.018,9.905c0.156,0.828-0.396,1.5,0.195,2.056l0.824-0.23c0.73-0.378-0.088-0.912,0.334-1.338
	C117.189,134.191,117.182,130.042,117.236,126.576"/>
<path fill="#68B54D" d="M122.546,127.454c-0.513-0.568-0.31-1.662-1.168-1.81c-1.489,0.523-0.422,2.039-0.772,3.224
	c0.735,2.854,0.215,6.284,1.604,8.769c0.429-0.345,0.632,0.168,1.138-0.186c0.504-0.357-0.322-0.969-0.228-1.592
	C122.551,133.143,122.344,130.163,122.546,127.454"/>
<path fill="#68B54D" d="M147.164,126.729c-0.996,0.02-2.628-0.131-3.214,1c-0.505-0.492,0.045-2.004-1.224-1.578
	c-1.777,1.559-0.066,4.162-0.262,6.18c0.992,0.753,0.36,2.193,1.416,2.788c0.704,0.085,0.54-0.822,1.086-0.72
	c0.348-2.031-1.438-4.633,0.512-5.972c0.537-0.05,1.109,0.357,1.565,0.314c0.272,0.437,0.704,0.933,0.513,1.335
	c1.168,0.968,1.036,2.824,1.317,4.18c0.483,0.266,1.16,0.047,1.508-0.371c0.14-0.939-0.016-1.768-0.171-2.598
	C149.365,129.674,149.074,127.396,147.164,126.729"/>
<path fill="#68B54D" d="M140.245,133.232c0.062-1.773,0.026-3.771-0.88-5.225l-1.313-0.876c-2.116-0.416-3.644,0.503-5.831,0.941
	c-0.525,0.124-1.152,0.799-0.707,1.448c-0.125,0.32-0.318,0.726-0.629,0.676c-0.09,0.701-0.08,0.978,0.863,0.973
	c0.534-0.002,3.17-3.029,4.318-1.498c-3.623,0.941-3.739,2.771-3.797,3.78c0.475,0.953-0.062,2.614,1.369,3.098
	c1.744-0.245,2.99-0.897,4.467-1.577c0.689,0.012,1.748,0.604,2.422-0.385C140.874,134.171,140.792,133.332,140.245,133.232
	 M135.393,134.768l-0.906,0.164c-0.399-0.961-0.379-2.35,0.375-3.342c1.023-0.557,1.597,0.617,2.464,0.842
	C137.287,133.667,136.453,134.591,135.393,134.768 M136.195,129.462c0.557,0.181,1.145-0.104,1.521,0.629l0.021,0.226
	C137.143,130.527,136.538,129.816,136.195,129.462"/>
<path fill="#68B54D" d="M167.539,129.948c-0.256-0.28-0.604,0.133-0.721-0.317c-0.284,0.258-0.51,1.128-0.92,0.858l0.084,0.069
	l-0.14,0.164c-1.073,0.024-2.282,0.217-2.829-0.652l4.439-1.034c0.361-0.192,0.092-0.624,0.139-0.938
	c-0.898-1.373-1.273-3.724-3.424-3.675c-1.986,0.112-3.2,1.918-3.744,3.511c-0.486,0.506,0.217,1.439-0.599,1.748
	c-0.193,0.403,0.292,0.664,0.69,0.856c0.506,1.26,1.691,1.61,2.764,2.353c1.756,0.68,3.279-1.082,4.578-1.974
	C167.979,130.52,167.863,130.148,167.539,129.948 M162.979,126.458c0.432-0.345,1.121-0.335,1.679-0.156l1.062,1.435l-0.059,0.236
	c-1.012-0.133-2.123,0.276-3.236-0.076C162.145,127.387,162.71,126.868,162.979,126.458"/>
<path fill="#68B54D" d="M155.65,131.076c-0.476-0.952-0.476-2.569,0.117-3.626c0.488-0.507,1.226-0.039,1.711-0.624
	c1.072-1.641-1.144-0.657-1.688-1.53c-0.116,0.396-0.736,0.302-1.061,0.179l-1.187,1.268c-0.983,1.783-1.565,3.766-0.53,5.742
	c0.726,1.16,2.18,1.1,3.299,1.531c0.896-0.238,2.121-0.279,2.252-1.367C157.496,131.9,156.293,132.168,155.65,131.076"/>
<path fill="#68B54D" d="M108.663,130.234c-1.288,0.199-2.659,1.175-3.073,2.442c1.242,0.957,1.998-0.806,3.135-0.987
	c0.731,0.391,1.855,0.897,1.941,1.812l-1.082-0.051c-1.385-0.024-2.604,0.938-3.355,1.932c-0.254,1.332-0.543,2.359,0.33,3.432
	c0.881,0.379,1.732,1.3,2.689,0.818c1.156-0.798,2.2-1.13,3.482-0.56c0.832-0.156,0.838-0.925,1.09-1.488
	c-0.57-1.174-0.246-2.591-0.68-3.935C112.064,132.064,110.844,129.721,108.663,130.234 M108.781,137.143
	c-0.314-0.049-1.073,0.026-1.057-0.591c0.023-0.543,0.586-1.136,1.02-1.407c0.964-0.396,1.596,0.617,2.188,1.181
	C110.534,136.977,109.619,137.062,108.781,137.143"/>
<path fill="#68B54D" d="M127.934,129.096c-0.371-0.656-1.056-0.594-1.539-0.007c-0.268,2.022,1.199,3.729,1.236,5.724l-0.49,0.506
	c-0.254,0.564,0.314,0.897,0.367,1.431c0.375,0.731,1.207,0.578,1.46,0.019l-0.081-0.07c0.062-0.161,0.604-0.137,0.34-0.492
	C129.006,133.914,128.091,131.54,127.934,129.096"/>
</svg>
