<?xml version="1.0" encoding="utf-8"?>
<!-- Generator: Adobe Illustrator 15.1.0, SVG Export Plug-In . SVG Version: 6.00 Build 0)  -->
<!DOCTYPE svg PUBLIC "-//W3C//DTD SVG 1.1//EN" "http://www.w3.org/Graphics/SVG/1.1/DTD/svg11.dtd">
<svg version="1.1" id="Layer_1" xmlns="http://www.w3.org/2000/svg" xmlns:xlink="http://www.w3.org/1999/xlink" x="0px" y="0px"
	 width="200px" height="200px" viewBox="0 0 200 200" enable-background="new 0 0 200 200" xml:space="preserve">
<g>
	<polygon fill="#B0CFE8" points="164.979,107.384 88.773,71.043 46.29,101.09 46.29,115.021 46.29,165.794 164.979,165.794 
		164.979,114.662 	"/>
	<g>
		<path fill="#F1F2F2" d="M197,165.977H3c0,0,49.891,14.699,97,14.699C147.11,180.676,197,165.977,197,165.977"/>
		<path fill="#1C75BC" d="M11.993,167.959H3c-1.105,0-2-0.896-2-2c0-1.104,0.895-2,2-2h8.993c1.104,0,2,0.896,2,2
			C13.993,167.062,13.098,167.959,11.993,167.959"/>
		<path fill="#1C75BC" d="M22.216,167.959h-3.515c-1.104,0-2-0.896-2-2c0-1.104,0.896-2,2-2h3.515c1.104,0,2,0.896,2,2
			C24.216,167.062,23.32,167.959,22.216,167.959"/>
		<path fill="#1C75BC" d="M182.082,167.959H27.93c-1.105,0-2-0.896-2-2c0-1.104,0.895-2,2-2h154.152c1.104,0,2,0.896,2,2
			C184.082,167.062,183.186,167.959,182.082,167.959"/>
		<path fill="#1C75BC" d="M197,167.959h-9.378c-1.104,0-2-0.896-2-2c0-1.104,0.896-2,2-2H197c1.104,0,2,0.896,2,2
			C199,167.062,198.104,167.959,197,167.959"/>
		<path fill="#1C75BC" d="M180.993,112.811l-91.36-43.573c-0.653-0.31-1.424-0.245-2.014,0.173l-62.266,44.038
			c-0.9,0.638-1.115,1.885-0.479,2.788c0.391,0.551,1.008,0.845,1.636,0.845c0.399,0,0.802-0.119,1.153-0.367l16.627-11.761v60.859
			c0,1.104,0.896,2,2,2h118.688c1.104,0,2-0.896,2-2V110.56l12.292,5.862c0.997,0.471,2.188,0.054,2.667-0.944
			C182.412,114.48,181.99,113.286,180.993,112.811 M162.979,163.812H48.291v-61.688l40.68-28.771l74.008,35.299V163.812z"/>
		<rect x="63.883" y="119.05" fill="#E6E7E8" width="26.926" height="46.763"/>
		<path fill="#1C75BC" d="M90.809,167.812H63.883c-1.104,0-2-0.896-2-2v-46.762c0-1.104,0.896-2,2-2h26.926c1.104,0,2,0.896,2,2
			v46.762C92.809,166.917,91.913,167.812,90.809,167.812 M65.883,163.812h22.926v-42.762H65.883V163.812z"/>
		<rect x="106.184" y="118.834" fill="#E6E7E8" width="44.509" height="25.238"/>
		<path fill="#1C75BC" d="M150.691,146.072h-44.508c-1.104,0-2-0.896-2-2v-25.238c0-1.104,0.896-2,2-2h44.508c1.104,0,2,0.896,2,2
			v25.238C152.691,145.177,151.796,146.072,150.691,146.072 M108.184,142.072h40.509v-21.238h-40.509V142.072z"/>
		<path fill="#1C75BC" d="M68.878,73.443h-16.89c-1.104,0-2,0.896-2,2V97.06c0,1.104,0.896,2,2,2s2-0.896,2-2v-1.414l13.26-9.378
			c0.363,0.511,0.956,0.847,1.63,0.847c1.104,0,2-0.896,2-2v-9.671C70.878,74.339,69.982,73.443,68.878,73.443"/>
		<path fill="#8DBADD" d="M140.778,146.124c-0.405,0.069-0.795,0.254-1.117,0.555l-12.182,11.352l-0.003-0.004
			c-0.828-0.827-2.16-0.854-3.021-0.06l-6.312,5.835h24.659l6.744-7.238c0.305-0.328,0.488-0.726,0.555-1.136
			c0.009,0.006,0.018,0.012,0.027,0.019c3.951,2.635,8.323,4.355,12.865,5.152v-12.915C162.994,147.684,152.898,147,140.778,146.124
			"/>
		<path fill="#1C75BC" d="M76.582,144.129c0,1.873-1.518,3.391-3.391,3.391s-3.391-1.518-3.391-3.391s1.518-3.392,3.391-3.392
			S76.582,142.256,76.582,144.129"/>
		<path fill="#FFFFFF" d="M168.246,151.584c-17.076,3.414-33.687-7.663-37.1-24.741c-3.414-17.077,7.66-33.688,24.735-37.102
			c17.076-3.413,33.687,7.664,37.101,24.741S185.322,148.17,168.246,151.584"/>
		<path fill="#1C75BC" d="M162.056,154.199c-15.651,0-29.688-11.042-32.87-26.965c-1.756-8.783,0.013-17.724,4.981-25.177
			c4.968-7.451,12.541-12.522,21.324-14.277c8.779-1.756,17.723,0.015,25.174,4.982c7.452,4.97,12.521,12.544,14.278,21.327
			c3.625,18.131-8.176,35.83-26.305,39.455h-0.001C166.43,153.986,164.227,154.199,162.056,154.199 M168.246,151.584h0.01H168.246z
			 M162.124,91.12c-1.943,0-3.9,0.192-5.849,0.582c-7.735,1.546-14.405,6.012-18.78,12.575c-4.376,6.563-5.934,14.438-4.388,22.174
			c3.192,15.968,18.78,26.362,34.746,23.172c15.967-3.192,26.36-18.781,23.167-34.75c-1.546-7.735-6.012-14.405-12.574-18.782
			C173.537,92.817,167.894,91.12,162.124,91.12"/>
		<path fill="#1C75BC" d="M162.89,145.211c-3.97,0-7.943-0.958-11.577-2.875c-4.319-2.277-7.839-5.761-10.182-10.074
			c-0.527-0.971-0.167-2.185,0.804-2.712c0.969-0.526,2.184-0.167,2.712,0.804c1.964,3.616,4.914,6.537,8.531,8.445
			c6.168,3.252,13.498,3.212,19.607-0.107c4.862-2.638,8.408-7.022,9.984-12.346c1.577-5.323,0.991-10.932-1.649-15.794
			c-0.526-0.971-0.167-2.185,0.805-2.712c0.97-0.525,2.185-0.168,2.712,0.804c3.148,5.801,3.849,12.491,1.969,18.838
			c-1.881,6.349-6.111,11.578-11.911,14.727C171.008,144.209,166.951,145.211,162.89,145.211"/>
		<path fill="#E6E7E8" d="M141.189,148.343l-17.715,19.012c-1.091,1.09-9.193-7.013-8.104-8.104l19.012-17.715L141.189,148.343z"/>
		<path fill="#1C75BC" d="M123.229,169.467c-1.466,0-3.385-1.28-6.038-3.932c-3.83-3.831-4.798-6.133-3.234-7.698l19.063-17.764
			c0.788-0.734,2.016-0.713,2.777,0.049l6.807,6.807c0.762,0.762,0.783,1.989,0.049,2.777l-17.715,19.012
			C124.441,169.215,123.88,169.467,123.229,169.467 M117.592,159.916c1.008,1.504,3.716,4.212,5.219,5.219l15.6-16.743l-4.076-4.076
			L117.592,159.916z"/>
		<path fill="#599ACE" d="M129.896,163.555l-24.836,26.878c-2.949,2.949-8.796,1.929-11.745-1.021s-3.971-8.796-1.021-11.745
			l26.878-24.836L129.896,163.555z"/>
		<path fill="#1C75BC" d="M131.31,162.141l-10.724-10.724c-0.759-0.759-1.982-0.783-2.771-0.055l-26.936,24.89
			c-3.816,3.817-2.584,10.969,1.021,14.574c1.779,1.78,4.352,2.981,7.056,3.295c0.446,0.052,0.884,0.077,1.315,0.077
			c2.467,0,4.686-0.834,6.257-2.407l24.836-26.879C132.093,164.123,132.069,162.899,131.31,162.141 M94.729,187.998
			c-2.189-2.19-3.109-6.829-1.078-8.862l3.041-2.81l9.711,9.71l-2.757,2.983C101.557,191.108,96.919,190.188,94.729,187.998
			 M109.118,183.097l-9.487-9.487l19.486-18.005l8.005,8.005L109.118,183.097z"/>
	</g>
</g>
</svg>
