<svg xmlns="http://www.w3.org/2000/svg" width="454" height="560" viewBox="0 0 454 560"><defs><style>.a{fill:#68b54d;}</style></defs><title>ohka-website_image_border</title><path class="a" d="M10010.53,2078c-6.7,70.13-5.17,103.62-.59,173.92,4.26,65.28-2.7,125.37-2.7,125.37l364.43-2c9.55,0.34,57.53,5.75,67.06,7.16,3.73,0.55,7.29.93,7.47-3.11a18.65,18.65,0,0,1,1.88-7.39,17.76,17.76,0,0,0,4.38-10.83c-0.86-39.22-1.73-78.45-1.84-117.68q0.77-37.5,1-75c0-1.46,0-2.92,0-4.39,0.09-2.91.19-5.83,0.3-8.74,1.29-34.29,4.65-68.4,6.46-102.65q2.75-52.19.62-104.49c-1.58-38.73-.35-64.83-5.86-103.2,0-.29-1-9.06-1.13-9.32l1-6.93-27.36-.17q-87.37-3.08-174.79-4.49-47.34-.76-94.68-1c-31.88-.18-63.89-0.87-95.73,1.18-5.7.37-17.4,0.83-23.09,1.42l-29.19-.21,5,10.14h0S10013,2052.56,10010.53,2078Z" transform="translate(-10006 -1822.82)"/></svg>