<svg xmlns="http://www.w3.org/2000/svg" width="124" height="124" viewBox="0 0 124 124"><defs><style>.a{fill:#f4f3f3;}.b{fill:#eae6e3;}</style></defs><title>ohka-website_image_pattern</title><rect class="a" width="124" height="124"/><path class="b" d="M8050.61-184.94h-7.49v-7.49h7.49v7.49Zm-50.68,18.71-4.65-3.74-3.74,4.65,4.65,3.74Zm30.63,30.58-4.65-3.74-3.74,4.65,4.65,3.74Zm36-83-5.3-5.3-5.3,5.3,5.3,5.3Zm-49.78,25-1-1.71-18,11,1,1.71Zm-45.17-10.74L7957-221.43l-1.52,1.3L7970.12-203Zm38,82.19L7995.93-140l-1.58,1.22,13.75,17.82Zm48.46-30.07-1.87-.71-8,21,1.87,0.71Zm-16.67-74.42-1.87-.71-8,21,1.87,0.71Zm-67.37,49.41-3.36-9.3-6.9,7.08ZM8006.46-214a3.89,3.89,0,0,0-3.89,3.89,3.89,3.89,0,0,0,3.89,3.89,3.89,3.89,0,0,0,3.89-3.89A3.89,3.89,0,0,0,8006.46-214Zm-47.12,83.37a2.83,2.83,0,0,0-2.83,2.83,2.83,2.83,0,0,0,2.83,2.83,2.83,2.83,0,0,0,2.83-2.83A2.83,2.83,0,0,0,7959.34-130.66ZM7994-224.3l-5.85-12.92-1.82.83,5.24,11.57-9.54,8.39,1.32,1.5Zm-15.42,82.15-1.58-14.1-13.94-2.61-0.37,2,12.49,2.34,1.41,12.63Zm55.86-16.75,3.32-13.79-1.95-.47-3,12.35-12.68.77,0.12,2Z" transform="translate(-7947 238.94)"/></svg>