<?xml version="1.0" encoding="utf-8"?>
<!-- Generator: Adobe Illustrator 15.1.0, SVG Export Plug-In . SVG Version: 6.00 Build 0)  -->
<!DOCTYPE svg PUBLIC "-//W3C//DTD SVG 1.1//EN" "http://www.w3.org/Graphics/SVG/1.1/DTD/svg11.dtd">
<svg version="1.1" id="Layer_1" xmlns="http://www.w3.org/2000/svg" xmlns:xlink="http://www.w3.org/1999/xlink" x="0px" y="0px"
	 width="200px" height="200px" viewBox="0 0 200 200" enable-background="new 0 0 200 200" xml:space="preserve">
<g>
	<polygon fill="#B0CFE8" points="161.849,166.426 37.151,166.426 37.151,109.744 100,63.146 161.849,109.744 	"/>
	<g>
		<path fill="#8DBADD" d="M159.849,129.185c-3.849,28.953-23.349,33.62-61.819,35.24h61.819V129.185z"/>
		<path fill="#1C75BC" d="M161.849,168.425H37.151c-1.104,0-2-0.896-2-2v-56.681c0-0.633,0.3-1.229,0.81-1.605l62.848-46.6
			c0.712-0.53,1.687-0.523,2.395,0.009l61.849,46.599c0.502,0.378,0.797,0.969,0.797,1.597v56.681
			C163.849,167.529,162.953,168.425,161.849,168.425 M39.151,164.425h120.697v-53.684L99.99,65.643l-60.839,45.108V164.425z"/>
		<path fill="#1C75BC" d="M120.187,99.542H79.812c-1.38,0-2.5-1.118-2.5-2.5c0-1.381,1.12-2.5,2.5-2.5h40.374
			c1.381,0,2.5,1.119,2.5,2.5C122.687,98.424,121.567,99.542,120.187,99.542"/>
		<rect x="58.154" y="120.43" fill="#E6E7E8" width="35.341" height="45.795"/>
		<path fill="#1C75BC" d="M93.495,168.225H58.154c-1.105,0-2-0.895-2-2v-45.796c0-1.104,0.895-2,2-2h35.341c1.104,0,2,0.896,2,2
			v45.796C95.495,167.33,94.6,168.225,93.495,168.225 M60.154,164.225h31.341v-41.796H60.154V164.225z"/>
		<path fill="#F1F2F2" d="M197,166.436H3c0,0,49.891,14.699,97,14.699C147.11,181.135,197,166.436,197,166.436"/>
		<path fill="#1C75BC" d="M11.993,168.418H3c-1.105,0-2-0.896-2-2c0-1.104,0.895-2,2-2h8.993c1.104,0,2,0.896,2,2
			C13.993,167.522,13.098,168.418,11.993,168.418"/>
		<path fill="#1C75BC" d="M22.216,168.418h-3.515c-1.104,0-2-0.896-2-2c0-1.104,0.896-2,2-2h3.515c1.104,0,2,0.896,2,2
			C24.216,167.522,23.32,168.418,22.216,168.418"/>
		<path fill="#1C75BC" d="M182.082,168.418H27.93c-1.105,0-2-0.896-2-2c0-1.104,0.895-2,2-2h154.152c1.104,0,2,0.896,2,2
			C184.082,167.522,183.186,168.418,182.082,168.418"/>
		<path fill="#1C75BC" d="M197,168.418h-9.378c-1.104,0-2-0.896-2-2c0-1.104,0.896-2,2-2H197c1.104,0,2,0.896,2,2
			C199,167.522,198.104,168.418,197,168.418"/>
		<rect x="116.666" y="120.43" fill="#E6E7E8" width="22.856" height="25.856"/>
		<path fill="#1C75BC" d="M139.522,148.286h-22.856c-1.104,0-2-0.896-2-2v-25.857c0-1.104,0.896-2,2-2h22.856c1.104,0,2,0.896,2,2
			v25.857C141.522,147.39,140.627,148.286,139.522,148.286 M118.666,144.286h18.856V122.43h-18.856V144.286z"/>
		<path fill="#1C75BC" d="M87.236,75.099c2.787,4.073,7.467,6.753,12.764,6.753c5.249,0,9.888-2.635,12.683-6.646L99.99,65.643
			L87.236,75.099z"/>
		<path fill="#8BB9DD" d="M100,90.852c8.181,0,15.431-4.042,19.874-10.228l-7.191-5.418c-2.795,4.011-7.434,6.646-12.683,6.646
			c-5.297,0-9.977-2.68-12.764-6.753l-7.228,5.359C84.439,86.738,91.747,90.852,100,90.852"/>
		<path fill="#E6E7E8" d="M80.043,66.395c0-11.022,8.935-19.958,19.957-19.958s19.957,8.936,19.957,19.958
			c0,11.022-8.935,19.958-19.957,19.958S80.043,77.417,80.043,66.395"/>
		<path fill="#1C75BC" d="M100,88.352c-12.107,0-21.958-9.851-21.958-21.958S87.893,44.437,100,44.437s21.958,9.85,21.958,21.957
			S112.107,88.352,100,88.352 M100,48.437c-9.902,0-17.958,8.056-17.958,17.957c0,9.902,8.056,17.958,17.958,17.958
			s17.958-8.056,17.958-17.958C117.958,56.493,109.902,48.437,100,48.437"/>
		<path fill="#1C75BC" d="M88.601,41.317c-1.104,0-2-0.896-2-2V12.126c0-1.105,0.896-2,2-2s2,0.895,2,2v27.191
			C90.601,40.421,89.705,41.317,88.601,41.317"/>
		<path fill="#1C75BC" d="M101.14,35.618c-1.104,0-2-0.896-2-2V3c0-1.104,0.896-2,2-2c1.104,0,2,0.896,2,2v30.618
			C103.14,34.722,102.243,35.618,101.14,35.618"/>
		<path fill="#1C75BC" d="M113.68,41.317c-1.104,0-2-0.896-2-2V15.546c0-1.105,0.896-2,2-2s2,0.895,2,2v23.771
			C115.68,40.421,114.783,41.317,113.68,41.317"/>
		<path fill="#1C75BC" d="M108.458,70.504c0-3.809-3.052-5.774-6.458-6.203V58.74c1.699,0.459,2.284,1.623,2.362,1.806
			c0.398,1.015,1.537,1.526,2.562,1.141c1.034-0.387,1.559-1.539,1.172-2.574c-0.062-0.17-1.491-3.801-6.097-4.458v-0.66
			c0-1.105-0.896-2-2-2s-2,0.895-2,2v0.82c-3.711,0.813-6.208,3.405-6.208,6.76c0,1.755,0.666,5.557,6.208,6.444v4.647
			c-2.043-0.578-2.545-1.75-2.557-1.771c-0.34-1.05-1.467-1.622-2.52-1.285c-1.05,0.341-1.626,1.468-1.285,2.519
			c0.057,0.173,1.273,3.716,6.361,4.634v0.718c0,1.104,0.896,2,2,2s2-0.896,2-2v-0.582C106.07,76.46,108.458,74.143,108.458,70.504
			 M95.792,61.575c0-1.291,0.944-2.145,2.208-2.608v4.989C95.802,63.425,95.792,62.185,95.792,61.575 M102,72.88v-4.54
			c1.152,0.212,2.458,0.759,2.458,2.164C104.458,71.192,104.45,72.511,102,72.88"/>
		<path fill="#1C75BC" d="M69.477,147.679c0,1.72-1.395,3.113-3.113,3.113s-3.113-1.394-3.113-3.113
			c0-1.719,1.395-3.112,3.113-3.112S69.477,145.96,69.477,147.679"/>
	</g>
</g>
</svg>
