<?xml version="1.0" encoding="utf-8"?>
<!-- Generator: Adobe Illustrator 15.1.0, SVG Export Plug-In . SVG Version: 6.00 Build 0)  -->
<!DOCTYPE svg PUBLIC "-//W3C//DTD SVG 1.1//EN" "http://www.w3.org/Graphics/SVG/1.1/DTD/svg11.dtd">
<svg version="1.1" id="Layer_1" xmlns="http://www.w3.org/2000/svg" xmlns:xlink="http://www.w3.org/1999/xlink" x="0px" y="0px"
	 width="200px" height="200px" viewBox="0 0 200 200" enable-background="new 0 0 200 200" xml:space="preserve">
<g>
	<g>
		<path fill="#F1F2F2" d="M101.365,163.794c0.395-0.13,79.318-29.238,79.318-101.752V5.193c0-2.235-1.174-2.738-3.262-1.608
			c-6.264,3.391-20.742,7.455-36.365,7.455c-16.162,0-30.896-3.244-37.209-4.72c-2.906-0.679-4.535-0.679-7.634,0
			c-6.298,1.381-20.903,4.72-37.271,4.72c-15.623,0-30.103-4.064-36.365-7.455c-2.088-1.13-3.264-0.627-3.264,1.608v56.849
			c0,72.514,79.029,101.665,79.359,101.757C99.436,164.012,100.35,164.126,101.365,163.794"/>
		<path fill="#D1D3D4" d="M179.5,61.883c0,29.451-13.15,55.19-39.082,76.502c-17.287,14.208-36.092,23.154-40.418,24.865
			l0.021-155.931c0.49,0.075,2.404,0.377,3.021,0.52c13.715,3.168,26.543,4.775,38.129,4.775c15.338,0,30.592-3.867,37.73-7.685
			c0.246-0.132,0.439-0.216,0.586-0.271c0.008,0.08,0.012,0.175,0.012,0.285V61.883z"/>
		<path fill="#4D4D4C" d="M100.062,166.003c-0.625,0-1.266-0.093-1.93-0.279c-0.805-0.225-80.818-29.838-80.818-103.682V5.193
			c0-2.234,0.942-3.264,1.731-3.735c1.203-0.716,2.711-0.592,4.483,0.369C28.887,4.727,42.738,9.04,58.943,9.04
			c15.596,0,29.494-3.056,36.172-4.526l0.671-0.146c3.397-0.748,5.31-0.746,8.517,0.005c13.248,3.097,25.613,4.667,36.754,4.667
			c16.203,0,30.057-4.313,35.412-7.212c1.773-0.962,3.281-1.085,4.484-0.369c0.789,0.471,1.73,1.501,1.73,3.735v56.848
			c0,74.093-79.893,103.391-80.699,103.655C101.354,165.901,100.717,166.003,100.062,166.003 M99.273,161.889
			c0.557,0.146,1.006,0.149,1.449,0.012c0.658-0.243,20.168-7.566,39.488-23.639c25.529-21.237,38.473-46.882,38.473-76.22V5.193
			V5.188c-0.09,0.042-0.193,0.094-0.311,0.156c-7.064,3.824-22.152,7.695-37.316,7.695c-11.445,0-24.117-1.605-37.664-4.772
			c-2.615-0.61-3.939-0.608-6.75,0.006L95.975,8.42c-6.816,1.499-21,4.619-37.031,4.619c-15.164,0-30.252-3.871-37.317-7.695
			c-0.116-0.062-0.22-0.114-0.312-0.156v0.005v56.848c0,29.291,12.922,54.91,38.405,76.142
			C78.763,154.051,98.232,161.501,99.273,161.889"/>
		<path fill="#9EB77E" d="M100.098,18.502c0.229,0,0.619,0.029,1.596,0.258c13.342,3.119,25.871,4.701,37.24,4.701
			c10.822,0,21.166-1.87,28.994-4.275v44.002c0,25.591-11.338,48.074-33.699,66.825c-14.607,12.25-29.4,18.943-34.219,20.942
			c-10.429-4.328-67.938-30.803-67.938-87.767V19.186c7.828,2.404,18.172,4.275,28.992,4.275c15.931,0,29.863-3.065,36.558-4.537
			l0.628-0.138C99.133,18.592,99.719,18.502,100.098,18.502"/>
		<path fill="#86A55E" d="M140.982,25.673c-12.369,0-25.959-1.711-40.393-5.086c-0.24-0.057-0.41-0.092-0.523-0.113
			c-0.016,0.003-0.047,0.009-0.066,0.012v128.491c0.002,0.001,0.006,0.003,0.01,0.005c5.996-2.661,19.467-9.301,32.652-20.356
			c22.293-18.694,33.598-41.009,33.598-66.324V21.766C158.104,23.658,149.348,25.673,140.982,25.673"/>
		<path fill="#5D8728" d="M100.062,166.003c-0.625,0-1.266-0.093-1.93-0.279c-0.805-0.225-80.818-29.838-80.818-103.682V5.193
			c0-2.234,0.942-3.264,1.731-3.735c1.203-0.716,2.711-0.592,4.483,0.369C28.887,4.727,42.738,9.04,58.943,9.04
			c15.596,0,29.494-3.056,36.172-4.526l0.671-0.146c3.397-0.748,5.31-0.746,8.517,0.005c13.248,3.097,25.613,4.667,36.754,4.667
			c16.203,0,30.057-4.313,35.412-7.212c1.773-0.962,3.281-1.085,4.484-0.369c0.789,0.471,1.73,1.501,1.73,3.735v56.848
			c0,74.093-79.893,103.391-80.699,103.655C101.354,165.901,100.717,166.003,100.062,166.003 M99.273,161.889
			c0.557,0.146,1.006,0.149,1.449,0.012c0.658-0.243,20.168-7.566,39.488-23.639c25.529-21.237,38.473-46.882,38.473-76.22V5.193
			V5.188c-0.09,0.042-0.193,0.094-0.311,0.156c-7.064,3.824-22.152,7.695-37.316,7.695c-11.445,0-24.117-1.605-37.664-4.772
			c-2.615-0.61-3.939-0.608-6.75,0.006L95.975,8.42c-6.816,1.499-21,4.619-37.031,4.619c-15.164,0-30.252-3.871-37.317-7.695
			c-0.116-0.062-0.22-0.114-0.312-0.156v0.005v56.848c0,29.291,12.922,54.91,38.405,76.142
			C78.763,154.051,98.232,161.501,99.273,161.889"/>
		<path fill="#5D8728" d="M169.115,17.578c-0.512-0.378-1.17-0.488-1.775-0.304c-5.09,1.563-15.549,4.186-28.406,4.186
			c-11.219,0-23.594-1.564-36.785-4.648c-1.166-0.273-1.674-0.31-2.051-0.31c-0.537,0-1.219,0.098-2.277,0.331l-0.629,0.137
			c-6.627,1.458-20.414,4.49-36.127,4.49c-12.854,0-23.314-2.623-28.406-4.186c-0.606-0.185-1.264-0.073-1.775,0.304
			c-0.51,0.377-0.811,0.973-0.811,1.608v44.002c0,24.64,10.332,46.542,30.711,65.101c16.008,14.578,33.484,22.448,38.459,24.514
			c0.246,0.102,0.508,0.153,0.768,0.153c0.262,0,0.521-0.052,0.766-0.153c5.59-2.319,20.16-9.034,34.738-21.258
			c22.836-19.148,34.414-42.146,34.414-68.357V19.186C169.928,18.551,169.627,17.955,169.115,17.578 M132.943,128.48
			c-0.074,0.062-0.146,0.118-0.221,0.181c-0.174-0.071-0.363-0.112-0.562-0.112h-12.232c-0.828,0-1.5,0.672-1.5,1.5
			s0.672,1.5,1.5,1.5h9.188c-1.514,1.171-3.02,2.287-4.508,3.339h-11.924c-0.828,0-1.5,0.672-1.5,1.5s0.672,1.5,1.5,1.5h7.512
			c-8.973,5.838-16.715,9.415-20.186,10.898c-5.662-2.418-21.74-9.984-36.533-23.454c-19.512-17.77-29.404-38.677-29.404-62.144
			V21.847c5.859,1.601,15.514,3.613,26.992,3.613c16.147,0,30.223-3.095,36.986-4.583l0.627-0.137
			c0.979-0.215,1.32-0.238,1.42-0.238c0.061,0,0.326,0.014,1.141,0.205c13.488,3.154,26.172,4.753,37.695,4.753
			c11.48,0,21.133-2.012,26.994-3.613v8.1h-11.297c-0.828,0-1.5,0.672-1.5,1.5s0.672,1.5,1.5,1.5h11.297v3.244h-29.406
			c-0.828,0-1.5,0.672-1.5,1.5c0,0.828,0.672,1.5,1.5,1.5h29.406v4.243h-13.41c-0.828,0-1.5,0.672-1.5,1.5
			c0,0.828,0.672,1.5,1.5,1.5h13.41v16.754C165.928,88.16,154.83,110.127,132.943,128.48"/>
		<path fill="#5D8728" d="M148.006,43.435h-6.354c-0.828,0-1.5,0.672-1.5,1.5c0,0.828,0.672,1.5,1.5,1.5h6.354
			c0.828,0,1.5-0.672,1.5-1.5C149.506,44.106,148.834,43.435,148.006,43.435"/>
		<path fill="#5D8728" d="M108.609,134.888c-0.828,0-1.5,0.673-1.5,1.5c0,0.828,0.672,1.5,1.5,1.5h0.01
			c0.828,0,1.494-0.672,1.494-1.5C110.113,135.561,109.438,134.888,108.609,134.888"/>
		<path fill="#5D8728" d="M162.939,49.773c-0.828,0-1.5,0.672-1.5,1.5c0,0.828,0.672,1.5,1.5,1.5h0.008
			c0.828,0,1.496-0.672,1.496-1.5C164.443,50.445,163.768,49.773,162.939,49.773"/>
		<path fill="#F1F2F2" d="M139.004,77.834c0,21.292-17.26,38.552-38.551,38.552c-21.293,0-38.553-17.26-38.553-38.552
			c0-21.292,17.26-38.553,38.553-38.553C121.744,39.281,139.004,56.542,139.004,77.834"/>
		<path fill="#5D8728" d="M100.451,118.886c-22.635,0-41.051-18.416-41.051-41.052c0-22.637,18.416-41.053,41.051-41.053
			c22.637,0,41.053,18.416,41.053,41.053C141.504,100.47,123.088,118.886,100.451,118.886 M100.451,41.781
			c-19.878,0-36.051,16.173-36.051,36.053c0,19.88,16.173,36.052,36.051,36.052c19.881,0,36.053-16.171,36.053-36.052
			C136.504,57.954,120.332,41.781,100.451,41.781"/>
		<path fill="#5D8728" d="M95.209,96.348c-1.09,0-2.182-0.395-3.043-1.187L78.967,83.036c-1.83-1.682-1.951-4.529-0.271-6.359
			c1.683-1.83,4.53-1.948,6.359-0.268l10.05,9.233l22.727-22.337c1.771-1.741,4.621-1.719,6.363,0.055
			c1.742,1.772,1.717,4.621-0.055,6.363L98.365,95.057C97.49,95.917,96.351,96.348,95.209,96.348"/>
		<path fill="#F1F2F2" d="M3,166.354h194c0,0-49.891,14.699-97,14.699C52.89,181.053,3,166.354,3,166.354"/>
		<path fill="#5D8728" d="M197,168.336h-11.994c-1.104,0-2-0.896-2-2c0-1.104,0.896-2,2-2H197c1.104,0,2,0.896,2,2
			C199,167.44,198.104,168.336,197,168.336"/>
		<path fill="#5D8728" d="M178.297,168.336h-3.514c-1.104,0-2-0.896-2-2c0-1.104,0.896-2,2-2h3.514c1.105,0,2,0.896,2,2
			C180.297,167.44,179.402,168.336,178.297,168.336"/>
		<path fill="#5D8728" d="M169.07,168.336H17.918c-1.105,0-2-0.896-2-2c0-1.104,0.895-2,2-2H169.07c1.105,0,2,0.896,2,2
			C171.07,167.44,170.176,168.336,169.07,168.336"/>
		<path fill="#5D8728" d="M12.378,168.336H3c-1.105,0-2-0.896-2-2c0-1.104,0.895-2,2-2h9.378c1.104,0,2,0.896,2,2
			C14.378,167.44,13.482,168.336,12.378,168.336"/>
	</g>
</g>
</svg>
